<svg width="228" height="200" viewBox="0 0 228 200" fill="none" xmlns="http://www.w3.org/2000/svg">
<rect x="0.5" y="0.5" width="227" height="199" stroke="#424242"/>
<g clip-path="url(#clip0_1_485)">
<path fill-rule="evenodd" clip-rule="evenodd" d="M81.641 116.568H81.9555V82.8389H81.641V116.568ZM58.0985 82.9902L56.3248 86.06L58.6394 90.3565L50.5879 104.33L52.359 107.325H55.9063L58.3933 103.199L74.4424 103.215L76.2947 99.9579L74.5648 96.9989H69.8856L61.6432 82.9902H58.0985ZM58.4853 86.0638L59.2297 84.8085H60.5842L67.6776 96.9951L64.8462 96.9977L58.4859 86.0638H58.4853ZM52.7642 104.315L59.7478 92.1755L61.1011 94.5321L54.8315 105.374L53.418 105.384L52.7642 104.315ZM60.881 98.9034H73.5134L74.2262 100.007L73.5553 101.308H59.4517L60.881 98.9034ZM95.723 91.1628C96.659 91.1628 97.5353 91.3363 98.3496 91.6808C99.1644 92.0285 99.9368 92.5498 100.664 93.2521L104.6 93.325L104.619 94.8399V104.065H105.49V107.341H100.665V105.655C100.001 106.335 99.2494 106.852 98.4073 107.21C97.5658 107.564 96.6698 107.743 95.723 107.743C93.3863 107.743 91.468 106.964 89.9715 105.405C88.4743 103.845 87.7248 101.862 87.7248 99.4531C87.7248 97.1091 88.4845 95.1426 90.0057 93.5504C91.5257 91.9589 93.43 91.1628 95.723 91.1628ZM141.26 91.2305C143.79 91.2305 145.821 92.0507 147.357 93.6917C148.891 95.3333 149.659 97.5233 149.659 100.263V100.656H136.585C136.719 101.861 137.201 102.787 138.031 103.432C138.861 104.079 139.979 104.401 141.385 104.401C142.261 104.401 143.046 104.255 143.744 103.962C144.442 103.67 144.979 103.259 145.357 102.729H149.229C148.764 104.324 147.843 105.558 146.463 106.431C145.081 107.306 143.358 107.743 141.293 107.743C138.676 107.743 136.566 106.983 134.965 105.465C133.364 103.946 132.564 101.953 132.564 99.4873C132.564 97.0749 133.378 95.0977 135.006 93.5498C136.636 92.0045 138.72 91.2305 141.26 91.2305H141.26ZM168.256 91.1628C169.205 91.1628 170.051 91.2894 170.798 91.5415C171.072 91.634 171.539 91.824 172.021 92.0266L172.284 92.1381C172.853 92.3807 173.398 92.6207 173.622 92.7195L173.702 92.755L173.73 92.7676H175.662V96.5113H172.465C172.189 95.6867 171.73 95.0584 171.091 94.6233C170.452 94.1882 169.666 93.971 168.742 93.971C167.992 93.971 167.393 94.1255 166.945 94.4327C166.5 94.7417 166.277 95.1369 166.277 95.6189C166.277 96.5322 167.29 97.175 169.321 97.548C169.419 97.5588 169.496 97.5702 169.553 97.581L171.357 97.8976C173.237 98.2396 174.627 98.8096 175.524 99.6064C176.42 100.402 176.869 101.462 176.869 102.787C176.869 104.225 176.313 105.408 175.205 106.342C174.095 107.276 172.645 107.743 170.855 107.743C169.951 107.743 169.075 107.614 168.231 107.354C167.386 107.096 166.545 106.702 165.705 106.171L165.673 107.341H162.724V101.86H165.804C166.2 102.819 166.807 103.549 167.622 104.051C168.437 104.551 169.436 104.802 170.615 104.802C171.321 104.802 171.89 104.631 172.327 104.291C172.761 103.95 172.98 103.505 172.98 102.956C172.98 102.494 172.814 102.14 172.483 101.892C172.153 101.646 171.401 101.413 170.23 101.192L167.633 100.76C165.896 100.451 164.61 99.9078 163.775 99.1301C162.939 98.353 162.523 97.3137 162.523 96.0116C162.523 94.5448 163.044 93.3693 164.086 92.4877C165.131 91.6055 166.521 91.1628 168.256 91.1628ZM111.711 82.9402V93.7018C112.641 92.8227 113.56 92.1818 114.463 91.7733C115.366 91.368 116.324 91.1634 117.331 91.1634C118.994 91.1634 120.227 91.6099 121.031 92.5016C121.834 93.3965 122.237 94.7785 122.237 96.6531V104.066H123.108V107.341H118.282V97.5335C118.282 96.681 118.064 96.0185 117.632 95.548C117.201 95.0774 116.591 94.8399 115.803 94.8399C115.104 94.8399 114.416 95.0375 113.74 95.4302C113.064 95.8241 112.389 96.4264 111.711 97.2345V104.066H112.582V107.341H107.756V86.2158H106.884V82.9402H111.711ZM130.192 82.9402V104.066H131.13V107.341H125.233V104.066H126.304V86.2158H125.266V82.9402H130.192ZM160.731 91.1039C160.803 91.1039 160.917 91.1077 161.078 91.1197C161.209 91.1292 161.32 91.1343 161.391 91.1343H161.739V94.3624H160.607C159.171 94.3624 158.042 94.7392 157.255 95.4834C156.46 96.2326 156.075 97.263 156.075 98.6355V104.356H157.086V107.312H151.575V104.356H152.588V94.4922H151.575V91.5377H156.075V93.1248C156.523 92.5738 157.03 92.1368 157.591 91.8208C158.439 91.3452 159.496 91.1032 160.73 91.1032L160.731 91.1039ZM96.2639 94.7056C94.9335 94.7056 93.8479 95.149 93.0083 96.0344C92.1681 96.9191 91.7477 98.0642 91.7477 99.4696C91.7477 100.864 92.1681 102 93.0083 102.879C93.8485 103.76 94.9335 104.2 96.2639 104.2C97.5601 104.2 98.6394 103.754 99.5024 102.864C100.365 101.974 100.799 100.842 100.799 99.4689C100.799 98.0971 100.362 96.9616 99.4948 96.0584C98.626 95.1566 97.5493 94.7056 96.2639 94.7056ZM141.252 94.572C140.056 94.572 139.048 94.8665 138.222 95.4536C137.398 96.042 136.852 96.8621 136.585 97.9147H145.77C145.45 96.8184 144.904 95.9869 144.134 95.42C143.365 94.8557 142.403 94.5714 141.252 94.5714V94.572ZM93.0996 112.946C94.1776 112.946 94.9538 113.746 94.9538 114.785C94.9538 115.835 94.1776 116.62 93.0996 116.62C92.0165 116.62 91.2353 115.83 91.2353 114.785C91.2353 113.756 92.0165 112.946 93.0996 112.946ZM152.893 112.946C153.971 112.946 154.747 113.746 154.747 114.785C154.747 115.835 153.971 116.62 152.893 116.62C151.81 116.62 151.029 115.83 151.029 114.785C151.029 113.756 151.81 112.946 152.893 112.946ZM89.1807 112.946C89.7166 112.946 90.0387 113.079 90.274 113.272L90.0901 113.552C89.8396 113.364 89.6094 113.272 89.1909 113.272C88.721 113.272 88.4046 113.502 88.4046 113.873C88.4046 114.245 88.6899 114.404 89.2112 114.526C89.9924 114.709 90.3608 115.009 90.3608 115.596C90.3608 116.257 89.8193 116.619 89.17 116.619C88.6696 116.619 88.2251 116.492 87.9036 116.258L88.0977 115.947C88.3634 116.15 88.7464 116.288 89.1554 116.288C89.6557 116.288 89.9975 116.043 89.9975 115.631C89.9975 115.234 89.7527 115.015 89.1243 114.877C88.4141 114.719 88.0412 114.439 88.0412 113.884C88.0412 113.344 88.5263 112.946 89.1807 112.946ZM174.98 112.946C175.517 112.946 175.838 113.079 176.073 113.272L175.889 113.552C175.639 113.364 175.409 113.272 174.99 113.272C174.521 113.272 174.204 113.502 174.204 113.873C174.204 114.245 174.49 114.404 175.011 114.526C175.792 114.709 176.16 115.009 176.16 115.596C176.16 116.257 175.618 116.619 174.97 116.619C174.469 116.619 174.025 116.492 173.703 116.258L173.897 115.947C174.162 116.15 174.546 116.288 174.954 116.288C175.455 116.288 175.798 116.043 175.798 115.631C175.798 115.234 175.552 115.015 174.924 114.877C174.214 114.719 173.841 114.439 173.841 113.884C173.841 113.344 174.326 112.946 174.98 112.946ZM171.832 112.946C172.491 112.946 172.864 113.181 172.996 113.272L172.818 113.563C172.72 113.481 172.409 113.278 171.878 113.278C170.943 113.278 170.315 113.884 170.315 114.78C170.315 115.667 170.923 116.288 171.878 116.288C172.409 116.288 172.705 116.104 172.828 116.023L172.996 116.309C172.864 116.4 172.491 116.619 171.832 116.619C170.703 116.619 169.947 115.845 169.947 114.791C169.947 113.72 170.724 112.946 171.832 112.946ZM118.584 112.946C119.121 112.946 119.442 113.079 119.678 113.272L119.494 113.552C119.243 113.364 119.013 113.272 118.595 113.272C118.125 113.272 117.808 113.502 117.808 113.873C117.808 114.245 118.094 114.404 118.615 114.526C119.397 114.709 119.765 115.009 119.765 115.596C119.765 116.257 119.223 116.619 118.574 116.619C118.073 116.619 117.629 116.492 117.307 116.258L117.501 115.947C117.767 116.15 118.15 116.288 118.559 116.288C119.06 116.288 119.402 116.043 119.402 115.631C119.402 115.234 119.156 115.015 118.528 114.877C117.818 114.719 117.445 114.439 117.445 113.884C117.445 113.344 117.931 112.946 118.584 112.946ZM157.544 112.946C158.203 112.946 158.576 113.181 158.709 113.272L158.54 113.563C158.437 113.476 158.116 113.278 157.579 113.278C156.716 113.278 156.011 113.909 156.011 114.791C156.011 115.672 156.716 116.288 157.549 116.288C157.978 116.288 158.31 116.181 158.519 116.079V114.943H158.887V116.257C158.657 116.39 158.238 116.62 157.533 116.62C156.466 116.62 155.643 115.845 155.643 114.791C155.643 113.736 156.466 112.946 157.544 112.946ZM99.5645 112.992V115.147C99.5645 115.82 99.9888 116.273 100.693 116.273C101.383 116.273 101.792 115.82 101.792 115.147V112.992H102.149V115.122C102.149 116.084 101.567 116.619 100.684 116.619C99.7789 116.619 99.1872 116.079 99.1872 115.122V112.992H99.5645ZM110.229 112.946C111.307 112.946 112.083 113.746 112.083 114.785C112.083 115.835 111.307 116.62 110.229 116.62C109.146 116.62 108.365 115.83 108.365 114.785C108.365 113.756 109.146 112.946 110.229 112.946ZM134.87 112.946C135.948 112.946 136.724 113.746 136.724 114.785C136.724 115.835 135.948 116.62 134.87 116.62C133.787 116.62 133.006 115.83 133.006 114.785C133.006 113.756 133.787 112.946 134.87 112.946ZM162.782 112.946C163.318 112.946 163.64 113.079 163.875 113.272L163.691 113.552C163.441 113.364 163.211 113.272 162.792 113.272C162.323 113.272 162.006 113.502 162.006 113.873C162.006 114.245 162.291 114.404 162.813 114.526C163.594 114.709 163.962 115.009 163.962 115.596C163.962 116.257 163.42 116.619 162.772 116.619C162.271 116.619 161.827 116.492 161.505 116.258L161.699 115.947C161.964 116.15 162.348 116.288 162.756 116.288C163.257 116.288 163.599 116.043 163.599 115.631C163.599 115.234 163.354 115.015 162.726 114.877C162.016 114.719 161.643 114.439 161.643 113.884C161.643 113.344 162.128 112.946 162.782 112.946ZM138.11 112.956L140.517 115.906V112.993H140.88V116.609H140.655L138.243 113.67V116.573H137.881V112.957H138.11V112.956ZM113.465 112.956L115.87 115.906V112.993H116.233V116.609H116.009L113.597 113.67V116.573H113.234V112.957H113.465V112.956ZM123.725 112.992C124.63 112.992 125.008 113.385 125.008 113.95C125.008 114.307 124.782 114.597 124.481 114.74C124.869 114.867 125.115 115.188 125.115 115.554C125.115 116.191 124.665 116.574 123.853 116.574H122.56V112.992H123.725ZM129.812 112.992L130.916 114.806L132.029 112.992H132.448L131.084 115.162V116.573H130.722V115.152L129.373 112.993H129.812V112.992ZM96.4681 112.992V116.247H98.4244V116.573H96.1054V112.992H96.4681ZM107.21 112.992V116.573H106.847V112.992H107.21ZM128.625 112.992V113.318H126.669V114.592H128.38V114.918H126.669V116.248H128.625V116.573H126.306V112.992H128.625ZM148.566 112.992V116.247H150.522V116.573H148.203V112.992H148.566ZM105.896 112.992V113.318H104.669V116.573H104.301V113.318H103.05V112.992H105.896ZM160.427 112.992V116.573H160.064V112.992H160.427ZM167.467 112.992V113.318H166.242V116.573H165.874V113.318H164.622V112.992H167.467ZM168.786 112.992V116.573H168.424V112.992H168.786ZM143.506 112.992C144.63 112.992 145.381 113.706 145.381 114.78C145.381 115.855 144.63 116.573 143.506 116.573H142.291V112.992H143.506ZM93.0996 113.277C92.2467 113.277 91.6031 113.94 91.6031 114.785C91.6031 115.656 92.2467 116.288 93.0996 116.288C93.943 116.288 94.586 115.661 94.586 114.785C94.586 113.934 93.943 113.278 93.0996 113.278V113.277ZM110.229 113.277C109.376 113.277 108.733 113.94 108.733 114.785C108.733 115.656 109.376 116.288 110.229 116.288C111.072 116.288 111.716 115.661 111.716 114.785C111.716 113.934 111.072 113.278 110.229 113.278V113.277ZM134.87 113.277C134.017 113.277 133.374 113.94 133.374 114.785C133.374 115.656 134.017 116.288 134.87 116.288C135.713 116.288 136.356 115.661 136.356 114.785C136.356 113.934 135.713 113.278 134.87 113.278V113.277ZM152.893 113.277C152.04 113.277 151.397 113.94 151.397 114.785C151.397 115.656 152.04 116.288 152.893 116.288C153.737 116.288 154.38 115.661 154.38 114.785C154.38 113.934 153.736 113.278 152.893 113.278V113.277ZM143.521 113.318H142.653V116.247H143.522C144.421 116.247 145.008 115.661 145.008 114.785C145.008 113.909 144.421 113.318 143.521 113.318ZM123.878 114.918H122.923V116.247H123.838C124.394 116.247 124.742 115.982 124.742 115.534C124.742 115.219 124.486 114.918 123.878 114.918ZM123.715 113.318H122.923V114.592H123.878C124.343 114.592 124.63 114.357 124.63 113.991C124.63 113.583 124.349 113.318 123.715 113.318Z" fill="#E74214"/>
</g>
<defs>
<clipPath id="clip0_1_485">
<rect width="126.825" height="34.2" fill="white" transform="translate(50.5879 82.5254)"/>
</clipPath>
</defs>
</svg>
