<svg width="190" height="72" viewBox="0 0 190 72" fill="none" xmlns="http://www.w3.org/2000/svg">
<g clip-path="url(#clip0_1_486)">
<path fill-rule="evenodd" clip-rule="evenodd" d="M63.0531 52.7294H63.3676V19H63.0531V52.7294ZM39.5106 19.1514L37.7369 22.2211L40.0515 26.5177L32 40.4909L33.7711 43.4859H37.3184L39.8054 39.3598L55.8545 39.3762L57.7068 36.119L55.9769 33.1601H51.2977L43.0553 19.1514H39.5106ZM39.8974 22.2249L40.6419 20.9697H41.9963L49.0897 33.1563L46.2583 33.1588L39.898 22.2249H39.8974ZM34.1763 40.4763L41.1599 28.3366L42.5132 30.6932L36.2436 41.5346L34.8301 41.5454L34.1763 40.4763ZM42.2931 35.0645H54.9255L55.6383 36.1678L54.9674 37.4693H40.8638L42.2931 35.0645ZM77.1351 27.3239C78.0711 27.3239 78.9474 27.4974 79.7617 27.842C80.5765 28.1897 81.3489 28.7109 82.0762 29.4133L86.0122 29.4861L86.0313 31.001V40.2262H86.9025V43.5018H82.0769V41.8158C81.4136 42.496 80.6615 43.0135 79.8194 43.3707C78.9779 43.7253 78.0819 43.9039 77.1351 43.9039C74.7984 43.9039 72.8801 43.1249 71.3836 41.5663C69.8864 40.0064 69.1369 38.0228 69.1369 35.6142C69.1369 33.2703 69.8966 31.3038 71.4178 29.7116C72.9378 28.12 74.8421 27.3239 77.1351 27.3239ZM122.672 27.3917C125.202 27.3917 127.233 28.2118 128.769 29.8528C130.303 31.4944 131.071 33.6845 131.071 36.4236V36.8169H117.998C118.131 38.0222 118.613 38.9481 119.443 39.5935C120.273 40.2401 121.391 40.5618 122.797 40.5618C123.673 40.5618 124.459 40.4162 125.156 40.1236C125.854 39.8316 126.391 39.4206 126.769 38.8905H130.641C130.177 40.4852 129.255 41.7196 127.875 42.5923C126.494 43.4676 124.771 43.9046 122.705 43.9046C120.088 43.9046 117.978 43.1446 116.377 41.6258C114.776 40.1071 113.976 38.1146 113.976 35.6484C113.976 33.2361 114.79 31.2588 116.419 29.7109C118.048 28.1656 120.132 27.3917 122.672 27.3917H122.672ZM149.668 27.3239C150.617 27.3239 151.463 27.4506 152.21 27.7026C152.484 27.7951 152.951 27.9851 153.433 28.1878L153.696 28.2992C154.265 28.5418 154.81 28.7818 155.034 28.8806L155.114 28.9161L155.142 28.9288H157.074V32.6724H153.877C153.601 31.8478 153.142 31.2195 152.503 30.7844C151.864 30.3493 151.079 30.1321 150.154 30.1321C149.404 30.1321 148.805 30.2866 148.358 30.5938C147.912 30.9029 147.689 31.2981 147.689 31.78C147.689 32.6933 148.702 33.3361 150.733 33.7092C150.831 33.7199 150.908 33.7313 150.965 33.7421L152.769 34.0588C154.649 34.4008 156.039 34.9708 156.937 35.7675C157.833 36.563 158.281 37.6232 158.281 38.9481C158.281 40.3858 157.725 41.5695 156.617 42.503C155.507 43.4372 154.057 43.9046 152.267 43.9046C151.363 43.9046 150.488 43.7747 149.644 43.5151C148.798 43.2573 147.957 42.8627 147.117 42.3326L147.085 43.5024H144.136V38.0209H147.216C147.612 38.9804 148.219 39.71 149.034 40.2122C149.85 40.7126 150.848 40.9634 152.027 40.9634C152.734 40.9634 153.302 40.7924 153.739 40.4516C154.173 40.1109 154.392 39.6663 154.392 39.1172C154.392 38.6549 154.226 38.3008 153.895 38.0532C153.565 37.8075 152.814 37.5738 151.642 37.3527L149.046 36.9208C147.308 36.6124 146.022 36.069 145.187 35.2912C144.351 34.5141 143.935 33.4748 143.935 32.1727C143.935 30.7059 144.456 29.5304 145.498 28.6488C146.543 27.7666 147.933 27.3239 149.668 27.3239ZM93.1233 19.1013V29.8629C94.0536 28.9839 94.9718 28.3429 95.8754 27.9344C96.7784 27.5291 97.7359 27.3245 98.7429 27.3245C100.406 27.3245 101.639 27.771 102.443 28.6628C103.246 29.5577 103.649 30.9396 103.649 32.8143V40.2274H104.52V43.5024H99.6941V33.6946C99.6941 32.8421 99.4766 32.1797 99.0441 31.7091C98.6129 31.2385 98.0029 31.001 97.2153 31.001C96.5165 31.001 95.8285 31.1986 95.1525 31.5913C94.4765 31.9852 93.8012 32.5875 93.1233 33.3957V40.2274H93.9946V43.5024H89.1683V22.3769H88.2964V19.1013H93.1233ZM111.604 19.1013V40.2274H112.542V43.5024H106.645V40.2274H107.716V22.3769H106.678V19.1013H111.604ZM142.143 27.265C142.215 27.265 142.329 27.2688 142.49 27.2808C142.621 27.2903 142.732 27.2954 142.803 27.2954H143.151V30.5235H142.019C140.583 30.5235 139.454 30.9003 138.667 31.6445C137.872 32.3937 137.487 33.4242 137.487 34.7966V40.5175H138.498V43.4726H132.988V40.5175H134V30.6533H132.988V27.6988H137.487V29.286C137.935 28.735 138.442 28.298 139.003 27.9819C139.851 27.5063 140.908 27.2644 142.142 27.2644L142.143 27.265ZM77.676 30.8668C76.3456 30.8668 75.26 31.3101 74.4204 32.1955C73.5802 33.0803 73.1598 34.2253 73.1598 35.6307C73.1598 37.0247 73.5802 38.1615 74.4204 39.0406C75.2606 39.9209 76.3456 40.3611 77.676 40.3611C78.9722 40.3611 80.0515 39.9152 80.9145 39.0247C81.7769 38.1349 82.2107 37.0031 82.2107 35.6301C82.2107 34.2583 81.7744 33.1227 80.9069 32.2196C80.0381 31.3177 78.9614 30.8668 77.676 30.8668ZM122.664 30.7331C121.468 30.7331 120.46 31.0276 119.634 31.6147C118.81 32.2031 118.264 33.0233 117.998 34.0759H127.182C126.862 32.9796 126.316 32.148 125.546 31.5812C124.777 31.0169 123.816 30.7325 122.664 30.7325V30.7331ZM74.5117 49.1074C75.5898 49.1074 76.3659 49.9073 76.3659 50.9466C76.3659 51.996 75.5898 52.7807 74.5117 52.7807C73.4287 52.7807 72.6474 51.991 72.6474 50.9466C72.6474 49.9174 73.4287 49.1074 74.5117 49.1074ZM134.305 49.1074C135.383 49.1074 136.159 49.9073 136.159 50.9466C136.159 51.996 135.383 52.7807 134.305 52.7807C133.222 52.7807 132.441 51.991 132.441 50.9466C132.441 49.9174 133.222 49.1074 134.305 49.1074ZM70.5928 49.1074C71.1287 49.1074 71.4508 49.2404 71.6861 49.4336L71.5022 49.7135C71.2517 49.5248 71.0215 49.4336 70.603 49.4336C70.1331 49.4336 69.8167 49.6628 69.8167 50.0346C69.8167 50.4064 70.102 50.5647 70.6233 50.6869C71.4045 50.87 71.773 51.1702 71.773 51.7566C71.773 52.4185 71.2314 52.7801 70.5821 52.7801C70.0817 52.7801 69.6372 52.6534 69.3157 52.4191L69.5098 52.1081C69.7755 52.3114 70.1585 52.4495 70.5675 52.4495C71.0678 52.4495 71.4096 52.2044 71.4096 51.7921C71.4096 51.395 71.1648 51.1759 70.5364 51.0384C69.8262 50.8801 69.4533 50.6002 69.4533 50.0447C69.4533 49.5051 69.9384 49.1074 70.5928 49.1074ZM156.393 49.1074C156.929 49.1074 157.25 49.2404 157.485 49.4336L157.301 49.7135C157.051 49.5248 156.821 49.4336 156.402 49.4336C155.933 49.4336 155.616 49.6628 155.616 50.0346C155.616 50.4064 155.902 50.5647 156.423 50.6869C157.204 50.87 157.573 51.1702 157.573 51.7566C157.573 52.4185 157.03 52.7801 156.382 52.7801C155.881 52.7801 155.437 52.6534 155.115 52.4191L155.309 52.1081C155.574 52.3114 155.958 52.4495 156.367 52.4495C156.867 52.4495 157.21 52.2044 157.21 51.7921C157.21 51.395 156.964 51.1759 156.336 51.0384C155.626 50.8801 155.253 50.6002 155.253 50.0447C155.253 49.5051 155.738 49.1074 156.393 49.1074ZM153.244 49.1074C153.903 49.1074 154.276 49.3417 154.408 49.4336L154.23 49.7236C154.132 49.6419 153.821 49.4386 153.29 49.4386C152.355 49.4386 151.727 50.0447 151.727 50.9415C151.727 51.8282 152.335 52.4489 153.29 52.4489C153.821 52.4489 154.117 52.2652 154.24 52.1841L154.408 52.4698C154.276 52.5616 153.903 52.7801 153.244 52.7801C152.115 52.7801 151.359 52.0062 151.359 50.9517C151.359 49.8813 152.136 49.1074 153.244 49.1074ZM99.9966 49.1074C100.533 49.1074 100.855 49.2404 101.09 49.4336L100.906 49.7135C100.655 49.5248 100.425 49.4336 100.007 49.4336C99.5375 49.4336 99.2204 49.6628 99.2204 50.0346C99.2204 50.4064 99.5058 50.5647 100.027 50.6869C100.809 50.87 101.177 51.1702 101.177 51.7566C101.177 52.4185 100.635 52.7801 99.9865 52.7801C99.4855 52.7801 99.0416 52.6534 98.7195 52.4191L98.9135 52.1081C99.1792 52.3114 99.5622 52.4495 99.9712 52.4495C100.472 52.4495 100.814 52.2044 100.814 51.7921C100.814 51.395 100.569 51.1759 99.9402 51.0384C99.2299 50.8801 98.8571 50.6002 98.8571 50.0447C98.8571 49.5051 99.3428 49.1074 99.9966 49.1074ZM138.956 49.1074C139.615 49.1074 139.988 49.3417 140.121 49.4336L139.952 49.7236C139.849 49.6375 139.528 49.4386 138.991 49.4386C138.128 49.4386 137.423 50.0701 137.423 50.9517C137.423 51.8326 138.128 52.4489 138.961 52.4489C139.39 52.4489 139.722 52.3425 139.931 52.2399V51.1043H140.299V52.4185C140.069 52.5515 139.65 52.7807 138.945 52.7807C137.878 52.7807 137.055 52.0062 137.055 50.9517C137.055 49.8972 137.878 49.1074 138.956 49.1074ZM80.9767 49.153V51.3082C80.9767 51.9808 81.4009 52.4337 82.1054 52.4337C82.7953 52.4337 83.2043 51.9808 83.2043 51.3082V49.153H83.5613V51.2829C83.5613 52.2456 82.9792 52.7801 82.0959 52.7801C81.191 52.7801 80.5993 52.2405 80.5993 51.2829V49.153H80.9767ZM91.6414 49.1074C92.7194 49.1074 93.4955 49.9073 93.4955 50.9466C93.4955 51.996 92.7194 52.7807 91.6414 52.7807C90.5583 52.7807 89.777 51.991 89.777 50.9466C89.777 49.9174 90.5583 49.1074 91.6414 49.1074ZM116.282 49.1074C117.36 49.1074 118.136 49.9073 118.136 50.9466C118.136 51.996 117.36 52.7807 116.282 52.7807C115.199 52.7807 114.418 51.991 114.418 50.9466C114.418 49.9174 115.199 49.1074 116.282 49.1074ZM144.194 49.1074C144.73 49.1074 145.052 49.2404 145.287 49.4336L145.103 49.7135C144.853 49.5248 144.623 49.4336 144.204 49.4336C143.735 49.4336 143.418 49.6628 143.418 50.0346C143.418 50.4064 143.703 50.5647 144.225 50.6869C145.006 50.87 145.375 51.1702 145.375 51.7566C145.375 52.4185 144.832 52.7801 144.184 52.7801C143.683 52.7801 143.239 52.6534 142.917 52.4191L143.111 52.1081C143.376 52.3114 143.76 52.4495 144.168 52.4495C144.669 52.4495 145.011 52.2044 145.011 51.7921C145.011 51.395 144.766 51.1759 144.138 51.0384C143.428 50.8801 143.055 50.6002 143.055 50.0447C143.055 49.5051 143.54 49.1074 144.194 49.1074ZM119.523 49.1175L121.929 52.067V49.1536H122.292V52.77H122.067L119.655 49.8313V52.7345H119.293V49.1182H119.523V49.1175ZM94.8767 49.1175L97.2825 52.067V49.1536H97.6453V52.77H97.4208L95.0092 49.8313V52.7345H94.6465V49.1182H94.8767V49.1175ZM105.137 49.153C106.042 49.153 106.42 49.5457 106.42 50.1112C106.42 50.4678 106.195 50.7585 105.893 50.901C106.281 51.0277 106.527 51.3488 106.527 51.7155C106.527 52.3526 106.077 52.7351 105.266 52.7351H103.972V49.153H105.137ZM111.224 49.153L112.328 50.9669L113.441 49.153H113.86L112.496 51.3234V52.7345H112.134V51.3133L110.785 49.1536H111.224V49.153ZM77.8802 49.153V52.4083H79.8365V52.7345H77.5175V49.153H77.8802ZM88.6217 49.153V52.7345H88.2589V49.153H88.6217ZM110.037 49.153V49.4792H108.081V50.7528H109.792V51.079H108.081V52.409H110.037V52.7345H107.718V49.153H110.037ZM129.978 49.153V52.4083H131.934V52.7345H129.615V49.153H129.978ZM87.3078 49.153V49.4792H86.0814V52.7345H85.7136V49.4792H84.4624V49.153H87.3078ZM141.839 49.153V52.7345H141.476V49.153H141.839ZM148.879 49.153V49.4792H147.654V52.7345H147.286V49.4792H146.034V49.153H148.879ZM150.198 49.153V52.7345H149.836V49.153H150.198ZM124.918 49.153C126.042 49.153 126.793 49.8668 126.793 50.9415C126.793 52.0163 126.042 52.7339 124.918 52.7339H123.703V49.153H124.918ZM74.5117 49.438C73.6588 49.438 73.0152 50.1011 73.0152 50.9466C73.0152 51.8174 73.6588 52.4495 74.5117 52.4495C75.3551 52.4495 75.9981 51.8225 75.9981 50.9466C75.9981 50.0954 75.3551 49.4386 74.5117 49.4386V49.438ZM91.6414 49.438C90.7885 49.438 90.1448 50.1011 90.1448 50.9466C90.1448 51.8174 90.7885 52.4495 91.6414 52.4495C92.4841 52.4495 93.1278 51.8225 93.1278 50.9466C93.1278 50.0954 92.4841 49.4386 91.6414 49.4386V49.438ZM116.282 49.438C115.429 49.438 114.786 50.1011 114.786 50.9466C114.786 51.8174 115.429 52.4495 116.282 52.4495C117.126 52.4495 117.769 51.8225 117.769 50.9466C117.769 50.0954 117.126 49.4386 116.282 49.4386V49.438ZM134.305 49.438C133.452 49.438 132.809 50.1011 132.809 50.9466C132.809 51.8174 133.452 52.4495 134.305 52.4495C135.149 52.4495 135.792 51.8225 135.792 50.9466C135.792 50.0954 135.148 49.4386 134.305 49.4386V49.438ZM124.934 49.4792H124.065V52.4083H124.934C125.833 52.4083 126.421 51.8225 126.421 50.9466C126.421 50.0701 125.833 49.4792 124.934 49.4792ZM105.29 51.079H104.335V52.4083H105.25C105.806 52.4083 106.154 52.1436 106.154 51.6952C106.154 51.3798 105.898 51.079 105.29 51.079ZM105.127 49.4792H104.335V50.7528H105.29C105.755 50.7528 106.042 50.5185 106.042 50.1518C106.042 49.7439 105.761 49.4792 105.127 49.4792Z" fill="#E74214"/>
</g>
<defs>
<clipPath id="clip0_1_486">
<rect width="126.825" height="34.2" fill="white" transform="translate(31.5879 18.5254)"/>
</clipPath>
</defs>
</svg>
