<svg width="230" height="200" viewBox="0 0 230 200" fill="none" xmlns="http://www.w3.org/2000/svg">
<rect x="0.5" y="0.5" width="229" height="199" stroke="#424242"/>
<path d="M137.63 119.989C131.31 129.067 116.802 132.974 105.138 128.924C92.4113 124.499 83.9076 112.232 84.4247 99.017C84.9418 85.3708 94.2499 73.592 107.12 70.2882C120.307 66.8982 133.005 72.4142 139.44 81.4637C126.34 70.2882 112.78 68.8231 99.6222 81.2626C91.0898 89.3354 89.6533 102.12 95.1118 112.491C99.2774 120.391 105.885 125.189 114.619 126.711C123.237 128.177 130.937 125.677 137.63 119.989Z" fill="#E74214"/>
<path d="M105.168 119.644C116.804 124.356 128.64 118.351 132.949 108.411C138.58 95.5121 130.277 80.688 116.344 78.7345C112.552 78.1886 108.932 78.8207 105.37 79.9985C105.283 79.9124 105.226 79.8262 105.14 79.7687C119.475 69.5125 140.189 77.9588 143.263 95.3397C145.647 108.928 137.23 121.425 123.699 124.04C116.947 125.361 110.627 123.982 104.996 119.903C105.054 119.817 105.111 119.73 105.168 119.644Z" fill="#E74214"/>
<path d="M117.752 96.0581C117.752 97.9255 117.752 99.7929 117.752 101.66C117.752 102.091 117.809 102.608 117.149 102.58C116.574 102.551 116.517 102.12 116.517 101.66C116.517 98.8735 116.517 96.1156 116.517 93.3289C116.517 93.0703 116.43 92.6107 116.746 92.6107C117.694 92.5532 118.671 92.6394 119.619 92.5532C120.941 92.4383 121.142 93.4151 121.515 94.3057C121.975 95.3686 122.435 96.4029 123.009 97.7531C123.613 96.2592 124.158 95.0239 124.618 93.7311C124.934 92.8692 125.336 92.4958 126.342 92.5245C129.272 92.6394 129.272 92.5532 129.272 95.5697C129.272 97.5233 129.243 99.4768 129.301 101.459C129.33 102.321 129.042 102.608 128.152 102.637C125.365 102.694 125.365 102.723 125.365 99.994C125.365 98.7012 125.365 97.4084 125.365 96.1156C125.279 96.0868 125.221 96.0581 125.135 96.0294C124.647 97.3509 124.158 98.7012 123.67 100.023C123.469 100.569 123.325 101.114 123.067 101.631C122.751 102.206 122.406 102.694 121.573 102.666C120.768 102.637 120.395 102.292 120.136 101.574C119.476 99.7067 118.729 97.8968 118.01 96.0294C117.924 96.0007 117.838 96.0294 117.752 96.0581Z" fill="#E74214"/>
<path d="M114.591 97.4661C114.591 98.8451 114.562 100.253 114.591 101.632C114.619 102.379 114.303 102.609 113.585 102.637C110.482 102.781 110.482 102.81 110.482 99.6783C110.482 97.5811 110.511 95.4839 110.482 93.3579C110.482 92.5823 110.684 92.2662 111.517 92.2375C114.591 92.1513 114.591 92.0939 114.591 95.1391C114.591 95.9148 114.591 96.6905 114.591 97.4661Z" fill="#E74214"/>
<path d="M105.369 79.9989C105.168 80.2574 104.765 80.3724 104.651 80.1713C104.478 79.7978 105.024 79.9701 105.139 79.769C105.225 79.8552 105.283 79.9414 105.369 79.9989Z" fill="#E74214"/>
<path d="M104.994 119.903C104.822 119.846 104.678 119.759 104.506 119.702C104.707 119.501 104.937 119.558 105.138 119.644C105.109 119.731 105.052 119.817 104.994 119.903Z" fill="#E74214"/>
<path d="M106.201 96.7479C107.695 97.2938 108.815 98.0407 108.787 99.7357C108.758 101.488 107.839 102.551 106.086 102.58C103.587 102.637 101.116 102.58 98.6168 102.609C97.8411 102.609 97.4964 102.379 97.5251 101.546C97.5538 98.8164 97.5825 96.0872 97.5251 93.358C97.4964 92.4386 97.8698 92.2375 98.703 92.2663C101.059 92.3237 103.386 92.3237 105.742 92.2663C106.919 92.2375 107.896 92.4961 108.155 93.7602C108.413 95.0242 107.982 96.0297 106.69 96.5181C106.546 96.5468 106.431 96.633 106.201 96.7479ZM101.518 99.6208C101.806 100.396 100.829 101.919 102.869 101.775C104.19 101.689 104.966 100.914 104.966 99.4772C104.995 97.9258 104.506 97.5524 102.955 97.4087C100.973 97.2076 101.633 98.5866 101.518 99.6208ZM101.547 94.8231C101.49 95.6275 101.346 96.4607 102.754 96.3457C103.903 96.2596 104.592 95.9435 104.592 94.7082C104.592 93.5016 103.874 93.1569 102.725 93.0994C101.289 93.0419 101.518 93.9325 101.547 94.8231Z" fill="#E74214"/>
<path d="M99.3183 104.759H100.113L102.01 109.12H100.926L100.55 108.196H98.8563L98.4928 109.12H97.4333L99.3183 104.759ZM99.6879 106.028L99.1581 107.383H100.224L99.6879 106.028ZM105.301 105.892C105.206 105.777 105.089 105.689 104.95 105.627C104.814 105.566 104.656 105.535 104.475 105.535C104.295 105.535 104.126 105.57 103.97 105.64C103.818 105.71 103.685 105.808 103.57 105.935C103.459 106.059 103.371 106.206 103.305 106.379C103.243 106.551 103.213 106.738 103.213 106.939C103.213 107.145 103.243 107.334 103.305 107.506C103.371 107.675 103.459 107.822 103.57 107.95C103.681 108.073 103.81 108.169 103.958 108.239C104.11 108.309 104.272 108.344 104.445 108.344C104.642 108.344 104.816 108.303 104.968 108.221C105.12 108.139 105.245 108.024 105.344 107.876L106.145 108.473C105.96 108.732 105.726 108.923 105.443 109.046C105.159 109.169 104.868 109.231 104.568 109.231C104.227 109.231 103.913 109.178 103.625 109.071C103.338 108.964 103.089 108.812 102.88 108.615C102.671 108.414 102.506 108.171 102.387 107.888C102.272 107.605 102.215 107.289 102.215 106.939C102.215 106.59 102.272 106.274 102.387 105.991C102.506 105.707 102.671 105.467 102.88 105.27C103.089 105.069 103.338 104.915 103.625 104.808C103.913 104.701 104.227 104.648 104.568 104.648C104.691 104.648 104.818 104.66 104.95 104.685C105.085 104.705 105.217 104.74 105.344 104.79C105.475 104.839 105.601 104.905 105.72 104.987C105.839 105.069 105.946 105.17 106.04 105.289L105.301 105.892ZM108.101 104.759H108.896L110.793 109.12H109.709L109.333 108.196H107.639L107.276 109.12H106.216L108.101 104.759ZM108.471 106.028L107.941 107.383H109.007L108.471 106.028ZM111.232 104.759H112.673C113.022 104.759 113.353 104.798 113.665 104.876C113.981 104.954 114.256 105.081 114.49 105.258C114.724 105.43 114.909 105.656 115.045 105.935C115.184 106.215 115.254 106.553 115.254 106.952C115.254 107.305 115.186 107.617 115.051 107.888C114.919 108.155 114.741 108.381 114.515 108.566C114.289 108.746 114.028 108.884 113.733 108.978C113.437 109.073 113.127 109.12 112.802 109.12H111.232V104.759ZM112.193 108.233H112.692C112.913 108.233 113.119 108.21 113.308 108.165C113.501 108.12 113.667 108.046 113.807 107.944C113.946 107.837 114.055 107.699 114.133 107.531C114.215 107.358 114.256 107.149 114.256 106.903C114.256 106.689 114.215 106.504 114.133 106.348C114.055 106.188 113.948 106.057 113.813 105.954C113.677 105.851 113.517 105.775 113.332 105.726C113.152 105.673 112.961 105.646 112.759 105.646H112.193V108.233ZM115.943 104.759H118.906V105.646H116.904V106.459H118.795V107.346H116.904V108.233H119.017V109.12H115.943V104.759ZM119.786 104.759H121.24L122.244 107.605H122.256L123.266 104.759H124.714V109.12H123.753V105.775H123.741L122.595 109.12H121.862L120.759 105.775H120.747V109.12H119.786V104.759ZM126.675 107.26L125.036 104.759H126.231L127.155 106.391L128.135 104.759H129.274L127.636 107.26V109.12H126.675V107.26Z" fill="#E74214"/>
</svg>
