<svg width="228" height="200" viewBox="0 0 228 200" fill="none" xmlns="http://www.w3.org/2000/svg">
<rect x="0.5" y="0.5" width="227" height="199" stroke="#424242"/>
<path d="M71.8011 91.745C71.5628 91.2207 71.5866 90.6725 71.5866 90.1244C71.5866 89.7192 71.7534 89.6477 72.1109 89.7192C73.3741 89.9575 74.6611 90.029 75.9481 89.9337C79.5708 89.6477 82.6453 88.1939 85.1716 85.5722C85.4814 85.2385 85.6483 85.1432 85.9343 85.596C86.5539 86.5494 87.2213 87.4789 87.6979 88.5275C87.5311 88.7897 87.2689 88.8135 87.0068 88.8612C82.2163 89.8145 77.4019 90.744 72.6114 91.6974C72.3254 91.745 72.0633 91.8404 71.8011 91.745Z" fill="#E74214"/>
<path d="M57.2372 97.1789C56.7128 98.1799 55.974 99.0379 55.116 99.7767C54.83 100.039 54.7108 99.9674 54.5917 99.6099C52.7565 94.8194 49.3722 91.7687 44.4148 90.4579C44.0812 90.3625 43.9858 90.2672 44.1527 89.9574C44.3433 89.6237 44.5102 89.2662 44.677 88.9087C45.5112 89.3615 46.2738 89.9335 47.0603 90.434C50.254 92.5314 53.4715 94.6049 56.6652 96.6784C56.8797 96.8214 57.1418 96.9167 57.2372 97.1789Z" fill="#E74214"/>
<path d="M71.3703 98.8945C71.7755 101.111 70.6791 103.328 68.6533 104.305C66.6275 105.306 64.1488 104.829 62.6473 103.137C62.5758 103.065 62.5281 102.97 62.4805 102.875C62.5281 102.565 62.7665 102.708 62.9095 102.732C63.3385 102.803 63.7675 102.899 64.2203 102.946C65.0545 103.065 65.841 102.946 66.6275 102.708C66.6751 102.684 66.7228 102.66 66.7705 102.66C67.3425 102.613 67.7953 102.303 68.2481 102.041C69.3683 101.445 70.2263 100.587 70.7745 99.4188C70.9175 99.1805 70.9175 98.7753 71.3703 98.8945Z" fill="#E74214"/>
<path d="M82.2157 81.5678C83.1929 82.3066 83.9794 83.2123 84.7897 84.118C85.0042 84.3563 84.8612 84.4755 84.6944 84.6423C83.2167 86.1438 81.5484 87.3355 79.5464 88.0028C79.1889 87.9075 79.4034 87.6691 79.4511 87.5023C79.6656 86.9065 79.9277 86.3106 80.1661 85.7386C80.6666 84.4993 81.1432 83.26 81.6676 82.0445C81.7629 81.7823 81.8106 81.4248 82.2157 81.5678Z" fill="#E74214"/>
<path d="M42.5566 95.1531C42.7235 93.8899 43.1048 92.6982 43.51 91.5066C43.5576 91.3397 43.6291 91.2444 43.8436 91.2921C45.8933 91.8164 47.8 92.6744 49.4206 94.0567C49.3491 94.5334 48.944 94.4857 48.658 94.5334C47.3471 94.7241 46.0125 94.9147 44.7016 95.0816C44.2726 95.1292 43.8198 95.2007 43.3908 95.2722C43.1048 95.3199 42.8188 95.3676 42.5566 95.1531Z" fill="#E74214"/>
<path d="M74.2787 122.442C73.087 122.919 71.8477 123.229 70.6083 123.443C70.3938 123.491 70.2747 123.467 70.227 123.229C69.655 121.155 69.4882 119.082 69.8695 116.961C70.1317 116.865 70.2747 117.056 70.3938 117.223C71.657 118.796 72.8963 120.393 74.1357 121.989C74.231 122.132 74.3502 122.252 74.2787 122.442Z" fill="#E74214"/>
<path d="M67.6055 108.309C69.1785 108.095 70.68 108.214 72.0623 109.096C72.3483 109.286 72.396 109.429 72.1338 109.715C70.5846 111.455 69.536 113.481 68.9878 115.745C68.9878 115.769 68.9401 115.793 68.9401 115.84C68.6541 115.626 68.6065 115.316 68.5826 114.982C68.392 113.076 68.1775 111.169 68.0106 109.262C67.963 108.905 67.8915 108.571 67.6055 108.309Z" fill="#E74214"/>
<path d="M50.6117 106.998C50.8977 107.189 51.1837 107.379 51.4459 107.57C51.6842 107.928 51.6604 108.357 51.7081 108.762C51.9702 111.407 52.2562 114.029 52.5184 116.674C52.5422 116.96 52.6376 117.246 52.3516 117.461C52.0656 117.556 51.9464 117.366 51.8034 117.175C51.5651 116.841 51.3506 116.46 51.1361 116.102C50.9931 115.793 50.7786 115.53 50.6832 115.197C50.6117 114.887 50.4687 114.625 50.3734 114.315C50.3019 114.053 50.2066 113.814 50.1351 113.552C50.0636 113.242 49.9921 112.909 49.9444 112.599C49.9206 112.408 49.8729 112.218 49.8491 112.003C49.8252 111.86 49.8252 111.693 49.8252 111.55C49.8491 110.954 49.8014 110.359 49.8252 109.763C49.8491 109.429 49.9206 109.119 49.9682 108.786C50.1112 108.38 50.1112 107.951 50.2781 107.546C50.3734 107.379 50.3972 107.117 50.6117 106.998Z" fill="#E74214"/>
<path d="M72.4666 93.2225C72.2998 93.0556 72.2044 92.8411 72.1568 92.6028C72.0376 92.2691 72.2998 92.2453 72.5143 92.1976C73.0386 92.0546 73.563 92.007 74.0873 91.8878C78.5441 90.9821 83.0248 90.1241 87.4816 89.2423C87.6723 89.1946 87.8629 89.1231 88.0536 89.2661C88.2204 89.5045 88.3873 89.719 88.3873 90.005C88.1966 90.3386 87.8391 90.3148 87.5531 90.3863C82.8341 91.292 78.139 92.2691 73.4438 93.151C73.0863 93.2225 72.7765 93.4131 72.4666 93.2225Z" fill="#E74214"/>
<path d="M88.0074 89.266C85.7433 89.8142 83.4314 90.1955 81.1196 90.6483C78.7124 91.1488 76.2814 91.6017 73.8743 92.0783C73.3976 92.1737 72.8971 92.269 72.4204 92.3405C72.2536 92.3643 72.1583 92.412 72.1345 92.5788C71.9438 92.3167 71.8484 92.0307 71.8008 91.697C73.0163 91.4348 74.2318 91.1727 75.4473 90.9343C79.1176 90.1955 82.8118 89.4805 86.5059 88.7417C86.9111 88.6702 87.2924 88.551 87.6976 88.4795C87.8168 88.7655 87.9836 88.98 88.0074 89.266Z" fill="#E74214"/>
<path d="M72.4668 93.2224C74.7786 92.7457 77.0905 92.2929 79.4023 91.8162C82.2861 91.2442 85.17 90.6722 88.0538 90.1002C88.1491 90.0764 88.2445 90.0287 88.3636 90.0049C88.5305 90.2432 88.6496 90.4816 88.6973 90.7437C88.5305 90.9582 88.2921 90.9582 88.0776 91.0059C83.1441 91.9592 78.2345 92.9602 73.301 93.9135C73.1818 93.9374 73.0626 93.9612 72.9196 93.9374C72.729 93.7467 72.5145 93.5322 72.4668 93.2224Z" fill="#E74214"/>
<path d="M89.1033 92.0546C89.2702 92.3167 89.3417 92.6027 89.3893 92.9126C88.6267 93.1986 87.7925 93.2939 86.9822 93.4369C83.0735 94.1996 79.1887 95.0099 75.28 95.7487C75.0178 95.7964 74.7795 95.9156 74.4935 95.9156C74.2313 95.7011 74.0168 95.4389 73.8262 95.1767C73.9692 94.8907 74.2313 94.8669 74.4935 94.8192C79.0933 93.9136 83.6932 93.0079 88.3168 92.1022C88.579 92.0307 88.8412 91.9354 89.1033 92.0546Z" fill="#E74214"/>
<path d="M74.4941 95.9157C74.6371 95.6059 74.947 95.6536 75.1853 95.6059C78.951 94.8432 82.7405 94.0806 86.5061 93.3656C87.4595 93.1987 88.389 92.8651 89.3661 92.8889C89.4376 93.1034 89.533 93.2941 89.5091 93.5324C89.39 93.7469 89.1755 93.7946 88.961 93.8184C84.4088 94.7002 79.8566 95.6297 75.2806 96.5116C75.1853 96.5354 75.1138 96.5354 75.0185 96.5116C74.8278 96.3686 74.661 96.1541 74.4941 95.9157Z" fill="#E74214"/>
<path d="M67.6537 82.5215C67.2009 82.7598 66.7242 82.9743 66.2714 83.2126C64.1741 81.8065 62.0529 80.448 59.9317 79.0657C59.7411 78.9465 59.5266 78.8273 59.5981 78.5413C59.6696 78.4936 59.7411 78.4937 59.8364 78.4937C60.0747 78.5413 60.3369 78.5413 60.5752 78.5175C60.8136 78.5175 61.0281 78.5175 61.2664 78.5651C61.5762 78.6605 61.9337 78.6843 62.2436 78.7796C62.5772 78.8988 62.9109 78.9942 63.2207 79.1133C63.4829 79.2325 63.7451 79.3278 64.0072 79.447C64.2932 79.6138 64.5792 79.733 64.8652 79.8998C65.1274 80.0905 65.4134 80.2097 65.6517 80.4242C65.9377 80.6387 66.2714 80.8055 66.5097 81.0915C66.7957 81.4013 67.0817 81.6873 67.3916 81.9733C67.5346 82.1163 67.7967 82.2355 67.6537 82.5215Z" fill="#E74214"/>
<path d="M76.5423 77.9215C76.8521 78.0168 77.162 78.136 77.4241 78.3505C76.0895 81.5203 74.874 84.714 73.5393 87.8838C73.4201 88.1698 73.3486 88.5035 73.1103 88.7418C72.7766 88.7895 72.4668 88.6942 72.1331 88.6227C71.8233 88.3605 72.0855 88.0983 72.1808 87.86C73.158 85.429 74.1351 82.998 75.1123 80.567C75.4221 79.8282 75.7081 79.0655 76.0418 78.3505C76.1371 78.136 76.161 77.8023 76.5423 77.9215Z" fill="#E74214"/>
<path d="M68.582 119.988C68.6773 121.084 68.8203 122.18 69.154 123.205C69.2731 123.539 69.2016 123.658 68.8441 123.658C68.582 123.658 68.3198 123.706 68.0576 123.729C67.8431 122.705 67.7955 121.656 67.6763 120.607C67.438 118.319 67.1996 116.007 66.9613 113.719C66.8183 112.218 66.6515 110.716 66.4846 109.215C66.4608 108.953 66.437 108.667 66.6276 108.452C66.8421 108.428 67.0566 108.381 67.2711 108.357C67.6763 108.953 67.5571 109.668 67.6286 110.311C67.867 112.671 68.1291 115.03 68.3675 117.414C68.4866 118.248 68.5581 119.13 68.582 119.988Z" fill="#E74214"/>
<path d="M89.1039 92.0547C87.7454 92.3407 86.3631 92.6267 85.0046 92.9127C81.6441 93.58 78.2836 94.2474 74.8992 94.9147C74.5417 94.9862 74.1604 95.01 73.8267 95.2007C73.6599 95.0577 73.5169 94.8909 73.4216 94.7002C73.3977 94.3665 73.6361 94.3427 73.8506 94.2712C74.2557 94.152 74.6847 94.0805 75.1137 94.009C79.4276 93.1272 83.7652 92.3169 88.0791 91.435C88.3412 91.3874 88.6272 91.2682 88.9132 91.435C89.0324 91.6019 89.1277 91.8164 89.1039 92.0547Z" fill="#E74214"/>
<path d="M66.6768 108.428C66.7006 109.858 66.9389 111.288 67.0819 112.694C67.1773 113.529 67.2249 114.339 67.3203 115.173C67.4633 116.46 67.6063 117.747 67.7254 119.01C67.8446 120.226 67.9638 121.441 68.0591 122.657C68.0829 122.99 68.3213 123.348 68.0829 123.682C67.8684 123.682 67.6539 123.705 67.4394 123.705C67.2011 123.348 67.2249 122.919 67.1773 122.514C66.8674 119.439 66.5576 116.389 66.2239 113.314C66.0571 111.741 65.9856 110.144 65.6758 108.595C66.0094 108.5 66.3431 108.452 66.6768 108.428Z" fill="#E74214"/>
<path d="M70.4415 114.744C70.5606 114.291 70.7275 113.862 70.9658 113.457C71.3471 113.314 71.4663 113.624 71.6331 113.838C72.8486 115.363 74.0641 116.913 75.2558 118.462C75.804 119.177 76.3998 119.868 76.9241 120.607C77.0433 120.774 77.234 120.917 77.1625 121.179C76.805 121.346 76.519 121.655 76.09 121.703C75.3273 120.964 74.7315 120.059 74.0641 119.224C73.0155 117.89 71.9668 116.579 70.9181 115.244C70.799 115.03 70.6321 114.887 70.4415 114.744Z" fill="#E74214"/>
<path d="M88.9124 91.3872C87.0058 91.7686 85.1229 92.1499 83.2163 92.5074C80.2133 93.1032 77.1864 93.6991 74.1834 94.2949C73.9213 94.3426 73.5638 94.2949 73.3969 94.6524C73.1824 94.4617 73.0156 94.2234 72.8964 93.9612C73.5638 93.5799 74.3264 93.6037 75.0414 93.4607C77.8299 92.8887 80.5946 92.3406 83.3831 91.7924C85.1468 91.4349 86.8866 91.1012 88.6503 90.7676C88.8171 90.9582 88.8648 91.1727 88.9124 91.3872Z" fill="#E74214"/>
<path d="M72.5625 110.883C72.7293 110.644 72.8485 110.406 73.0868 110.239C73.3252 110.12 73.492 110.239 73.635 110.43C75.78 113.171 77.9488 115.911 80.07 118.652C80.213 118.819 80.4037 118.986 80.3083 119.272C80.07 119.486 79.8555 119.701 79.5457 119.772C78.8307 119.177 78.3302 118.366 77.7582 117.651C76.1137 115.578 74.493 113.48 72.8485 111.407C72.7293 111.24 72.5863 111.097 72.5625 110.883Z" fill="#E74214"/>
<path d="M82.5485 117.413C82.3102 117.699 82.0242 117.961 81.6905 118.176C80.9755 117.389 80.3558 116.508 79.6885 115.697C78.4253 114.1 77.1622 112.48 75.899 110.883C75.7322 110.668 75.5653 110.525 75.3032 110.478C75.184 110.454 75.041 110.454 75.041 110.263C75.6607 110.263 76.3042 110.239 76.9238 110.239C77.186 110.192 77.2575 110.382 77.3767 110.525C79.0212 112.67 80.7372 114.768 82.3817 116.913C82.5009 117.056 82.6915 117.199 82.5485 117.413Z" fill="#E74214"/>
<path d="M75.041 96.5352C75.6845 96.1539 76.4233 96.1539 77.1383 96.0109C80.6657 95.2959 84.193 94.6047 87.7203 93.9136C88.3162 93.7944 88.9358 93.7229 89.5317 93.5322C89.5555 93.7944 89.77 94.0089 89.7223 94.2949C89.5555 94.4617 89.3172 94.5094 89.0788 94.5571C85.0033 95.3197 80.9278 96.2016 76.8285 96.9642C76.3995 97.0357 75.9943 97.2026 75.5653 97.1787C75.3985 96.9642 75.2317 96.7497 75.041 96.5352Z" fill="#E74214"/>
<path d="M57.7857 109.31C58.3577 109.334 58.9297 109.358 59.4779 109.382C59.7401 109.477 59.7401 109.691 59.7639 109.906C60.0499 112.766 60.3597 115.602 60.6457 118.462C60.7649 119.654 60.8841 120.845 61.0271 122.013C61.0509 122.252 61.0986 122.466 61.0509 122.704C61.0032 122.919 60.9317 123.086 60.6457 122.99C60.3597 122.967 60.0737 122.895 59.8354 122.752C59.9069 122.538 59.9784 122.323 59.9546 122.085C59.5256 118.081 59.1442 114.077 58.7152 110.097C58.6914 109.811 58.6676 109.548 58.2862 109.548C58.1194 109.548 57.9764 109.525 57.8334 109.453C57.7619 109.429 57.7619 109.382 57.7857 109.31Z" fill="#E74214"/>
<path d="M89.8432 94.9386C89.9624 95.1769 89.9624 95.4391 89.9624 95.6774C89.7479 95.9396 89.4381 95.9396 89.1282 96.0111C85.4817 96.7499 81.8352 97.4411 78.2126 98.1561C77.6882 98.2514 77.1639 98.3706 76.6634 98.5374C76.4727 98.2991 76.3059 98.0607 76.1152 97.8224C76.1391 97.3934 76.4966 97.4649 76.7587 97.3934C78.9752 96.9405 81.2156 96.4877 83.4321 96.0587C85.3149 95.6774 87.2216 95.3199 89.1044 94.9386C89.3427 94.9147 89.5811 94.8194 89.8432 94.9386Z" fill="#E74214"/>
<path d="M89.8422 94.9384C88.4837 95.2244 87.149 95.5104 85.7905 95.7964C82.6922 96.4161 79.57 97.0119 76.4478 97.6316C76.3048 97.6554 76.1857 97.7031 76.1142 97.8461C75.9473 97.6316 75.7567 97.4171 75.5898 97.1788C76.2095 96.7736 76.9483 96.8213 77.6395 96.6783C80.4042 96.1063 83.1927 95.5581 85.9812 95.0099C87.2205 94.7716 88.4837 94.5333 89.7468 94.2949C89.7945 94.5094 89.866 94.7239 89.8422 94.9384Z" fill="#E74214"/>
<path d="M49.1825 82.8311C49.3732 82.5928 49.5877 82.3783 49.8499 82.2114C53.2104 84.4518 56.6185 86.6206 59.979 88.8371C60.1935 88.9801 60.4557 89.0993 60.551 89.3853C60.4319 89.5998 60.3365 89.8143 60.2174 90.0288C60.0029 90.1718 59.836 89.9811 59.693 89.8858C57.6195 88.5749 55.5699 87.1926 53.4964 85.8579C52.1617 84.9999 50.827 84.1419 49.5162 83.2601C49.3494 83.1409 49.1349 83.0933 49.1825 82.8311Z" fill="#E74214"/>
<path d="M72.563 110.883C73.3495 111.717 73.993 112.646 74.6842 113.528C76.2572 115.506 77.8302 117.508 79.4032 119.487C79.4747 119.582 79.5224 119.653 79.5462 119.773C79.3317 119.987 79.0934 120.178 78.7835 120.297C78.1162 119.749 77.6634 119.01 77.139 118.343C75.5899 116.364 74.0169 114.41 72.4915 112.408C72.3247 112.194 72.0864 112.003 71.9434 111.765C72.134 111.455 72.3009 111.121 72.563 110.883Z" fill="#E74214"/>
<path d="M73.1113 88.742C73.3258 87.7648 73.8263 86.883 74.1838 85.9773C75.0895 83.6417 76.0428 81.3298 76.9962 79.018C77.0915 78.7797 77.163 78.4937 77.4252 78.3745C77.7112 78.4698 77.9972 78.589 78.2355 78.8035C76.9247 81.9257 75.6853 85.0717 74.4222 88.1938C74.3268 88.4322 74.303 88.7897 73.9217 88.7897C73.7072 88.7897 73.5165 88.8135 73.302 88.742C73.2305 88.742 73.159 88.742 73.1113 88.742Z" fill="#E74214"/>
<path d="M77.1853 121.155C76.4465 120.202 75.7315 119.248 74.9927 118.295C73.8725 116.865 72.7285 115.435 71.6083 114.005C71.4415 113.791 71.2985 113.528 70.9648 113.481C71.084 113.123 71.2508 112.813 71.4892 112.504C71.799 112.361 71.8943 112.623 72.0373 112.79C73.372 114.41 74.6352 116.102 75.946 117.747C76.5657 118.533 77.1853 119.296 77.7812 120.106C77.9242 120.273 78.1863 120.44 78.0433 120.75C77.7812 120.893 77.519 121.107 77.1853 121.155Z" fill="#E74214"/>
<path d="M57.2379 97.1789C55.4266 96.0111 53.6152 94.8432 51.8277 93.6754C49.5874 92.2216 47.3471 90.7677 45.1067 89.3139C44.9399 89.1947 44.7731 89.0994 44.6777 88.9087C44.7492 88.6704 44.8446 88.4559 45.0114 88.2891C47.6807 90.1004 50.4216 91.8164 53.1147 93.5801C54.5209 94.5096 55.9509 95.4152 57.3809 96.3447C57.4524 96.3924 57.5239 96.4639 57.5716 96.5354C57.5239 96.7976 57.3809 96.9882 57.2379 97.1789Z" fill="#E74214"/>
<path d="M65.6752 108.619C66.1042 108.881 65.9851 109.334 66.0089 109.691C66.1996 111.336 66.3664 113.004 66.5332 114.648C66.6524 115.84 66.7477 117.032 66.8669 118.247C66.9861 119.463 67.1291 120.678 67.2721 121.87C67.3436 122.49 67.3674 123.109 67.4151 123.729C67.2006 123.729 66.9861 123.729 66.7716 123.753C66.4379 123.085 66.4856 122.323 66.4141 121.608C66.1757 119.296 65.9374 116.96 65.6991 114.648C65.5084 112.813 65.3177 110.954 65.1271 109.119C65.1032 109 65.1271 108.881 65.1509 108.738C65.3177 108.619 65.5084 108.642 65.6752 108.619Z" fill="#E74214"/>
<path d="M47.824 84.2609C47.9193 84.0703 48.0623 83.9273 48.253 83.8081C48.968 84.0226 49.5162 84.5231 50.1358 84.9283C53.0435 86.8349 55.9988 88.6939 58.8827 90.6244C59.1448 90.8151 59.4308 90.9343 59.7168 91.1011C59.6692 91.4109 59.5262 91.6731 59.3832 91.9591C59.1448 92.0306 58.978 91.8638 58.8112 91.7446C55.975 89.8856 53.115 88.0504 50.3027 86.1914C49.5877 85.7148 48.8488 85.2858 48.1577 84.7853C47.9432 84.6661 47.681 84.5708 47.824 84.2609Z" fill="#E74214"/>
<path d="M76.6621 98.5611C76.7098 98.2751 76.9481 98.2989 77.1626 98.2512C79.6651 97.7507 82.1676 97.2502 84.6463 96.7497C86.4099 96.3922 88.1736 96.0347 89.9611 95.6772C89.8896 95.9394 90.1041 96.1777 90.0564 96.4161C89.9134 96.5829 89.6989 96.6306 89.4844 96.6782C85.4089 97.4886 81.3096 98.2751 77.2341 99.1092C77.1864 99.1092 77.1388 99.1092 77.0673 99.1092C76.9004 98.9662 76.7574 98.7756 76.6621 98.5611Z" fill="#E74214"/>
<path d="M65.1498 108.738C65.4596 109.405 65.3881 110.12 65.4835 110.812C65.698 112.504 65.8648 114.196 66.0316 115.864C66.1508 117.08 66.2461 118.295 66.3653 119.511C66.4845 120.702 66.6513 121.894 66.7705 123.086C66.7943 123.3 66.7943 123.515 66.7943 123.729C66.5321 123.729 66.27 123.848 66.0316 123.729C65.7456 121.656 65.5788 119.558 65.3643 117.461C65.0783 114.816 64.8161 112.146 64.554 109.477C64.5301 109.239 64.5063 109.024 64.6731 108.809C64.7923 108.714 64.983 108.738 65.1498 108.738Z" fill="#E74214"/>
<path d="M52.4241 97.5361C52.7101 97.7983 52.8293 98.132 52.9723 98.4656C52.7816 98.7278 52.4956 98.7516 52.2096 98.7755C49.1113 99.2045 46.0368 99.6573 42.9384 100.086C42.7001 100.11 42.4379 100.158 42.2234 99.9671C42.1519 99.6811 42.1758 99.3951 42.1996 99.1091C42.3426 98.8946 42.5809 98.8708 42.8193 98.847C45.8461 98.418 48.8968 97.989 51.9474 97.56C52.0904 97.5361 52.2573 97.56 52.4241 97.5361Z" fill="#E74214"/>
<path d="M75.0413 110.263C76.0185 110.311 76.3283 111.193 76.805 111.789C78.3542 113.695 79.8557 115.65 81.3572 117.58C81.5002 117.747 81.667 117.938 81.6908 118.176C81.524 118.39 81.2857 118.557 81.0473 118.7C80.8328 118.653 80.7137 118.51 80.5945 118.343C78.6402 115.84 76.662 113.362 74.7315 110.859C74.6123 110.692 74.374 110.549 74.517 110.263C74.6838 110.263 74.8745 110.263 75.0413 110.263Z" fill="#E74214"/>
<path d="M57.5484 96.5351C56.7143 96.2253 56.0231 95.6295 55.2843 95.1528C52.0191 93.0793 48.7778 90.9343 45.5364 88.8131C45.3219 88.6701 45.0121 88.5986 44.9883 88.265C45.0359 88.0505 45.1551 87.8836 45.2981 87.7168C48.9923 90.1716 52.7103 92.5311 56.3806 94.9621C56.8811 95.2958 57.4531 95.5341 57.8583 96.0108C57.7629 96.1776 57.6676 96.3683 57.5484 96.5351Z" fill="#E74214"/>
<path d="M76.544 77.9216C76.0435 78.16 76.0435 78.6843 75.8766 79.0656C74.6135 82.0925 73.4218 85.1431 72.1825 88.1938C72.1348 88.3368 72.0395 88.456 72.1348 88.599C71.6105 88.5036 71.682 87.9793 71.4913 87.6695C71.396 87.4788 71.4913 87.2881 71.5628 87.1213C72.7545 84.1421 73.9938 81.163 75.1855 78.16C75.2808 77.8978 75.3046 77.4926 75.8051 77.588C76.0673 77.6595 76.3295 77.7548 76.544 77.9216Z" fill="#E74214"/>
<path d="M74.5175 110.263C74.9465 111.098 75.6138 111.741 76.162 112.48C77.7827 114.577 79.4272 116.651 81.0478 118.724C80.8333 118.939 80.595 119.129 80.309 119.272C79.7132 118.248 78.9028 117.413 78.2117 116.484C76.9962 114.887 75.7568 113.338 74.5175 111.765C74.1838 111.336 73.8263 110.907 73.5165 110.478C73.3973 110.335 73.2782 110.263 73.1113 110.263C73.5642 110.025 74.0408 110.287 74.5175 110.263Z" fill="#E74214"/>
<path d="M62.29 109.191C62.3854 109.191 62.4807 109.167 62.576 109.167C63.0527 109.024 63.148 109.357 63.1719 109.691C63.2672 110.787 63.4102 111.884 63.5055 112.98C63.7677 115.626 64.0537 118.295 64.3159 120.94C64.3874 121.655 64.4827 122.394 64.5304 123.109C64.5542 123.348 64.6257 123.705 64.1729 123.61C63.8869 123.61 63.577 123.634 63.3149 123.514C63.6009 123.252 63.5294 122.895 63.5055 122.561C63.3149 120.678 63.1004 118.772 62.9335 116.889C62.6952 114.482 62.4092 112.074 62.2185 109.667C62.1947 109.524 62.147 109.334 62.29 109.191Z" fill="#E74214"/>
<path d="M60.5508 89.3615C57.2618 87.2165 53.9728 85.0954 50.7076 82.9265C50.3978 82.712 49.9688 82.6167 49.8496 82.1877C49.9926 81.997 50.1594 81.854 50.3739 81.7349C51.2081 82.1162 51.9231 82.6882 52.6858 83.1649C55.4028 84.9285 58.1198 86.6922 60.8368 88.4559C60.9083 88.5035 60.9559 88.5512 61.0036 88.5989C60.8368 88.8849 60.6938 89.1232 60.5508 89.3615Z" fill="#E74214"/>
<path d="M49.1829 82.8311C49.6596 83.3077 50.2792 83.6176 50.8274 83.9751C53.8781 85.9771 56.9526 87.9552 60.0032 89.9572C60.0509 90.0049 60.1462 90.0049 60.1939 90.0287C60.0986 90.2432 59.9794 90.4577 59.8841 90.6722C59.6457 90.8152 59.4789 90.6246 59.3121 90.5054C56.9764 88.9801 54.6169 87.4547 52.2812 85.9294C51.2087 85.2382 50.1124 84.5471 49.0637 83.8321C48.8731 83.6891 48.5871 83.5937 48.7301 83.2601C48.8731 83.0694 49.0161 82.9264 49.1829 82.8311Z" fill="#E74214"/>
<path d="M42.2469 99.9673C43.5339 99.9435 44.8209 99.6575 46.0841 99.4907C47.4664 99.3238 48.8488 99.1093 50.2311 98.8948C51.1368 98.7518 52.0663 98.7042 52.9481 98.4658C53.1149 98.6565 53.2103 98.871 53.2579 99.1093C53.2341 99.4907 52.9004 99.5145 52.6383 99.5622C50.8508 99.8243 49.0394 100.086 47.2281 100.325C45.8458 100.515 44.4873 100.73 43.1049 100.897C43.0096 100.921 42.8904 100.944 42.7951 100.944C42.2708 100.992 42.1754 100.897 42.1754 100.372C42.1754 100.253 42.1278 100.086 42.2469 99.9673Z" fill="#E74214"/>
<path d="M64.173 123.634C64.4352 123.61 64.4352 123.419 64.4113 123.228C64.2445 121.727 64.0538 120.202 63.9108 118.7C63.7917 117.532 63.6963 116.388 63.5533 115.22C63.4342 113.957 63.2673 112.694 63.1482 111.431C63.1005 110.859 63.0528 110.311 63.029 109.739C63.0052 109.429 62.9813 109.167 62.5762 109.167C62.8145 109.048 63.0767 109.071 63.3388 109.071C63.8155 109 63.7678 109.429 63.8155 109.667C63.9108 110.454 63.9823 111.216 64.0538 112.003C64.316 114.696 64.602 117.389 64.888 120.082C65.0072 121.131 65.1025 122.18 65.1978 123.228C65.2217 123.419 65.2217 123.586 65.0787 123.729C64.7688 123.729 64.459 123.777 64.173 123.634Z" fill="#E74214"/>
<path d="M52.4251 97.5362C52.1629 97.8699 51.7577 97.7746 51.4479 97.8222C49.1837 98.1797 46.9434 98.4896 44.6792 98.7994C43.8689 98.9186 43.0586 99.0139 42.2721 99.1331C42.1529 98.8232 42.2244 98.4896 42.2244 98.1797C42.3674 98.0367 42.5342 98.0129 42.7011 97.9891C45.7517 97.5124 48.8262 97.1311 51.9007 96.6782C52.1629 96.8927 52.2582 97.2264 52.4251 97.5362Z" fill="#E74214"/>
<path d="M78.0444 120.726C77.5916 119.916 76.9481 119.248 76.3999 118.533C75.1606 116.936 73.9212 115.34 72.6581 113.767C72.3006 113.314 72.0622 112.766 71.4902 112.503C71.5856 112.217 71.7762 111.979 71.9431 111.765C72.5866 112.074 72.8726 112.718 73.2777 113.218C74.8269 115.149 76.3522 117.103 77.8776 119.058C78.1874 119.463 78.5449 119.82 78.7832 120.297C78.5687 120.464 78.3304 120.631 78.0444 120.726Z" fill="#E74214"/>
<path d="M77.9015 100.42C77.8062 100.277 77.7109 100.11 77.6394 99.9673C77.5202 99.6098 77.8062 99.5859 78.0207 99.5144C78.4259 99.3714 78.8549 99.3476 79.2839 99.2523C82.6205 98.5849 85.9572 97.9176 89.2939 97.2741C89.556 97.2264 89.842 97.0834 90.1042 97.2741C90.0804 97.6078 90.3425 97.9414 90.0327 98.2513C89.699 98.2274 89.3892 98.2751 89.0794 98.3466C85.6474 99.0616 82.1915 99.7051 78.7357 100.396C78.4497 100.468 78.1637 100.587 77.9015 100.42Z" fill="#E74214"/>
<path d="M51.5657 80.8289C51.804 80.5906 52.09 80.3999 52.4237 80.2808C52.5428 80.4953 52.7097 80.6383 52.9003 80.7813C55.8795 82.7356 58.8587 84.6423 61.8378 86.5966C61.9808 86.6919 62.1238 86.7396 62.1715 86.9303C62.0285 87.1209 61.9093 87.2878 61.7663 87.4784C61.4803 87.6691 61.2897 87.4546 61.099 87.3354C59.7167 86.4298 58.3343 85.5479 56.9758 84.6661C55.3552 83.6174 53.7583 82.5688 52.1377 81.5201C51.8755 81.3056 51.5418 81.2103 51.5657 80.8289Z" fill="#E74214"/>
<path d="M60.9789 88.6227C60.2877 88.4559 59.7634 87.9554 59.1914 87.5979C56.379 85.7865 53.5667 83.9514 50.7782 82.0924C50.6352 81.997 50.4445 81.9494 50.373 81.7587C50.5399 81.5442 50.7782 81.3774 51.0165 81.2344C53.7097 83.0457 56.4505 84.7855 59.1437 86.5492C59.7634 86.9544 60.383 87.3834 61.0265 87.7885C61.1457 87.86 61.2649 87.9315 61.3125 88.0984C61.1934 88.2652 61.098 88.4559 60.9789 88.6227Z" fill="#E74214"/>
<path d="M58.9541 93.127C58.9303 93.3177 58.8826 93.5084 58.7634 93.6752C58.5251 93.8182 58.3583 93.6275 58.1914 93.5322C56.4278 92.4359 54.7118 91.2919 52.9719 90.1717C51.0176 88.9085 49.0394 87.6215 47.1089 86.3345C46.8944 86.1915 46.6084 86.12 46.6323 85.7625C46.7753 85.5719 46.9183 85.405 47.0613 85.2144C49.9451 87.1687 52.9004 89.0277 55.8319 90.9344C56.7614 91.5302 57.6671 92.1737 58.6204 92.7457C58.7634 92.8172 58.9064 92.9364 58.9541 93.127Z" fill="#E74214"/>
<path d="M70.4412 114.744C70.7272 114.601 70.8225 114.863 70.9417 115.006C72.6577 117.151 74.3499 119.32 76.042 121.489C76.0897 121.537 76.0897 121.632 76.1135 121.68C75.8275 121.87 75.4939 122.037 75.1364 122.109C74.8027 121.942 74.6597 121.608 74.4214 121.322C73.0152 119.558 71.6329 117.747 70.2029 115.983C70.1552 115.936 70.1314 115.864 70.1075 115.793C70.179 115.435 70.2982 115.078 70.4412 114.744Z" fill="#E74214"/>
<path d="M51.8769 96.6546C51.6624 96.9883 51.3049 96.9168 51.0189 96.9406C48.5164 97.3219 45.9901 97.6556 43.4637 98.0131C43.0586 98.0608 42.6534 98.0846 42.2482 98.1323C42.1767 98.1084 42.1529 98.0608 42.2006 97.9893C42.2006 97.5841 42.1767 97.2028 42.2959 96.7976C42.5581 96.9644 42.8202 96.9644 43.1062 96.9168C45.6087 96.5593 48.1351 96.2256 50.6376 95.8443C50.8282 95.8204 51.0189 95.7966 51.2334 95.8204C51.5194 96.1064 51.7101 96.3686 51.8769 96.6546Z" fill="#E74214"/>
<path d="M77.9023 100.42C79.6183 100.086 81.3343 99.7527 83.0503 99.3952C85.243 98.9662 87.4118 98.5372 89.6045 98.1082C89.7952 98.0606 89.9143 98.0367 89.962 98.2751C90.1527 98.5849 90.1765 98.8709 89.9143 99.1331C89.6045 99.0377 89.2947 99.0616 88.961 99.1331C85.6005 99.8242 82.24 100.468 78.8795 101.135C78.7127 101.159 78.522 101.207 78.3552 101.183C78.1883 100.921 78.0453 100.658 77.9023 100.42Z" fill="#E74214"/>
<path d="M60.6225 122.99C61.0992 122.847 60.8847 122.442 60.8608 122.18C60.7417 120.845 60.5987 119.51 60.4557 118.176C60.2888 116.626 60.0982 115.077 59.9313 113.528C59.8122 112.337 59.693 111.121 59.5977 109.929C59.5738 109.739 59.5977 109.548 59.4785 109.357C59.7407 109.286 60.0028 109.286 60.265 109.357C60.5033 109.739 60.4318 110.191 60.4795 110.597C60.8132 113.933 61.1707 117.246 61.5043 120.583C61.5758 121.298 61.6712 122.037 61.7188 122.752C61.7188 122.918 61.7665 123.109 61.6473 123.276C61.3137 123.205 60.9562 123.085 60.6225 122.99Z" fill="#E74214"/>
<path d="M62.2912 109.191C62.4342 110.597 62.5772 112.003 62.7202 113.409C62.8393 114.601 63.0062 115.793 63.1253 116.984C63.2445 118.128 63.3637 119.272 63.459 120.416C63.5543 121.322 63.5543 122.228 63.7212 123.11C63.7927 123.562 63.602 123.539 63.316 123.562C63.2683 123.562 63.1968 123.539 63.1492 123.539C62.744 122.943 62.8632 122.228 62.7917 121.56C62.4818 118.867 62.2435 116.174 61.9575 113.481C61.8383 112.337 61.743 111.169 61.6 110.025C61.5762 109.787 61.5523 109.525 61.6238 109.286C61.8383 109.167 62.0528 109.191 62.2912 109.191Z" fill="#E74214"/>
<path d="M79.1174 102.661C78.9744 102.47 78.8553 102.256 78.8076 102.017C78.6884 101.755 78.8553 101.66 79.0459 101.588C79.2128 101.517 79.3796 101.493 79.5703 101.445C82.6924 100.849 85.8146 100.206 88.9368 99.6101C89.2466 99.5624 89.5803 99.4194 89.8186 99.7531C89.9139 100.134 89.9139 100.492 89.5803 100.778C89.2466 100.706 88.9129 100.73 88.5793 100.802C85.5048 101.421 82.4303 102.017 79.3558 102.661C79.2604 102.661 79.1889 102.661 79.1174 102.661Z" fill="#E74214"/>
<path d="M61.6235 109.262C61.9095 109.644 61.7665 110.12 61.838 110.549C62.0525 112.098 62.1479 113.671 62.2909 115.244C62.4815 117.151 62.7199 119.082 62.9105 120.988C63.0059 121.822 63.0535 122.68 63.1489 123.515C62.9344 123.515 62.696 123.586 62.5054 123.419C62.124 122.752 62.2194 121.989 62.1479 121.274C61.8619 118.629 61.5997 115.983 61.3375 113.362C61.2184 112.218 61.123 111.05 60.98 109.906C60.9562 109.691 60.9562 109.477 61.123 109.31C61.266 109.286 61.4329 109.286 61.6235 109.262Z" fill="#E74214"/>
<path d="M51.2554 95.868C50.7311 96.1778 50.1352 96.1301 49.5632 96.2016C47.5851 96.5115 45.5831 96.7736 43.6049 97.0596C43.3189 97.1073 43.0567 97.1311 42.7707 97.1788C42.5086 97.2265 42.3179 97.1311 42.3179 96.8213C42.3179 96.5353 42.2941 96.2493 42.4371 95.9633C43.7956 95.9395 45.1302 95.6296 46.4649 95.4628C47.7757 95.296 49.0627 95.0576 50.3736 94.9385C50.7549 95.1768 51.0171 95.5105 51.2554 95.868Z" fill="#E74214"/>
<path d="M89.7458 99.7764C89.3645 99.4666 88.9832 99.7526 88.6257 99.8002C85.5989 100.372 82.572 100.968 79.569 101.588C79.3069 101.635 78.8779 101.54 78.8064 102.017C78.6634 101.731 78.5203 101.469 78.3535 101.183C79.0447 100.801 79.855 100.801 80.5939 100.634C83.4539 100.039 86.3139 99.4904 89.1739 98.9422C89.3407 98.9184 89.7697 98.5132 89.8412 99.1091C89.9842 99.3712 90.0795 99.6096 89.7458 99.7764Z" fill="#E74214"/>
<path d="M47.8245 84.2612C47.8245 84.4042 47.896 84.4757 48.0152 84.5472C51.8047 87.0021 55.5942 89.4807 59.3837 91.9356C59.3122 92.1262 59.2407 92.2931 59.1692 92.4837C58.9547 92.6267 58.7879 92.4599 58.6449 92.3407C56.6667 91.1014 54.7124 89.7906 52.758 88.5274C51.1135 87.4787 49.4929 86.4062 47.8722 85.3337C47.6577 85.1907 47.3479 85.1192 47.3955 84.7617C47.5147 84.5949 47.6815 84.4281 47.8245 84.2612Z" fill="#E74214"/>
<path d="M47.3723 84.7856C47.6583 85.2146 48.135 85.4053 48.564 85.6675C51.5908 87.6456 54.6177 89.6238 57.6683 91.5781C58.1688 91.888 58.6217 92.2455 59.1698 92.4838C59.0983 92.6983 59.0268 92.9128 58.9553 93.1273C55.3803 90.8155 51.8053 88.4798 48.2303 86.1441C47.8252 85.882 47.277 85.7151 47.0625 85.1908C47.134 85.024 47.2293 84.881 47.3723 84.7856Z" fill="#E74214"/>
<path d="M61.3136 88.0984C60.0027 87.2404 58.6919 86.4062 57.3811 85.5482C55.4267 84.285 53.4724 83.0219 51.5181 81.7587C51.3274 81.6395 51.0414 81.568 51.0176 81.2582C51.1606 81.0675 51.3512 80.9484 51.5657 80.853C51.7087 81.139 51.9947 81.282 52.2331 81.4489C55.2361 83.4032 58.2391 85.3575 61.2659 87.3119C61.4089 87.4072 61.5519 87.5264 61.7426 87.5025C61.6472 87.6932 61.4804 87.9077 61.3136 88.0984Z" fill="#E74214"/>
<path d="M82.5501 117.413C82.2402 116.746 81.7159 116.245 81.263 115.673C79.9045 113.886 78.4984 112.122 77.1161 110.358C77.0684 110.311 76.9969 110.287 76.9492 110.239C77.2591 110.12 77.5927 110.144 77.9264 110.144C78.2124 110.025 78.3554 110.168 78.4984 110.382C80.0237 112.36 81.5729 114.362 83.1459 116.293C83.2412 116.412 83.3604 116.507 83.2889 116.674C83.0982 116.96 82.8599 117.222 82.5501 117.413Z" fill="#E74214"/>
<path d="M48.7532 83.2363C48.7532 83.4508 48.8962 83.5462 49.0631 83.6415C52.6142 85.9533 56.1892 88.289 59.7404 90.6247C59.7881 90.6485 59.8357 90.6485 59.8834 90.6723C59.8834 90.863 59.6451 90.9107 59.6689 91.1013C59.3829 91.2205 59.1922 91.0298 59.0016 90.8868C55.9986 88.9325 52.9956 86.9543 49.9687 85C49.3729 84.6187 48.7532 84.2612 48.2051 83.8083C48.3719 83.57 48.5626 83.4032 48.7532 83.2363Z" fill="#E74214"/>
<path d="M51.8524 103.614C51.7094 103.924 51.5664 104.257 51.4234 104.567C51.2089 104.734 50.9705 104.758 50.7084 104.805C48.325 105.139 45.9417 105.449 43.5345 105.806C43.3439 105.83 43.1532 105.902 42.9625 105.735C42.8434 105.449 42.748 105.187 42.748 104.877C42.891 104.591 43.177 104.591 43.4392 104.543C45.9894 104.162 48.5157 103.804 51.0659 103.447C51.3519 103.447 51.6379 103.399 51.8524 103.614Z" fill="#E74214"/>
<path d="M72.182 76.42C72.4918 76.42 72.754 76.5153 73.0161 76.6345C72.2058 78.1598 71.6815 79.8043 71.0141 81.4012C70.6566 82.2592 70.323 83.1172 69.9893 83.9752C69.894 84.2135 69.8225 84.4518 69.5841 84.571C69.3696 84.285 69.1551 84.0228 68.9406 83.7368C68.8453 83.4985 68.893 83.284 68.9883 83.0695C69.7986 81.0198 70.609 78.994 71.4431 76.9443C71.5623 76.6345 71.6815 76.2532 72.182 76.42Z" fill="#E74214"/>
<path d="M52.9488 108.309C53.1633 108.381 53.3778 108.452 53.5923 108.547C53.8783 108.714 53.9022 109 53.9498 109.286C54.212 111.86 54.4742 114.41 54.7363 116.984C54.8078 117.819 54.9032 118.653 54.9985 119.487C55.0223 119.701 55.07 119.916 54.927 120.107C54.4027 120.154 54.0452 119.892 53.8783 119.272C53.8783 117.842 53.64 116.436 53.5208 115.03C53.3302 112.957 53.0918 110.907 52.9012 108.833C52.8535 108.643 52.8058 108.476 52.9488 108.309Z" fill="#E74214"/>
<path d="M65.0793 123.729C64.9363 122.442 64.7933 121.179 64.6741 119.892C64.5549 118.7 64.4596 117.509 64.3404 116.317C64.2213 115.078 64.0544 113.862 63.9353 112.647C63.8399 111.741 63.7923 110.859 63.6969 109.953C63.6731 109.644 63.7684 109.262 63.3633 109.095C63.6016 108.976 63.8638 108.976 64.1259 109.024C64.3404 109.215 64.3643 109.453 64.3881 109.715C64.8409 114.196 65.2938 118.653 65.7704 123.133C65.7943 123.372 65.8181 123.586 65.6513 123.801C65.4368 123.729 65.2461 123.729 65.0793 123.729Z" fill="#E74214"/>
<path d="M62.149 86.9064C60.6237 85.9292 59.0983 84.9521 57.573 83.9749C55.9047 82.9024 54.2363 81.8061 52.568 80.7336C52.3535 80.5906 52.282 80.4952 52.4012 80.2807V80.2569C52.5918 80.1854 52.7348 80.0186 52.9732 80.0186C53.7835 80.4714 54.5462 81.0196 55.3088 81.5201C57.5492 82.9501 59.7657 84.4277 61.9822 85.8577C62.1967 86.0007 62.435 86.1437 62.578 86.3821C62.435 86.5489 62.292 86.7396 62.149 86.9064Z" fill="#E74214"/>
<path d="M54.3548 108.762C54.5931 108.833 54.8553 108.881 55.0936 108.952C55.4035 109.667 55.3796 110.454 55.4511 111.193C55.6895 113.505 55.9278 115.793 56.1661 118.104C56.2376 118.915 56.3091 119.725 56.4045 120.559C56.4283 120.774 56.4283 120.988 56.2853 121.179C55.8325 121.227 55.5226 121.036 55.3558 120.607C55.3558 119.129 55.1175 117.675 54.9745 116.198C54.76 114.005 54.5455 111.812 54.3071 109.62C54.2833 109.334 54.2356 109.048 54.3548 108.762Z" fill="#E74214"/>
<path d="M69.5605 84.5708C70.5854 82.0444 71.6102 79.5419 72.635 77.0156C72.7065 76.8249 72.7542 76.6343 73.0164 76.6343C73.2785 76.6581 73.5407 76.7058 73.7552 76.8488C73.6837 77.3016 73.4454 77.7068 73.2785 78.1358C72.3967 80.3761 71.4672 82.6164 70.5615 84.8568C70.4662 85.0713 70.4185 85.3096 70.204 85.4288C69.9895 85.1666 69.775 84.8568 69.5605 84.5708Z" fill="#E74214"/>
<path d="M52.1857 117.413C52.567 117.318 52.424 117.008 52.4002 116.794C52.281 115.483 52.138 114.148 51.995 112.837C51.8282 111.288 51.6614 109.739 51.4945 108.214C51.4707 107.999 51.4707 107.785 51.4707 107.57C51.7567 107.666 51.995 107.832 52.2095 107.999C52.6147 108.476 52.5194 109.096 52.567 109.644C52.8292 112.337 53.139 115.054 53.4012 117.747C53.425 118.033 53.5204 118.319 53.2344 118.534C52.7339 118.486 52.281 117.985 52.1857 117.413Z" fill="#E74214"/>
<path d="M45.6558 87.2167C45.7273 87.0022 45.8226 86.8354 45.9895 86.6924C48.349 88.2415 50.7323 89.7907 53.1156 91.3399C54.6886 92.3647 56.2616 93.3895 57.8346 94.3905C58.0253 94.5097 58.2398 94.6289 58.3351 94.8434C58.359 95.0579 58.2636 95.2247 58.1445 95.3915C57.93 95.463 57.8108 95.32 57.6678 95.2247C55.4751 93.7947 53.3063 92.3885 51.1136 90.9585C49.4453 89.8622 47.777 88.7659 46.0848 87.6934C45.8941 87.5742 45.632 87.5027 45.6558 87.2167Z" fill="#E74214"/>
<path d="M54.3545 108.762C54.569 109.239 54.4975 109.739 54.5451 110.216C54.7596 112.099 54.9026 114.005 55.1171 115.912C55.284 117.366 55.4508 118.82 55.5461 120.273C55.5461 120.416 55.5938 120.559 55.427 120.631C55.0456 120.655 54.8311 120.464 54.7596 120.107C55.0218 119.606 54.7596 119.082 54.7358 118.581C54.712 117.676 54.5451 116.77 54.4498 115.84C54.3068 114.601 54.1876 113.362 54.0446 112.099C53.9493 111.264 53.8778 110.406 53.8063 109.572C53.7825 109.215 53.711 108.881 53.5918 108.547C53.854 108.619 54.0923 108.69 54.3545 108.762Z" fill="#E74214"/>
<path d="M53.0432 118.486C53.4007 118.414 53.2815 118.128 53.2577 117.914C53.0908 116.198 52.924 114.506 52.7333 112.79C52.5665 111.193 52.3758 109.596 52.209 107.999C52.495 108.023 52.7333 108.166 52.9717 108.309C53.1147 109.739 53.2577 111.145 53.4007 112.575C53.5675 114.124 53.782 115.65 53.9012 117.199C53.9488 117.89 54.2587 118.629 53.925 119.32C53.4483 119.225 53.1623 118.939 53.0432 118.486Z" fill="#E74214"/>
<path d="M72.1817 76.4201C71.9434 76.3963 71.7765 76.4917 71.6812 76.73C70.7755 79.018 69.846 81.306 68.9404 83.594C68.9165 83.6416 68.9165 83.6893 68.9165 83.7608C68.6305 83.451 68.3684 83.1411 68.0824 82.8313C68.0109 82.6645 68.1062 82.5215 68.1539 82.3785C68.9165 80.4956 69.6792 78.589 70.418 76.7062C70.561 76.3487 70.7279 76.0388 71.1807 76.2295C71.5382 76.2057 71.8719 76.2771 72.1817 76.4201Z" fill="#E74214"/>
<path d="M65.6027 123.729C65.4597 122.419 65.3167 121.108 65.1975 119.773C65.0783 118.605 64.983 117.413 64.8638 116.246C64.7447 114.959 64.6017 113.672 64.4587 112.408C64.3872 111.622 64.268 110.835 64.2442 110.025C64.2203 109.668 64.125 109.334 64.125 108.976C64.2918 108.833 64.4587 108.833 64.6493 108.833C64.7923 110.12 64.9353 111.407 65.0545 112.694C65.1498 113.529 65.1975 114.363 65.2928 115.173C65.4358 116.46 65.5788 117.747 65.698 119.034C65.8172 120.226 65.9602 121.441 66.0317 122.633C66.0555 122.99 66.3653 123.396 66.0317 123.753C65.8887 123.753 65.7457 123.753 65.6027 123.729Z" fill="#E74214"/>
<path d="M53.6159 100.611C53.449 100.873 53.2822 101.112 53.0915 101.374C52.2574 101.588 51.3994 101.636 50.5652 101.779C48.0627 102.16 45.5364 102.494 43.0339 102.828C42.7479 102.875 42.438 102.947 42.3427 102.542C42.295 102.256 42.1997 101.97 42.2474 101.684C42.4619 101.874 42.7002 101.874 42.9862 101.827C46.156 101.35 49.302 100.921 52.4719 100.492C52.8532 100.468 53.2822 100.182 53.6159 100.611Z" fill="#E74214"/>
<path d="M79.6658 103.923C79.5466 103.757 79.4751 103.59 79.4513 103.375C79.3321 103.113 79.5228 103.018 79.6896 102.946C79.8326 102.875 79.9994 102.851 80.1424 102.827C82.9309 102.255 85.7433 101.731 88.5318 101.183C88.8416 101.111 89.2229 100.992 89.4136 101.421C89.4374 101.707 89.4136 101.993 89.1276 102.16C86.2199 102.708 83.3361 103.304 80.4523 103.876C80.1901 103.923 79.9279 104.019 79.6658 103.923Z" fill="#E74214"/>
<path d="M85.1223 114.601C84.9078 114.935 84.7171 115.268 84.3834 115.483C83.7161 114.863 83.2156 114.1 82.6674 113.385C81.8809 112.408 81.0944 111.407 80.3318 110.406C80.1649 110.168 79.9266 110.001 79.7598 109.787C79.9981 109.667 80.2603 109.62 80.5224 109.572C80.5701 109.524 80.6178 109.429 80.6893 109.405C80.8799 109.334 81.0706 109.334 81.2613 109.405C82.0478 110.359 82.7866 111.336 83.5493 112.289C84.0021 112.861 84.4788 113.433 84.9078 114.005C84.9793 114.22 85.1461 114.363 85.1223 114.601Z" fill="#E74214"/>
<path d="M77.2102 88.6464C77.0196 88.7656 76.7812 88.7417 76.5667 88.7417C75.9947 88.8132 75.8756 88.6702 76.1139 88.0744C77.0434 85.7387 77.9729 83.403 78.9262 81.0674C79.0692 80.7337 79.1884 80.4 79.3314 80.0902C79.4267 79.8995 79.4744 79.6612 79.7842 79.7327C80.0226 79.828 80.2609 79.9472 80.3801 80.1856C80.3562 80.5669 80.1417 80.8529 79.9987 81.1865C79.0931 83.4269 78.2112 85.6911 77.3056 87.9314C77.2341 88.1459 77.1387 88.3842 77.2102 88.6464Z" fill="#E74214"/>
<path d="M53.0422 118.486C53.2806 118.796 53.5666 119.106 53.9002 119.344C54.1386 119.654 54.4007 119.916 54.7582 120.107C54.9251 120.345 55.1634 120.512 55.4256 120.631C55.6401 120.869 55.9022 121.012 56.1882 121.179C56.3312 121.251 56.5696 121.227 56.5219 121.489C54.8297 120.845 53.2806 119.868 51.8267 118.796C50.8972 118.105 49.9677 117.366 49.2051 116.484C49.8247 116.031 50.5397 116.031 51.2547 116.055C51.5884 116.508 51.8029 117.056 52.2081 117.437C52.4226 117.819 52.7086 118.176 53.0422 118.486Z" fill="#E74214"/>
<path d="M70.2031 85.4529C70.9896 83.4748 71.7761 81.5205 72.5626 79.5423C72.8963 78.732 73.2061 77.9455 73.516 77.1351C73.5636 77.016 73.6113 76.9206 73.7305 76.8491C73.9688 76.873 74.1833 76.9445 74.374 77.0636C74.4693 77.2781 74.3501 77.4926 74.2786 77.6833C73.1823 80.305 72.1575 82.9743 71.085 85.596C70.9896 85.8343 70.9181 86.0726 70.6321 86.1441C70.4653 85.9535 70.2985 85.7151 70.2031 85.4529Z" fill="#E74214"/>
<path d="M89.1034 102.136C89.2464 101.945 89.294 101.731 89.3179 101.492C89.4132 101.254 89.2702 100.944 89.5324 100.754C89.6754 100.444 89.7469 100.134 89.7469 99.7765C89.9137 99.5858 89.8422 99.3475 89.866 99.133C90.0567 98.8708 89.9375 98.561 89.9614 98.275C90.152 97.9652 90.0329 97.6315 90.0567 97.2978C89.9614 97.1787 89.9137 97.0118 89.9375 96.8688C89.9375 96.7497 89.9852 96.6305 90.0805 96.5352C90.2474 96.988 90.1997 97.4885 90.2474 97.9652C90.438 100.658 90.2235 103.328 89.5085 105.949C89.4847 105.997 89.4609 106.045 89.437 106.092C88.7697 105.687 88.3407 105.091 88.0547 104.376C88.1262 104.09 88.2454 103.852 88.3645 103.59C88.5075 103.375 88.6029 103.161 88.6982 102.922C88.8174 102.66 88.865 102.327 89.1034 102.136Z" fill="#E74214"/>
<path d="M50.3744 94.9624C49.7786 95.3199 49.0874 95.2484 48.4201 95.3676C46.7756 95.6297 45.1072 95.8442 43.4389 96.1064C43.1767 96.1541 42.9146 96.1064 42.6524 96.2017C42.4856 96.2732 42.4379 96.1302 42.4141 95.9872C42.4141 95.7012 42.4379 95.4152 42.5332 95.1531C43.8917 95.1292 45.2502 94.8194 46.5849 94.6764C47.3714 94.5811 48.1579 94.4381 48.9444 94.3189C49.1351 94.2951 49.3019 94.2712 49.3734 94.0806C49.8501 94.2474 50.0169 94.7241 50.3744 94.9624Z" fill="#E74214"/>
<path d="M58.2155 109.405C58.7399 109.286 58.8352 109.524 58.8829 110.025C58.9544 111.264 59.145 112.527 59.2642 113.767C59.3834 114.935 59.4787 116.079 59.5979 117.246C59.717 118.51 59.86 119.773 60.003 121.036C60.0507 121.465 60.0984 121.918 60.1222 122.347C60.146 122.585 60.1222 122.776 59.7885 122.752C59.6694 122.752 59.5502 122.728 59.4549 122.657C59.2404 121.632 59.2165 120.583 59.0974 119.534C58.8114 116.913 58.5492 114.291 58.287 111.669C58.2394 110.931 58.0487 110.168 58.2155 109.405Z" fill="#E74214"/>
<path d="M89.5328 100.73C89.5328 100.992 89.4612 101.254 89.3182 101.469C89.2467 101.111 88.9607 101.231 88.7462 101.278C85.8624 101.826 82.9786 102.398 80.0947 102.994C79.8564 103.042 79.4751 102.97 79.4274 103.399C79.2606 103.185 79.1652 102.923 79.0938 102.661C79.1891 102.47 79.3559 102.47 79.5466 102.422C82.6687 101.803 85.7909 101.159 88.9131 100.539C89.1276 100.516 89.4136 100.373 89.5328 100.73Z" fill="#E74214"/>
<path d="M51.8512 103.614C50.5404 103.614 49.2534 103.924 47.9664 104.09C46.5602 104.257 45.1779 104.496 43.7717 104.686C43.4381 104.734 43.1044 104.758 42.7946 104.901C42.6754 104.591 42.6039 104.281 42.5801 103.947C44.9634 103.59 47.3467 103.256 49.7301 102.923C50.3736 102.827 50.9932 102.732 51.6367 102.66C51.8751 102.637 52.0896 102.565 52.3041 102.756C52.1372 103.042 51.9942 103.328 51.8512 103.614Z" fill="#E74214"/>
<path d="M42.223 98.0127C42.2468 98.0604 42.2468 98.108 42.2706 98.1557C42.2706 98.4655 42.2468 98.7992 42.2468 99.109C42.2468 99.395 42.2468 99.681 42.2468 99.967C42.2468 100.062 42.2468 100.134 42.2468 100.229C42.2468 100.825 42.3421 100.897 42.938 100.801C44.4156 100.587 45.8695 100.396 47.3471 100.182C48.9678 99.9432 50.5885 99.7049 52.233 99.4665C52.6143 99.4189 53.0195 99.5142 53.3055 99.1329C53.4246 99.2759 53.52 99.4427 53.52 99.6334C53.6153 100.062 53.3055 100.086 53.0195 100.134C51.8516 100.325 50.6838 100.468 49.5398 100.634C47.3471 100.92 45.1783 101.254 42.9856 101.564C42.7473 101.588 42.4851 101.683 42.2706 101.492C42.1038 100.325 42.0561 99.1567 42.223 98.0127Z" fill="#E74214"/>
<path d="M79.737 109.811C80.0706 109.763 80.1898 110.073 80.3328 110.263C81.6675 111.932 82.9783 113.624 84.2891 115.292C84.3368 115.34 84.3368 115.435 84.3606 115.483C84.2176 115.793 84.0031 116.031 83.7171 116.246C82.9306 115.34 82.2156 114.363 81.453 113.409C80.7856 112.575 80.1421 111.717 79.4748 110.883C79.2126 110.573 78.9743 110.24 78.6406 110.001C79.022 109.906 79.3795 109.834 79.737 109.811Z" fill="#E74214"/>
<path d="M68.5835 119.987C68.5596 119.916 68.512 119.821 68.4881 119.749C68.3928 118.176 68.1068 116.603 67.9638 115.03C67.8446 113.815 67.7493 112.599 67.6301 111.384C67.5348 110.359 67.4156 109.358 67.3203 108.333C67.4156 108.333 67.511 108.309 67.6063 108.309C67.8923 108.309 68.0353 108.357 68.083 108.714C68.2021 110.12 68.3213 111.527 68.512 112.909C68.655 113.886 68.6073 114.887 68.941 115.84C68.6788 117.199 68.5596 118.581 68.5835 119.987Z" fill="#E74214"/>
<path d="M42.9844 105.759C45.2724 105.425 47.5604 105.116 49.8484 104.782C50.3727 104.71 50.897 104.591 51.4214 104.567C51.2784 104.877 51.1592 105.211 51.0162 105.521C50.7779 105.735 50.468 105.664 50.2059 105.711C48.0847 106.021 45.9635 106.331 43.8424 106.617C43.6279 106.641 43.3895 106.76 43.2227 106.498C43.1035 106.26 43.0082 106.021 42.9844 105.759Z" fill="#E74214"/>
<path d="M42.2461 101.468C43.4139 101.302 44.5818 101.159 45.7734 100.992C47.2034 100.801 48.6334 100.587 50.0873 100.396C51.1121 100.253 52.1608 100.11 53.1856 99.967C53.4001 99.9431 53.4954 99.824 53.5193 99.6333C53.6146 99.967 54.0436 100.253 53.6384 100.634C52.9949 100.444 52.3753 100.706 51.7556 100.777C50.3256 100.944 48.8956 101.182 47.4418 101.373C46.0594 101.564 44.6771 101.778 43.2948 101.969C43.0564 101.993 42.7943 101.993 42.5559 102.04C42.2223 102.112 42.4368 101.754 42.2699 101.707C42.2461 101.611 42.2461 101.54 42.2461 101.468Z" fill="#E74214"/>
<path d="M73.9693 88.7416C74.5174 87.7883 74.8273 86.7158 75.2324 85.7148C76.1381 83.5221 77.0199 81.3056 77.9018 79.113C77.9733 78.9461 77.9971 78.8031 78.2116 78.7793C78.4023 78.8985 78.5691 78.9938 78.7598 79.113C77.9494 81.1865 77.0914 83.2361 76.2573 85.2858C75.8759 86.2868 75.4708 87.264 75.0656 88.265C74.9703 88.4795 74.8988 88.694 74.7081 88.837C74.4698 88.837 74.2076 88.837 73.9693 88.837C73.9454 88.8131 73.9216 88.7893 73.9454 88.7893C73.9454 88.7416 73.9693 88.7416 73.9693 88.7416Z" fill="#E74214"/>
<path d="M50.6124 106.998C50.5648 107.189 50.5171 107.403 50.3741 107.57C48.3959 107.88 46.3939 108.142 44.3919 108.428C44.2013 108.452 44.0106 108.452 43.8438 108.309C43.6769 108.023 43.5578 107.689 43.4863 107.356C43.9391 107.07 44.4634 107.093 44.9878 107.022C46.7991 106.784 48.5866 106.521 50.3741 106.259C50.5171 106.235 50.6601 106.212 50.8031 106.283C50.7316 106.521 50.6839 106.76 50.6124 106.998Z" fill="#E74214"/>
<path d="M89.104 102.136C89.0802 102.446 88.9372 102.708 88.7703 102.994C86.1963 103.495 83.6223 104.019 81.0483 104.52C80.6908 104.591 80.3095 104.663 79.9758 104.829C79.8805 104.543 79.7613 104.234 79.666 103.948C80.7623 103.59 81.9064 103.471 83.0265 103.233C84.9332 102.827 86.8399 102.47 88.7465 102.089C88.8657 102.041 88.9849 101.969 89.104 102.136Z" fill="#E74214"/>
<path d="M43.8438 108.309C45.0592 108.142 46.2509 107.999 47.4664 107.832C48.3006 107.713 49.1348 107.57 49.9928 107.451C50.1358 107.427 50.2788 107.427 50.3741 107.546C50.1834 107.928 50.3026 108.38 50.0643 108.738C48.3483 108.952 46.6561 109.191 44.9639 109.429C44.7494 109.453 44.5111 109.524 44.2966 109.358C44.1059 109.048 43.9391 108.69 43.8438 108.309Z" fill="#E74214"/>
<path d="M70.1313 115.816C70.751 116.198 71.0846 116.865 71.5136 117.413C72.6815 118.843 73.8016 120.297 74.9218 121.751C75.0171 121.87 75.0648 121.989 75.1363 122.108C74.8741 122.251 74.5881 122.371 74.2783 122.442C72.9436 120.726 71.5851 119.01 70.2743 117.294C70.1551 117.151 70.036 117.056 69.8691 116.984C69.9168 116.579 69.9883 116.198 70.1313 115.816Z" fill="#E74214"/>
<path d="M52.9486 80.0664C52.7579 80.1141 52.6149 80.2809 52.4004 80.2571C53.7589 79.1846 55.2842 78.3742 56.8572 77.6831C57.9536 77.2064 59.0499 76.7774 60.2416 76.5391C60.1462 77.2064 59.8126 77.7784 59.5742 78.3742C59.4551 78.6602 59.0976 78.5649 58.8592 78.6602C58.8116 78.6841 58.7401 78.6841 58.6924 78.6841C58.3111 78.6841 57.9536 78.7794 57.5961 78.8032C57.2386 78.8271 56.9049 78.9462 56.5474 78.9939C56.2852 79.0177 56.0231 79.1131 55.7847 79.1846C55.5226 79.2322 55.2842 79.2799 55.0459 79.3752C54.9029 79.4229 54.7599 79.4706 54.6169 79.5182C54.4977 79.5659 54.3786 79.6136 54.2594 79.6374C54.0687 79.6851 53.9019 79.7804 53.7112 79.8281C53.4729 79.8996 53.2584 80.1379 52.9486 80.0664Z" fill="#E74214"/>
<path d="M52.2803 102.756C51.0409 102.923 49.8254 103.066 48.5861 103.232C47.1799 103.423 45.7738 103.638 44.3914 103.828C44.0339 103.876 43.6526 103.924 43.2951 103.995C43.0329 104.043 42.7946 104.067 42.5801 103.924C42.5324 103.709 42.5086 103.495 42.4609 103.28C43.8433 103.018 45.2494 102.851 46.6318 102.66C48.3954 102.398 50.1591 102.136 51.9228 101.898C52.1849 101.874 52.4709 101.779 52.6378 102.088C52.6139 102.374 52.3518 102.517 52.2803 102.756Z" fill="#E74214"/>
<path d="M52.6138 102.112C52.2087 101.85 51.8035 102.089 51.4222 102.136C48.5622 102.518 45.726 102.97 42.866 103.376C42.723 103.399 42.58 103.352 42.4608 103.28C42.4132 103.042 42.3178 102.78 42.3417 102.541C42.6992 102.994 43.152 102.637 43.5333 102.613C45.2493 102.422 46.9653 102.16 48.6813 101.898C49.9922 101.707 51.303 101.54 52.6138 101.35C52.7807 101.326 52.9237 101.374 53.0905 101.397C52.9952 101.66 52.8045 101.898 52.6138 102.112Z" fill="#E74214"/>
<path d="M46.6309 85.7388C47.0361 86.2393 47.6081 86.5014 48.1324 86.8351C50.4443 88.3604 52.7561 89.8381 55.0679 91.3396C56.2119 92.0784 57.3321 92.8173 58.4761 93.5323C58.5714 93.5799 58.6668 93.6038 58.7621 93.6514C58.6191 93.7468 58.7383 93.9851 58.5476 94.0804C58.3093 94.2234 58.1424 94.0328 57.9756 93.9374C55.5684 92.3883 53.1613 90.8153 50.7541 89.2423C49.3956 88.3604 48.0609 87.4786 46.7263 86.6206C46.5594 86.5253 46.3688 86.4299 46.2734 86.2393C46.3211 86.0486 46.4879 85.8818 46.6309 85.7388Z" fill="#E74214"/>
<path d="M70.6562 86.144C71.2521 85.1668 71.5619 84.0705 71.9909 83.0218C72.8251 81.0436 73.6116 79.0416 74.3981 77.0635C74.6841 77.1588 75.0178 77.1826 75.2561 77.3733C74.8033 77.8738 74.6603 78.4935 74.4219 79.0893C73.4686 81.425 72.5391 83.7606 71.6096 86.0725C71.4904 86.3585 71.4666 86.7636 71.0376 86.8113C70.9184 86.5968 70.7754 86.3823 70.6562 86.144Z" fill="#E74214"/>
<path d="M71.0371 86.8112C71.6091 86.12 71.7759 85.262 72.1096 84.4517C73.0391 82.2114 73.9209 79.9472 74.8266 77.683C74.8981 77.4924 75.0173 77.3494 75.2556 77.3732C75.3986 77.5162 75.6608 77.397 75.7799 77.5877C75.5416 77.5877 75.4463 77.7784 75.3748 77.969C74.1831 80.9482 72.9914 83.9274 71.7998 86.8827C71.7044 87.1449 71.5853 87.407 71.4899 87.6692C71.3469 87.3832 71.1801 87.0972 71.0371 86.8112Z" fill="#E74214"/>
<path d="M71.2036 76.2055C70.8461 76.1578 70.7031 76.3723 70.5839 76.6583C69.8451 78.5173 69.1063 80.3525 68.3674 82.2115C68.2721 82.426 68.1768 82.6405 68.0576 82.8311C67.8908 82.7596 67.8193 82.5451 67.6286 82.5213C67.6286 82.283 67.3903 82.1876 67.2949 81.997C67.4141 81.4488 67.6763 80.9721 67.8669 80.4478C68.3913 79.1131 68.9156 77.7785 69.4876 76.4676C69.5591 76.277 69.5591 75.991 69.8689 75.991C70.3694 75.9671 70.7746 76.0625 71.2036 76.2055Z" fill="#E74214"/>
<path d="M50.8036 106.283C49.8026 106.617 48.7301 106.641 47.6814 106.807C46.4898 106.998 45.2743 107.165 44.0826 107.332C43.8919 107.356 43.7013 107.356 43.5106 107.356C43.3438 107.093 43.2723 106.784 43.2246 106.498C44.0111 106.521 44.7499 106.331 45.5126 106.235C46.9188 106.069 48.3011 105.83 49.7073 105.64C50.1363 105.568 50.5891 105.497 51.0181 105.544C51.0181 105.806 50.8989 106.045 50.8036 106.283Z" fill="#E74214"/>
<path d="M57.2378 121.822C56.9756 121.799 56.7611 121.656 56.5704 121.513C56.1653 117.699 55.8078 113.862 55.3788 110.049C55.3311 109.715 55.2834 109.381 55.5218 109.072C55.6886 109 55.8316 109.119 55.9508 109.215C56.1653 109.31 56.1891 109.501 56.2129 109.715C56.4274 112.313 56.7373 114.887 56.9756 117.485C57.0948 118.676 57.2139 119.844 57.3569 121.036C57.4046 121.274 57.4523 121.584 57.2378 121.822Z" fill="#E74214"/>
<path d="M88.4591 103.614C88.3399 103.876 88.2446 104.115 88.1254 104.377C88.0539 104.496 88.0301 104.663 87.8394 104.687C85.5991 105.092 83.3587 105.545 81.1184 105.974C80.7847 106.045 80.5702 106.212 80.3557 106.426C80.2366 106.14 80.1651 105.854 80.1412 105.545C79.9982 105.187 80.2127 105.044 80.4987 104.973C80.8801 104.877 81.2614 104.806 81.6427 104.734C83.6447 104.353 85.6467 103.948 87.6487 103.566C87.9586 103.519 88.2207 103.4 88.4591 103.614Z" fill="#E74214"/>
<path d="M77.2098 88.6463C76.757 88.5271 77.0668 88.2173 77.1145 88.0505C77.7103 86.5251 78.3061 85.0236 78.9258 83.5221C79.4025 82.402 79.7123 81.2103 80.3796 80.1616C80.5941 80.3046 80.8086 80.4476 81.0231 80.5906C80.1175 82.8786 79.188 85.1905 78.2585 87.4785C78.1155 87.8121 78.044 88.1935 77.8056 88.5033C77.6388 88.6225 77.4243 88.6463 77.2098 88.6463Z" fill="#E74214"/>
<path d="M57.5713 78.684C57.9526 78.6364 58.3578 78.5172 58.7391 78.5887C58.8106 78.8509 59.0489 78.97 59.2396 79.113C61.2416 80.4477 63.2674 81.7109 65.2694 83.0455C65.4601 83.1647 65.6746 83.26 65.7938 83.4984C65.6508 83.7367 65.3648 83.7844 65.1503 83.9274C65.0073 84.0465 64.8881 83.9512 64.7689 83.8559C62.4094 82.3067 60.0499 80.8052 57.7143 79.2322C57.5951 79.1369 56.9754 79.0415 57.5713 78.684Z" fill="#E74214"/>
<path d="M79.7846 79.7327C79.2603 80.1617 79.1888 80.8528 78.9505 81.401C77.9971 83.6413 77.1391 85.9293 76.2096 88.1935C76.0428 88.5987 76.1381 88.7655 76.5671 88.7417C76.1858 88.8847 75.7806 88.837 75.3755 88.837C75.2086 88.6464 75.2801 88.4319 75.3755 88.2412C76.4718 85.5719 77.5205 82.8549 78.6168 80.1855C78.736 79.8995 78.7598 79.4705 79.2365 79.4229C79.4748 79.4229 79.6416 79.5658 79.7846 79.7327Z" fill="#E74214"/>
<path d="M58.3339 94.8431C56.5464 93.6752 54.7589 92.5312 52.9476 91.3634C50.7788 89.9572 48.5861 88.5511 46.4173 87.1211C46.2504 87.0019 46.0121 86.9542 45.9883 86.6921C46.0359 86.5729 46.0836 86.4299 46.2028 86.3584C47.1799 86.8589 48.0856 87.5262 48.9913 88.1221C51.9704 90.0526 54.9496 92.0069 57.9526 93.9374C58.1671 94.0804 58.3816 94.1996 58.5246 94.4141C58.5246 94.5809 58.4054 94.7001 58.3339 94.8431Z" fill="#E74214"/>
<path d="M54.974 79.3039C55.2123 79.1609 55.4507 79.0894 55.7367 79.0894C56.9522 79.852 58.1677 80.6624 59.3593 81.425C60.8608 82.4022 62.3623 83.4032 63.8877 84.3565C64.0068 84.428 64.126 84.5234 64.1975 84.6425C64.126 84.9047 63.84 84.9047 63.697 85.0715C63.5063 85.1907 63.3633 85.0477 63.2203 84.9524C60.5987 83.2602 58.0008 81.5442 55.3792 79.852C55.1647 79.7567 54.831 79.6614 54.974 79.3039Z" fill="#E74214"/>
<path d="M69.9168 75.9906C69.2256 77.3253 68.7728 78.7553 68.1769 80.1376C67.9148 80.7573 67.7956 81.4484 67.3189 81.9966C67.0329 81.7106 66.7469 81.4246 66.4609 81.1386C67.2236 79.5895 67.7718 77.9211 68.4629 76.3481C68.5821 76.0859 68.6298 75.7285 69.0826 75.8953C69.3448 75.8715 69.6546 75.8476 69.9168 75.9906Z" fill="#E74214"/>
<path d="M61.0988 109.286C61.1703 110.668 61.361 112.051 61.504 113.457C61.647 114.649 61.7185 115.84 61.8615 117.032C61.9806 118.271 62.1475 119.487 62.2666 120.702C62.362 121.608 62.4335 122.49 62.505 123.395C62.362 123.395 62.1951 123.419 62.076 123.324C61.6946 122.728 61.79 122.013 61.7185 121.346C61.3133 117.604 60.9558 113.838 60.5506 110.096C60.5268 109.834 60.5268 109.548 60.2646 109.381C60.0025 109.381 59.7641 109.358 59.502 109.358C60.0263 109.262 60.5506 109.31 61.0988 109.286Z" fill="#E74214"/>
<path d="M69.0593 75.872C68.7257 75.8243 68.7019 76.0865 68.6065 76.301C68.0107 77.7787 67.4149 79.2563 66.819 80.7578C66.7475 80.9485 66.6999 81.1392 66.4615 81.1392C66.1755 80.9247 65.8895 80.7102 65.6035 80.4957C65.675 80.019 65.9134 79.59 66.104 79.161C66.5569 78.0408 66.962 76.873 67.5102 75.7767C67.5578 75.7528 67.6055 75.7528 67.6532 75.7767C68.1299 75.7767 68.6065 75.729 69.0593 75.872Z" fill="#E74214"/>
<path d="M60.2402 109.405C60.5024 109.358 60.6454 109.429 60.6692 109.763C60.8599 111.789 61.0982 113.791 61.2889 115.817C61.4557 117.39 61.5749 118.986 61.7179 120.559C61.8132 121.489 61.9324 122.418 62.0277 123.348C61.8847 123.324 61.7417 123.324 61.5987 123.3C61.5034 122.347 61.3842 121.394 61.2889 120.464C61.1459 119.225 61.0029 117.962 60.8837 116.722C60.7884 115.674 60.6454 114.601 60.5739 113.552C60.4786 112.146 60.2402 110.788 60.2402 109.405Z" fill="#E74214"/>
<path d="M57.5702 78.6841C57.3081 78.8747 57.4987 78.9462 57.6656 79.0416C59.1909 80.0187 60.7162 81.0197 62.2177 81.9969C63.1949 82.6404 64.1721 83.2601 65.1731 83.9036C65.0539 84.1181 64.8394 84.1896 64.6487 84.3326C64.3389 84.3803 64.1482 84.1896 63.9337 84.0466C61.5981 82.5212 59.2386 80.9959 56.9029 79.4706C56.7122 79.3514 56.3786 79.2561 56.4977 78.8986C56.8314 78.7794 57.1889 78.7079 57.5702 78.6841Z" fill="#E74214"/>
<path d="M58.2142 109.405C58.4287 109.882 58.3572 110.382 58.4049 110.859C58.6671 112.933 58.8577 115.006 59.0484 117.056C59.2152 118.629 59.3582 120.226 59.4774 121.799C59.5012 122.085 59.7634 122.371 59.4774 122.657C59.2391 122.68 59.0246 122.561 58.8339 122.442C58.9531 121.393 58.7386 120.369 58.6432 119.344C58.3334 116.174 57.9997 113.028 57.6899 109.882C57.6661 109.715 57.6422 109.524 57.7852 109.381C57.9282 109.405 58.0712 109.405 58.2142 109.405Z" fill="#E74214"/>
<path d="M88.4597 103.614C87.268 103.828 86.1002 104.043 84.9085 104.281C83.4785 104.543 82.0723 104.853 80.6423 105.115C80.3802 105.163 80.1657 105.234 80.1657 105.568C80.0465 105.33 79.975 105.091 79.9512 104.829C79.975 104.591 80.1657 104.519 80.3563 104.496C83.0257 103.971 85.695 103.447 88.3643 102.923C88.5073 102.899 88.6503 102.851 88.7457 102.994C88.7218 103.209 88.6265 103.423 88.4597 103.614Z" fill="#E74214"/>
<path d="M80.3797 106.426C80.332 106.069 80.5465 105.926 80.8563 105.854C83.0252 105.425 85.194 104.996 87.3867 104.591C87.5535 104.567 87.7442 104.591 87.911 104.567C88.0302 104.949 87.6965 105.116 87.5535 105.378C87.4343 105.521 87.3152 105.688 87.0768 105.688C85.8375 105.807 84.622 106.117 83.4065 106.331C82.6677 106.474 81.9527 106.641 81.2138 106.784C80.9517 106.832 80.7133 106.951 80.475 107.07C80.3797 106.879 80.4035 106.641 80.3797 106.426Z" fill="#E74214"/>
<path d="M85.1223 114.601C83.9545 113.099 82.7867 111.622 81.6427 110.12C81.4997 109.929 81.309 109.739 81.2852 109.477C81.5235 109.143 81.8572 109.095 82.2147 109.095C82.9535 109.858 83.5732 110.74 84.2405 111.574C84.6933 112.122 85.1223 112.694 85.5513 113.266C85.6467 113.409 85.8135 113.528 85.7897 113.719C85.5752 114.076 85.4083 114.386 85.1223 114.601Z" fill="#E74214"/>
<path d="M52.9473 80.0667C53.1856 79.9475 53.4239 79.8045 53.6861 79.7568C53.8291 79.9475 54.0198 80.0667 54.2104 80.1858C56.9274 81.9495 59.6683 83.737 62.3853 85.5007C62.5759 85.6198 62.7904 85.739 62.9096 85.9535C62.7904 86.0965 62.6713 86.2395 62.5521 86.3825C61.1221 85.453 59.6921 84.5473 58.2621 83.6178C56.5699 82.5215 54.9016 81.4252 53.2094 80.3288C53.1141 80.2335 52.9949 80.1858 52.9473 80.0667Z" fill="#E74214"/>
<path d="M57.7863 109.381C57.9532 110.978 58.1438 112.575 58.3107 114.172C58.4775 115.745 58.5967 117.342 58.7397 118.915C58.835 119.916 58.9542 120.917 59.0495 121.918C59.0733 122.108 59.1687 122.371 58.835 122.442C58.7635 122.442 58.6682 122.442 58.6205 122.371C58.406 121.989 58.406 121.56 58.3583 121.131C57.977 117.461 57.6195 113.767 57.2143 110.096C57.1905 109.81 57.119 109.524 57.3335 109.286C57.4765 109.286 57.6195 109.286 57.7625 109.31C57.7863 109.334 57.7863 109.358 57.7863 109.381Z" fill="#E74214"/>
<path d="M78.6627 110.025C78.8533 110.025 79.0202 110.073 79.1393 110.216C80.5932 112.075 82.0708 113.957 83.5247 115.816C83.62 115.936 83.7392 116.055 83.7392 116.245C83.62 116.412 83.5247 116.603 83.3102 116.651C81.618 114.601 79.9735 112.48 78.3528 110.359C78.2337 110.216 78.1145 110.096 77.9238 110.12C78.1622 110.025 78.4005 110.025 78.6627 110.025Z" fill="#E74214"/>
<path d="M82.2157 81.5678C82.0012 81.5678 81.9058 81.7347 81.8343 81.9015C81.0717 83.7843 80.309 85.6672 79.5463 87.5738C79.4987 87.693 79.3318 87.8598 79.5225 88.0028C79.2365 88.2173 78.879 88.2173 78.5453 88.3126C78.1878 88.1696 78.4262 87.9313 78.4977 87.7645C78.9505 86.5967 79.4272 85.4288 79.9038 84.261C80.2852 83.3076 80.6665 82.3543 81.0717 81.401C81.1432 81.2103 81.167 80.972 81.4292 80.9243C81.739 81.0911 82.0012 81.3057 82.2157 81.5678Z" fill="#E74214"/>
<path d="M62.9352 85.9531C62.6015 85.8816 62.3632 85.6194 62.0772 85.4526C59.384 83.7127 56.6908 81.9491 54.0215 80.1854C53.8785 80.0901 53.5448 80.0662 53.7117 79.7326C53.8785 79.6372 54.0453 79.5419 54.2598 79.5181C57.0245 81.4009 59.8607 83.1646 62.6492 85.0236C62.8875 85.1666 63.1735 85.2857 63.2212 85.6194C63.1973 85.7862 63.0543 85.8816 62.9352 85.9531Z" fill="#E74214"/>
<path d="M44.2969 109.381C45.989 109.143 47.6812 108.905 49.3734 108.666C49.6117 108.642 49.8739 108.547 50.0884 108.762C50.0407 109.071 50.0169 109.405 49.9692 109.715C49.8024 109.882 49.5879 109.882 49.3734 109.906C48.0625 110.096 46.7279 110.311 45.417 110.454C45.2025 110.478 44.988 110.501 44.7974 110.358C44.559 110.072 44.416 109.739 44.2969 109.381Z" fill="#E74214"/>
<path d="M65.7932 83.4746C64.3632 82.569 62.9571 81.6395 61.5271 80.7338C60.6214 80.1618 59.7396 79.566 58.8577 78.9701C58.7147 78.8748 58.4764 78.7795 58.7386 78.565C58.7862 78.565 58.8101 78.5411 58.8577 78.5411C59.0961 78.5173 59.3582 78.4458 59.5966 78.565C59.9064 79.0416 60.4307 79.2085 60.8836 79.4945C62.5042 80.567 64.1249 81.6156 65.7456 82.6643C65.9601 82.8073 66.1507 82.9503 66.2699 83.1886C66.1507 83.4031 65.9124 83.3555 65.7932 83.4746Z" fill="#E74214"/>
<path d="M56.499 78.8986C56.5705 79.1608 56.8088 79.2799 56.9995 79.3991C59.4782 81.0198 61.9807 82.6166 64.4593 84.2134C64.507 84.2611 64.5785 84.2849 64.6262 84.3326C64.5547 84.5233 64.3163 84.5233 64.1972 84.6663C63.0293 84.0704 61.9807 83.2601 60.8843 82.5689C59.3352 81.5918 57.786 80.5669 56.2368 79.5659C56.0462 79.4468 55.8555 79.3038 55.7363 79.0893C55.9747 78.9939 56.213 78.8748 56.499 78.8986Z" fill="#E74214"/>
<path d="M45.6563 87.2163C46.7526 88.0743 47.9681 88.7416 49.1121 89.5281C50.5421 90.5053 52.0198 91.4348 53.4975 92.3881C55.0466 93.3891 56.5958 94.3901 58.145 95.415C58.0973 95.5103 58.0496 95.6295 58.002 95.7248C57.7636 95.8678 57.5968 95.6771 57.43 95.558C54.9513 93.9135 52.4726 92.2928 49.9701 90.696C48.5878 89.8141 47.2293 88.9085 45.847 88.0028C45.6563 87.8836 45.4895 87.7883 45.418 87.55C45.4656 87.407 45.5371 87.2878 45.6563 87.2163Z" fill="#E74214"/>
<path d="M79.2354 79.4226C78.6634 79.9708 78.5442 80.7335 78.2582 81.4008C77.3049 83.6888 76.3992 86.0006 75.4459 88.3125C75.3744 88.4793 75.3267 88.6461 75.3505 88.8368C75.136 88.8368 74.9215 88.8368 74.707 88.8368C75.708 86.3581 76.6852 83.8795 77.6862 81.4008C77.9484 80.7811 78.2105 80.1615 78.4489 79.518C78.5204 79.3511 78.6157 79.2081 78.7587 79.1128C78.9255 79.2081 79.0685 79.3035 79.2354 79.4226Z" fill="#E74214"/>
<path d="M90.0555 96.8693C90.0555 97.0123 90.0555 97.1553 90.0555 97.2983C86.5282 97.9894 83.0009 98.6806 79.4735 99.3718C78.9969 99.4671 78.544 99.5624 78.0674 99.6578C77.8767 99.7054 77.6622 99.7293 77.6384 99.9676C77.5192 99.8008 77.3047 99.6816 77.3047 99.4433C77.4239 99.1811 77.686 99.1334 77.9244 99.0858C81.7854 98.3708 85.6464 97.5366 89.5074 96.8216C89.6742 96.7739 89.8649 96.7263 90.0555 96.8693Z" fill="#E74214"/>
<path d="M90.0571 96.8689C86.5298 97.5601 83.0025 98.2513 79.4751 98.9663C78.7363 99.1093 77.9975 99.1331 77.3063 99.4429C77.1871 99.3714 77.1395 99.2523 77.0918 99.1331C77.4493 98.7756 77.9498 98.8471 78.3788 98.7518C82.2636 97.9653 86.1723 97.2026 90.0571 96.4399C90.081 96.4638 90.081 96.5114 90.081 96.5353C90.0571 96.6544 90.0571 96.7498 90.0571 96.8689Z" fill="#E74214"/>
<path d="M45.441 87.5503C47.9674 89.1948 50.4937 90.8631 53.02 92.5076C54.5692 93.5086 56.1184 94.5335 57.6675 95.5345C57.7629 95.606 57.8582 95.7013 58.0012 95.7013C58.025 95.8443 57.9297 95.9158 57.882 96.0111C57.4054 95.7251 56.9287 95.463 56.4759 95.1531C53.5682 93.2703 50.6844 91.3636 47.7767 89.4808C47.1094 89.0518 46.442 88.6228 45.7747 88.17C45.6079 88.0508 45.3695 87.9793 45.3457 87.7171C45.3695 87.6695 45.3934 87.6218 45.441 87.5503Z" fill="#E74214"/>
<path d="M81.4531 80.9246C80.476 83.3079 79.4988 85.6912 78.5216 88.0746C78.474 88.1699 78.474 88.2414 78.5693 88.3129C78.331 88.4559 78.0688 88.4797 77.8066 88.5274C77.8543 87.8124 78.2356 87.2166 78.474 86.5731C79.1651 84.7617 79.904 82.9742 80.619 81.1867C80.7143 80.9722 80.762 80.7339 81.0003 80.6147C81.2148 80.6624 81.334 80.7816 81.4531 80.9246Z" fill="#E74214"/>
<path d="M85.7656 113.743C84.6216 112.289 83.4538 110.835 82.3098 109.381C82.2621 109.333 82.2621 109.238 82.2383 109.19C82.4528 108.904 82.7388 108.833 83.0724 108.809C83.6921 109.357 84.1211 110.072 84.6216 110.692C85.2174 111.431 85.8133 112.146 86.3376 112.932C86.1946 113.242 86.0278 113.528 85.7656 113.743Z" fill="#E74214"/>
<path d="M57.3568 109.286C57.4283 110.645 57.619 112.003 57.762 113.338C57.8811 114.529 57.9765 115.721 58.1195 116.937C58.2386 118.2 58.4055 119.463 58.5246 120.726C58.5723 121.274 58.7153 121.822 58.6438 122.371C58.4055 122.347 58.191 122.275 58.0003 122.132C58.1671 121.584 58.0003 121.036 57.9288 120.488C57.619 117.532 57.333 114.577 57.0231 111.622C56.9516 110.859 56.7371 110.073 56.8801 109.286C56.9755 109.215 57.047 109.215 57.1423 109.262C57.2138 109.286 57.2853 109.286 57.3568 109.286Z" fill="#E74214"/>
<path d="M55.5212 109.048C55.5212 110.525 55.7834 112.003 55.9264 113.481C56.0455 114.696 56.1409 115.912 56.26 117.127C56.3792 118.366 56.546 119.606 56.6652 120.869C56.689 121.083 56.7844 121.322 56.546 121.512H56.4984L56.4507 121.489C56.3315 121.393 56.2362 121.274 56.117 121.179C56.403 120.559 56.0932 119.939 56.0694 119.32C56.0455 118.438 55.9025 117.556 55.8072 116.674C55.6642 115.387 55.5212 114.1 55.402 112.837C55.2829 111.55 55.1637 110.263 55.0684 108.976C55.2352 109 55.3782 109.024 55.5212 109.048Z" fill="#E74214"/>
<path d="M80.5004 107.07C80.5242 106.855 80.6434 106.76 80.8817 106.712C82.8122 106.331 84.7189 105.949 86.6256 105.568C86.8162 105.52 87.0069 105.473 87.1737 105.663C87.2214 105.878 87.1022 106.021 86.9831 106.164C86.7924 106.355 86.6256 106.593 86.2919 106.569C85.6722 106.545 85.1002 106.736 84.5044 106.855C83.4319 107.046 82.3832 107.284 81.3107 107.475C80.9056 107.546 80.7626 107.761 80.7387 108.166C80.7387 108.619 80.8579 109.095 80.5957 109.524C80.5481 109.548 80.5242 109.596 80.4766 109.62C80.5957 108.762 80.5242 107.904 80.5004 107.07Z" fill="#E74214"/>
<path d="M44.7734 110.358C46.2273 110.168 47.7049 109.977 49.1588 109.763C49.4209 109.715 49.6831 109.715 49.9453 109.715C49.9453 110.358 49.9453 111.002 49.9453 111.645C49.7784 111.645 49.7546 111.526 49.7308 111.407C49.6593 110.811 49.6354 110.787 49.0396 110.883C48.0148 111.026 46.9899 111.169 45.9651 111.312C45.7268 111.336 45.4646 111.407 45.2501 111.216C45.0118 110.954 44.8926 110.668 44.7734 110.358Z" fill="#E74214"/>
<path d="M86.3394 112.933C85.7674 112.504 85.4337 111.884 84.9809 111.336C84.3374 110.525 83.6462 109.739 83.0742 108.881C83.2649 108.547 83.5747 108.428 83.9322 108.404C84.9571 109.596 85.9104 110.835 86.8637 112.098C86.7446 112.408 86.5539 112.67 86.3394 112.933Z" fill="#E74214"/>
<path d="M56.9281 109.31C57.0711 110.668 57.2141 112.051 57.3571 113.409C57.5239 114.958 57.6908 116.484 57.8576 118.033C57.9768 119.248 58.0959 120.464 58.2151 121.679C58.2389 121.846 58.3104 122.085 58.0006 122.132C57.9053 122.132 57.8338 122.108 57.7623 122.037C57.5239 119.844 57.3094 117.652 57.0949 115.483C56.9043 113.624 56.7136 111.741 56.4991 109.882C56.4753 109.667 56.4753 109.453 56.6659 109.31C56.7374 109.238 56.8328 109.215 56.9281 109.31Z" fill="#E74214"/>
<path d="M57.2382 121.823C57.1905 120.416 56.976 119.058 56.833 117.676C56.7377 116.865 56.6662 116.055 56.5947 115.245C56.4517 113.934 56.3087 112.623 56.1895 111.312C56.118 110.621 56.118 109.906 55.9512 109.215C56.0942 109.167 56.2372 109.119 56.3802 109.215C56.5708 109.572 56.547 109.977 56.5708 110.359C56.69 111.932 56.8807 113.505 57.0475 115.054C57.2382 116.961 57.405 118.867 57.6672 120.75C57.7148 121.036 57.6672 121.322 57.691 121.608C57.691 121.751 57.691 121.942 57.4527 121.942C57.3573 121.918 57.2858 121.894 57.2382 121.823Z" fill="#E74214"/>
<path d="M86.8632 112.074C86.1244 111.55 85.7192 110.74 85.1472 110.072C84.7182 109.548 84.2415 109.048 83.9317 108.428C84.1462 108.094 84.4084 107.88 84.8135 107.856C85.5285 108.833 86.2912 109.763 87.0539 110.716C87.1969 110.907 87.3875 111.05 87.2922 111.312C87.1969 111.622 87.0539 111.86 86.8632 112.074Z" fill="#E74214"/>
<path d="M61.4088 99.9672C61.3611 99.7765 61.3611 99.6097 61.4088 99.4429C61.671 99.2999 61.814 99.4905 61.957 99.6335C64.102 101.397 67.1765 101.04 68.7971 98.3465C69.1308 97.7984 69.2738 97.131 69.3215 96.4637C69.3453 96.273 69.2261 95.987 69.5598 95.9155C69.7505 96.0109 69.8935 96.1539 70.0126 96.3445C69.8458 96.9642 69.7743 97.6315 69.5121 98.2512C68.9401 99.6097 67.9868 100.492 66.6283 101.016C64.9838 101.659 63.4108 101.421 61.9331 100.492C61.7425 100.325 61.5756 100.158 61.4088 99.9672Z" fill="#E74214"/>
<path d="M58.525 94.4142C58.1675 94.1997 57.7861 94.009 57.4286 93.7707C54.521 91.8879 51.6371 89.9812 48.7295 88.0983C47.9668 87.5978 47.2041 87.0974 46.4653 86.6207C46.37 86.5492 46.2508 86.5015 46.2031 86.3585C46.227 86.3347 46.2508 86.287 46.2746 86.2632C47.2518 86.7399 48.1098 87.3833 49.0155 87.9792C52.09 89.9812 55.1883 91.9832 58.2628 93.9852C58.3581 94.0328 58.4535 94.0567 58.5488 94.1043C58.525 94.1997 58.525 94.295 58.525 94.4142Z" fill="#E74214"/>
<path d="M69.583 95.8918C69.3924 96.4877 69.4162 97.1312 69.2017 97.7508C68.8442 98.9187 68.0339 99.7052 67.0567 100.277C65.3169 101.302 62.9812 100.849 61.7419 99.586C61.6465 99.4907 61.5512 99.4192 61.4082 99.4192C61.4082 99.2523 61.432 99.0617 61.432 98.8948C61.718 98.8472 61.8372 99.0855 62.004 99.2285C62.5999 99.7528 63.2434 100.182 64.0775 100.277C66.723 100.563 68.4152 99.2523 68.9395 96.8928C68.9872 96.6307 68.9872 96.3685 69.011 96.1063C69.0349 95.9395 68.9872 95.7012 69.2732 95.7012C69.4162 95.7012 69.5115 95.7727 69.583 95.8918Z" fill="#E74214"/>
<path d="M70.2265 96.6304C70.4887 96.678 70.5602 96.8925 70.6555 97.0832C70.2027 99.109 69.1302 100.682 67.1758 101.54C65.436 102.303 63.7438 102.184 62.0755 101.326C61.8372 101.206 61.6703 101.04 61.5273 100.825C61.5273 100.396 61.575 100.372 61.9563 100.587C62.5998 100.944 63.2433 101.254 63.9822 101.373C66.7468 101.755 69.3685 100.134 69.9643 97.2262C70.012 97.0117 69.9882 96.7734 70.2265 96.6304Z" fill="#E74214"/>
<path d="M67.6767 75.7764C67.6291 75.7764 67.5814 75.8003 67.5576 75.8003C67.2477 76.0148 66.9141 75.9194 66.5804 75.9433C65.7939 75.9194 65.7939 75.9194 65.5079 76.6583C65.1981 77.4448 64.8882 78.2551 64.5546 79.0416C64.4592 79.2799 64.3877 79.5659 64.0302 79.5421C63.7681 79.4706 63.5059 79.3991 63.2676 79.2323C63.7204 78.0883 64.1494 76.9204 64.6737 75.8003C65.6509 75.6811 66.6519 75.6096 67.6767 75.7764Z" fill="#E74214"/>
<path d="M67.9627 95.0337C68.0819 95.0337 68.201 95.0337 68.2725 95.1529C68.8684 95.9394 68.6777 96.8212 68.344 97.6077C67.1524 100.42 64.0302 100.539 62.2427 99.0377C61.9567 98.7994 61.7422 98.5372 61.623 98.1797C61.6707 98.0367 61.6707 97.846 61.7899 97.7269C62.0759 97.6792 62.1474 97.9175 62.2427 98.0844C63.053 99.1807 64.4592 99.6574 65.7462 99.2522C66.9855 98.8709 67.9389 97.5839 67.9627 96.273C67.9627 96.0347 67.8912 95.8202 67.8435 95.5819C67.8674 95.3912 67.7959 95.2005 67.9627 95.0337Z" fill="#E74214"/>
<path d="M54.973 79.3037C55.0445 79.7327 55.4496 79.8042 55.7356 79.9949C58.0475 81.5202 60.3831 83.0217 62.695 84.5232C63.0286 84.7377 63.3623 84.9284 63.696 85.119C63.6006 85.2144 63.5291 85.3335 63.4338 85.4289C63.267 85.4527 63.124 85.3574 63.0048 85.262C60.3116 83.4745 57.5946 81.7824 54.9253 79.971C54.7346 79.8519 54.4248 79.7804 54.5678 79.4229C54.687 79.3514 54.83 79.3037 54.973 79.3037Z" fill="#E74214"/>
<path d="M87.2912 111.36C87.0528 110.788 86.5523 110.383 86.1948 109.882C85.7897 109.31 85.313 108.786 84.884 108.214C84.8363 108.142 84.8363 108.023 84.8125 107.904C84.9078 107.594 85.1462 107.451 85.456 107.427C86.0757 107.999 86.5285 108.738 87.0767 109.382C87.2435 109.572 87.4103 109.811 87.5772 110.001C87.7202 110.168 87.8393 110.335 87.7202 110.573C87.601 110.859 87.458 111.121 87.2912 111.36Z" fill="#E74214"/>
<path d="M45.2266 111.217C46.4421 111.05 47.6337 110.907 48.8492 110.74C48.8731 110.74 48.9207 110.716 48.9446 110.716C49.8502 110.526 49.8502 110.526 49.8502 111.431C49.7549 111.527 49.6357 111.55 49.5166 111.574C48.3964 111.741 47.2524 111.932 46.1322 112.051C45.9654 112.075 45.8224 112.075 45.6794 111.979C45.4649 111.741 45.3219 111.479 45.2266 111.217Z" fill="#E74214"/>
<path d="M61.957 102.112C61.814 101.969 61.7425 101.802 61.7425 101.612C61.7187 101.373 61.8855 101.421 62.0285 101.397C62.1477 101.421 62.243 101.469 62.3384 101.516C63.7684 102.207 65.246 102.35 66.7475 101.778C66.7952 101.755 66.8429 101.731 66.8905 101.731C67.3434 101.588 67.7724 101.373 68.1537 101.087C69.2262 100.229 70.108 99.2283 70.4655 97.8698C70.5132 97.6792 70.5132 97.417 70.823 97.417C70.8945 97.56 70.966 97.703 71.0375 97.846C70.537 100.229 68.1537 102.327 65.7704 102.613C64.5787 102.756 63.4585 102.613 62.3622 102.184C62.243 102.112 62.1 102.041 61.957 102.112Z" fill="#E74214"/>
<path d="M87.6958 110.573C87.529 109.953 87.0046 109.572 86.6471 109.071C86.2658 108.523 85.8368 107.999 85.4316 107.475C85.527 107.069 85.8606 106.879 86.1943 106.712C86.7901 107.57 87.4336 108.38 88.1248 109.191C88.1725 109.262 88.2201 109.334 88.244 109.429C88.0771 109.81 87.958 110.215 87.6958 110.573Z" fill="#E74214"/>
<path d="M67.9631 95.0336C67.9631 95.6295 68.2014 96.1776 68.1061 96.7973C67.9154 97.9413 66.6761 99.2521 65.5559 99.419C64.0306 99.6811 62.8389 99.1806 62.0286 97.8698C61.9809 97.7983 61.8856 97.7506 61.8379 97.703C61.8856 97.6315 61.9094 97.56 61.9571 97.4885C62.2907 97.3216 62.4099 97.6315 62.5291 97.8221C63.0296 98.4895 63.6969 98.8946 64.5311 98.99C66.1994 99.2045 67.5817 97.7506 67.6056 96.4636C67.6056 96.0823 67.6294 95.6771 67.5102 95.2958C67.4626 95.1528 67.4149 95.0098 67.5341 94.8906C67.7009 94.9145 67.8439 94.9145 67.9631 95.0336Z" fill="#E74214"/>
<path d="M64.6509 75.8001C64.5556 76.5866 64.1504 77.2539 63.8644 77.9689C63.6976 78.3979 63.6499 78.8984 63.2447 79.2083C62.9111 79.1368 62.5774 79.0653 62.2676 78.8984C62.7442 78.2311 62.9349 77.4208 63.2686 76.6819C63.3877 76.4198 63.4354 76.1099 63.6976 75.8954C63.9836 75.8001 64.3172 75.7763 64.6509 75.8001Z" fill="#E74214"/>
<path d="M88.2455 109.405C87.4352 108.595 86.6487 107.784 86.1959 106.736C86.1482 106.545 86.2435 106.497 86.4104 106.497C86.6487 106.426 86.744 106.164 86.9347 106.044C87.5067 106.807 88.1502 107.546 88.6745 108.332C88.603 108.714 88.46 109.071 88.2455 109.405Z" fill="#E74214"/>
<path d="M63.6724 75.8958C63.3387 76.8015 62.9812 77.6833 62.6476 78.589C62.5761 78.7796 62.4569 78.8988 62.2662 78.8988C61.9326 78.8749 61.6227 78.8035 61.2891 78.6843C61.6466 78.017 61.8611 77.302 62.1709 76.6108C62.2901 76.3486 62.3854 76.0626 62.7191 76.015C63.0289 75.9435 63.3387 75.872 63.6724 75.8958Z" fill="#E74214"/>
<path d="M61.957 102.112C62.0285 101.803 62.1954 101.922 62.3622 101.993C64.0544 102.732 65.7942 102.732 67.4625 101.969C68.9164 101.302 70.0127 100.206 70.6324 98.6804C70.7515 98.3944 70.7754 98.0607 71.0375 97.8462C71.1567 98.0369 71.2282 98.2514 71.252 98.4897C71.0852 98.585 71.0375 98.7757 70.966 98.9187C70.0127 101.016 68.392 102.303 66.1279 102.804C65.9134 102.851 65.7227 102.947 65.5082 102.97C64.6979 102.923 63.8637 102.97 63.0772 102.732C62.6959 102.613 62.3145 102.518 62.0047 102.255C62.0047 102.184 61.9809 102.136 61.957 102.112Z" fill="#E74214"/>
<path d="M57.4534 121.918C57.6679 121.632 57.5725 121.298 57.5487 120.988C57.358 118.82 57.1435 116.627 56.9052 114.458C56.7145 112.694 56.4762 110.955 56.3809 109.191C56.4524 109.191 56.5239 109.191 56.5954 109.215C56.643 109.239 56.6669 109.262 56.6907 109.31C56.5239 109.572 56.643 109.811 56.6669 110.073C56.8099 111.288 56.8814 112.504 57.0244 113.719C57.1435 114.959 57.3104 116.222 57.4295 117.461C57.501 118.2 57.5964 118.939 57.644 119.678C57.6917 120.345 57.7394 121.012 57.8585 121.68C57.8824 121.823 57.8824 121.966 57.7394 122.061C57.644 122.037 57.5249 122.013 57.4534 121.918Z" fill="#E74214"/>
<path d="M62.6962 76.0146C62.1957 76.4913 62.1481 77.2063 61.8382 77.7783C61.6714 78.0881 61.7429 78.541 61.2901 78.684C61.0517 78.684 60.8134 78.684 60.5751 78.6601C60.5036 78.5886 60.3606 78.6363 60.2891 78.5171C60.4082 77.7306 60.7896 77.0395 61.0994 76.3245C61.6237 76.1576 62.1719 76.0623 62.6962 76.0146Z" fill="#E74214"/>
<path d="M62.1953 97.0835C62.2668 96.9167 62.3621 96.7737 62.5051 96.6545C62.7911 96.6784 62.7673 96.9405 62.8626 97.1312C63.2678 97.9177 63.9351 98.3944 64.817 98.4182C65.6511 98.4182 66.3185 98.0369 66.7236 97.2742C67.0573 96.6545 67.0335 96.011 66.819 95.3675C66.7475 95.2007 66.5806 95.0339 66.676 94.8194C66.7475 94.7955 66.8428 94.7955 66.9143 94.8432C66.9858 94.8432 67.0335 94.8432 67.105 94.867C67.6055 95.2007 67.6055 95.7489 67.6293 96.2494C67.6531 97.584 66.5806 98.8234 65.2698 99.014C63.9113 99.2047 62.6243 98.3944 62.1953 97.0835Z" fill="#E74214"/>
<path d="M50.2542 113.552C50.3257 113.814 50.3972 114.053 50.4687 114.315C50.3734 114.458 50.2066 114.505 50.0636 114.529C49.3724 114.601 48.6812 114.72 47.9901 114.815C47.8471 114.839 47.7041 114.815 47.5849 114.744C47.3704 114.458 47.1559 114.172 46.9414 113.886C47.9424 113.409 48.9911 113.409 50.0636 113.385C50.1589 113.385 50.2066 113.481 50.2542 113.552Z" fill="#E74214"/>
<path d="M66.6747 94.8429C67.7472 96.3921 66.8177 98.4418 64.9587 98.5609C64.0769 98.6086 63.1712 98.1558 62.6946 97.0833C62.6231 96.9403 62.5754 96.7973 62.5039 96.6543C62.5754 96.5113 62.6707 96.3921 62.8137 96.2968C63.0044 96.3683 63.0282 96.5589 63.0997 96.7258C63.5049 97.7983 64.5536 98.2988 65.4831 97.8936C66.5317 97.4408 66.8892 96.4874 66.4126 95.3911C66.1981 94.8906 66.2219 94.7953 66.6747 94.8429Z" fill="#E74214"/>
<path d="M62.29 101.588C62.1947 101.588 62.1232 101.564 62.0755 101.492C61.9087 101.373 61.6942 101.326 61.5512 101.183C61.5512 101.087 61.5273 100.968 61.5273 100.873C62.576 101.588 63.6962 101.945 64.9593 101.945C67.152 101.921 69.3208 100.42 70.1312 98.3702C70.298 97.965 70.2742 97.4407 70.6555 97.1309C70.7747 97.2024 70.8223 97.3215 70.8462 97.4645C70.6793 97.5599 70.6793 97.7029 70.6317 97.8697C70.298 99.252 69.4162 100.253 68.3913 101.159C68.3437 101.206 68.2483 101.206 68.2007 101.23C67.7955 101.469 67.3665 101.683 66.9137 101.874C65.3168 102.398 63.7915 102.279 62.29 101.588Z" fill="#E74214"/>
<path d="M54.5692 79.4229C54.5692 79.6374 54.736 79.7089 54.9029 79.8042C56.7857 81.0197 58.6924 82.259 60.5752 83.4745C61.5285 84.0942 62.4819 84.7615 63.459 85.405C63.3875 85.4765 63.316 85.548 63.2445 85.6195C61.743 84.4994 60.1462 83.5699 58.597 82.545C57.31 81.687 56.023 80.8529 54.736 80.0187C54.5692 79.8995 54.2832 79.8519 54.2832 79.542C54.3547 79.4944 54.45 79.4705 54.5692 79.4229Z" fill="#E74214"/>
<path d="M45.6543 111.955C47.0605 111.789 48.4428 111.503 49.849 111.407C49.8728 111.479 49.9205 111.55 49.9443 111.622C49.9443 111.765 49.9443 111.908 49.9681 112.051C49.8251 112.218 49.6345 112.241 49.4438 112.289C48.4905 112.432 47.5371 112.551 46.5838 112.694C46.3931 112.718 46.2263 112.718 46.0833 112.599C45.8926 112.432 45.7496 112.218 45.6543 111.955Z" fill="#E74214"/>
<path d="M63.1254 96.011C63.2922 95.8203 63.4829 95.6535 63.7451 95.5582C64.0549 95.6058 63.8881 95.7965 63.8404 95.9395C63.6974 96.5115 63.9834 97.0358 64.5554 97.2503C64.9844 97.4171 65.5564 97.1311 65.7709 96.6545C65.9854 96.1778 65.8424 95.6773 65.3657 95.3675C65.2227 95.2721 64.9367 95.2721 65.0797 94.9861C65.2942 94.9146 65.4849 94.8431 65.7232 94.867C66.4382 95.2721 66.7481 95.9633 66.5336 96.6783C66.2952 97.4886 65.4849 98.0606 64.6746 97.9891C64.5077 97.9653 64.3171 97.9176 64.1502 97.87C63.7689 97.6793 63.5067 97.3933 63.2684 97.0596C63.1731 96.9405 63.1254 96.7737 63.1016 96.6307C63.1016 96.4638 63.1016 96.297 63.1016 96.1063C63.1254 96.0586 63.1254 96.0348 63.1254 96.011Z" fill="#E74214"/>
<path d="M88.6988 108.333C88.0077 107.665 87.3403 106.95 86.959 106.045C87.0305 105.925 87.102 105.782 87.1973 105.663C87.2927 105.544 87.4118 105.449 87.5072 105.33C87.96 105.473 88.103 105.925 88.389 106.235C88.6512 106.521 88.8656 106.855 89.1278 107.141C88.9371 107.522 88.9372 107.975 88.6988 108.333Z" fill="#E74214"/>
<path d="M62.1958 97.0836C62.5056 97.2266 62.5294 97.5841 62.7201 97.8463C63.4113 98.6804 64.2693 99.0618 65.2941 98.8711C66.4143 98.6804 67.2008 97.7748 67.4153 96.7261C67.5583 96.0349 67.4153 95.4391 67.0816 94.8433C67.2246 94.8671 67.3676 94.9148 67.5106 94.9386C67.8204 95.8919 67.8919 96.8214 67.3676 97.7033C66.2951 99.5146 63.7688 99.6814 62.5294 98.0846C62.3626 97.8701 62.2911 97.5364 61.9336 97.5126C61.9813 97.3458 62.0766 97.2028 62.1958 97.0836Z" fill="#E74214"/>
<path d="M65.0804 94.9624C65.0804 95.1292 65.2234 95.1292 65.3425 95.1769C65.8669 95.4152 66.1529 95.9872 66.0099 96.4639C65.8669 96.9644 65.1757 97.5126 64.7705 97.4411C64.2462 97.3696 63.6504 96.7499 63.6027 96.2494C63.5789 95.9872 63.9364 95.8204 63.7457 95.5344C64.1509 95.2484 64.5799 95.0577 65.0804 94.9624Z" fill="#E74214"/>
<path d="M47.5859 114.744C48.5393 114.601 49.5164 114.458 50.4698 114.315C50.5651 114.601 50.6843 114.887 50.7796 115.173C50.7081 115.268 50.6128 115.364 50.4698 115.387C49.7548 115.483 49.0636 115.769 48.3248 115.602C48.0388 115.364 47.8481 115.03 47.5859 114.744Z" fill="#E74214"/>
<path d="M50.2539 113.552C50.1109 113.457 49.9679 113.433 49.8011 113.457C48.8478 113.6 47.8944 113.743 46.9411 113.886C46.7504 113.695 46.5836 113.505 46.4883 113.242C46.5598 113.076 46.7028 113.004 46.8696 112.98C47.8706 112.813 48.8716 112.67 49.8964 112.551C49.9441 112.551 49.9918 112.575 50.0394 112.599C50.1109 112.933 50.1824 113.242 50.2539 113.552Z" fill="#E74214"/>
<path d="M61.6715 98.1558C62.1243 98.6563 62.5772 99.2045 63.2445 99.4905C65.9377 100.658 68.5355 98.847 68.5355 96.0823C68.5355 95.7487 68.2733 95.4865 68.321 95.1528C68.4402 95.2958 68.6785 95.1767 68.7738 95.3673C69.465 98.2273 66.8433 100.825 63.9595 100.134C63.6973 100.062 63.4352 99.991 63.1968 99.8957C63.1492 99.8718 63.1015 99.848 63.0538 99.8242C62.5772 99.4667 62.0528 99.1568 61.6715 98.6563C61.6238 98.5848 61.6 98.5133 61.5762 98.4657C61.5762 98.3703 61.6238 98.2512 61.6715 98.1558Z" fill="#E74214"/>
<path d="M61.5524 98.4658C61.5762 98.4896 61.6239 98.5373 61.6477 98.5611C61.9814 99.1093 62.5295 99.4191 63.03 99.729C65.5325 100.944 68.0589 99.3953 68.6547 97.3695C68.8454 96.726 68.7024 96.0825 68.8215 95.439C69.0122 95.439 69.1552 95.5105 69.2744 95.6535C69.1075 95.7488 69.1552 95.9395 69.1314 96.0825C69.0599 97.9415 68.2495 99.3238 66.5335 100.134C65.9854 100.396 65.4134 100.349 64.8414 100.396C63.8404 100.492 63.03 100.158 62.2912 99.6098C61.9814 99.3953 61.743 99.1093 61.457 98.871C61.4809 98.7518 61.5047 98.6088 61.5524 98.4658Z" fill="#E74214"/>
<path d="M63.2438 96.5355C63.22 96.7024 63.2677 96.8215 63.363 96.9645C63.506 97.322 63.7682 97.5604 64.1018 97.7034C64.7692 97.8702 65.3888 97.894 65.9132 97.3459C66.6043 96.6309 66.6282 95.8205 65.937 95.1055C65.8417 95.0102 65.7702 94.9149 65.6987 94.8195C66.1038 94.7242 66.509 94.6527 66.9142 94.7957C66.8427 94.7957 66.7473 94.8195 66.6758 94.8195C66.2468 94.7957 66.3422 94.9625 66.4852 95.2247C67.081 96.2972 66.7473 97.3697 65.6748 97.9179C64.5547 98.466 63.2677 97.894 62.9102 96.6785C62.8625 96.5355 62.8387 96.4164 62.791 96.2734C62.8625 96.1304 62.9578 96.035 63.1247 95.9635L63.1485 95.9874C63.2677 96.178 63.1247 96.3925 63.2438 96.5355Z" fill="#E74214"/>
<path d="M50.0407 112.599C49.0397 112.933 47.9672 112.933 46.9424 113.123C46.7755 113.147 46.6325 113.171 46.4895 113.242C46.2989 113.052 46.1559 112.837 46.0605 112.599C47.3475 112.408 48.6584 112.241 49.9454 112.051C50.0407 112.241 50.0645 112.408 50.0407 112.599Z" fill="#E74214"/>
<path d="M89.1028 107.141C88.5308 106.974 88.4354 106.355 88.0541 106.021C87.8396 105.83 87.6728 105.568 87.5059 105.33C87.6489 105.091 87.7919 104.829 87.9588 104.591C88.0303 104.519 88.1018 104.448 88.1494 104.376C88.4593 105.044 88.9836 105.52 89.4364 106.092C89.3649 106.45 89.2696 106.807 89.1028 107.141Z" fill="#E74214"/>
<path d="M70.2279 96.6306C70.0372 97.5839 69.8227 98.5373 69.2031 99.3476C68.2736 100.611 67.0342 101.373 65.5089 101.54C64.2457 101.683 63.0064 101.493 61.9101 100.73C61.7432 100.611 61.5287 100.42 61.5287 100.849C61.3857 100.635 61.4334 100.42 61.4334 100.182C61.6002 100.063 61.6956 100.206 61.7909 100.277C62.9587 101.111 64.2696 101.469 65.6757 101.23C67.4632 100.897 68.7741 99.9196 69.5129 98.2036C69.7036 97.7508 69.8227 97.2979 69.8942 96.8213C69.9181 96.6783 69.8227 96.4399 70.1326 96.4399C70.1564 96.5114 70.1802 96.5591 70.2279 96.6306Z" fill="#E74214"/>
<path d="M48.3477 115.602C49.158 115.459 49.9683 115.316 50.8025 115.173C50.9455 115.459 51.0885 115.745 51.2315 116.031C50.5403 116.174 49.873 116.317 49.1818 116.46C48.872 116.222 48.586 115.936 48.3477 115.602Z" fill="#E74214"/>
<path d="M65.6035 102.851C66.0802 102.565 66.6522 102.565 67.1527 102.351C68.8687 101.66 70.1319 100.516 70.8707 98.7995C70.9422 98.6327 70.9183 98.3229 71.2758 98.4659C71.2997 98.6089 71.3473 98.7519 71.3712 98.8949C70.9898 98.9664 70.9899 99.3239 70.8707 99.586C70.3464 100.682 69.5122 101.469 68.5112 102.089C68.4635 102.112 68.3682 102.112 68.2967 102.112C67.82 102.375 67.3433 102.637 66.7952 102.756C66.39 102.851 66.0325 103.113 65.6035 102.851Z" fill="#E74214"/>
<path d="M61.0997 76.3247C61.0759 77.0159 60.6707 77.5879 60.4562 78.2075C60.4085 78.3267 60.3847 78.4459 60.337 78.565C60.1702 78.6604 59.9795 78.6365 59.8127 78.5889C59.7412 78.5889 59.6697 78.5889 59.5982 78.5889C59.3599 78.5889 59.0977 78.565 58.8594 78.565C59.4075 78.565 59.5505 78.1837 59.7174 77.7547C59.8604 77.3495 59.9795 76.9205 60.2655 76.563C60.5277 76.42 60.7899 76.3247 61.0997 76.3247Z" fill="#E74214"/>
<path d="M70.1074 96.4401C69.8452 96.7976 69.9167 97.2504 69.7975 97.6556C69.2732 99.7291 67.1997 101.35 65.0785 101.374C63.7915 101.397 62.6237 101.04 61.6227 100.253C61.575 100.206 61.4797 100.206 61.432 100.182C61.432 100.11 61.432 100.039 61.4082 99.9674C61.8372 100.206 62.2424 100.492 62.6952 100.706C65.1024 101.874 67.9385 100.945 69.2255 98.5851C69.5354 98.0131 69.8214 97.3696 69.7737 96.6784C69.7737 96.4877 69.8214 96.3686 70.012 96.3447C70.0835 96.3447 70.1312 96.3686 70.1074 96.4401Z" fill="#E74214"/>
<path d="M68.8208 95.4625C69.226 96.9402 68.5586 98.4894 67.1525 99.538C66.0085 100.372 64.7691 100.444 63.4583 100.062C63.2915 100.015 63.1723 99.8717 63.0293 99.7764C63.649 99.8717 64.221 100.062 64.8406 100.11C66.3421 100.253 68.2488 98.8707 68.6063 97.1547C68.7255 96.6304 68.7731 96.106 68.654 95.5817C68.6301 95.4864 68.654 95.4149 68.7493 95.3672C68.7731 95.391 68.797 95.4387 68.8208 95.4625Z" fill="#E74214"/>
<path d="M65.6023 102.851C66.0075 102.923 66.3888 102.732 66.7702 102.756C66.0075 103.185 65.1495 103.185 64.3153 103.137C63.6957 103.113 63.0998 102.803 62.4802 102.899C62.2657 102.732 62.0988 102.494 62.0273 102.231C62.5517 102.327 63.0283 102.517 63.5288 102.66C64.22 102.875 64.935 102.637 65.6023 102.851Z" fill="#E74214"/>
<path d="M61.5508 101.159C61.7653 101.207 61.9559 101.278 62.0751 101.469C61.9559 101.469 61.8129 101.445 61.7414 101.588C61.6699 101.445 61.6223 101.302 61.5508 101.159Z" fill="#E74214"/>
<path d="M73.9685 88.7417C73.9685 88.7655 73.9685 88.7894 73.9685 88.837C73.7302 88.8609 73.4918 88.8847 73.2773 88.7655C73.5157 88.7417 73.7302 88.7417 73.9685 88.7417Z" fill="#E74214"/>
<path d="M56.7145 109.286C56.6906 109.262 56.643 109.215 56.6191 109.191C56.8098 109.167 57.0005 109.167 57.1673 109.262C57.0958 109.262 57.0005 109.286 56.929 109.286C56.8575 109.286 56.786 109.286 56.7145 109.286Z" fill="#E74214"/>
<path d="M66.7949 102.756C67.2954 102.517 67.7721 102.255 68.2964 102.112C67.8674 102.494 67.3908 102.78 66.7949 102.756Z" fill="#E74214"/>
<path d="M66.4609 75.7764C66.8184 75.7764 67.1759 75.7764 67.5334 75.7764C67.2235 76.825 66.7469 77.826 66.3417 78.827C66.1272 79.3752 65.9842 79.971 65.6029 80.4477C65.3407 80.2809 65.1024 80.114 64.8402 79.9472C64.7449 79.8042 64.7925 79.685 64.8402 79.542C65.293 78.3742 65.7697 77.2064 66.2464 76.0385C66.294 75.967 66.3655 75.8717 66.4609 75.7764Z" fill="#E74214"/>
<path d="M66.4611 75.7766C65.9606 77.0636 65.4363 78.3745 64.9358 79.6615C64.8881 79.7568 64.8643 79.8521 64.8404 79.9713C64.5306 79.8521 64.2446 79.733 63.9824 79.5185C64.1493 79.4231 64.2446 79.304 64.3161 79.1371C64.6498 78.2553 65.0549 77.3973 65.3648 76.5155C65.5554 75.9196 65.8414 75.6575 66.4611 75.7766Z" fill="#E74214"/>
<path d="M59.8125 78.5888C59.9793 78.5888 60.17 78.5649 60.3368 78.5649C60.4083 78.5888 60.4798 78.6364 60.5752 78.6603C60.3368 78.6364 60.0508 78.7556 59.8125 78.5888Z" fill="#E74214"/>
<path d="M86.4091 106.498C86.3376 106.569 86.2661 106.641 86.1946 106.736C85.9324 106.974 85.6941 107.237 85.4319 107.475C85.2174 107.618 85.0029 107.785 84.7884 107.928C84.5024 108.095 84.2164 108.285 83.9304 108.452C83.6444 108.595 83.3584 108.738 83.0724 108.881C82.7864 109 82.5004 109.096 82.2144 109.215C81.8807 109.31 81.5709 109.429 81.2372 109.525C81.0227 109.525 80.8082 109.525 80.5938 109.525C80.5938 108.976 80.5938 108.428 80.5938 107.856C80.5938 107.57 80.7129 107.427 80.9751 107.38C82.5719 107.07 84.1687 106.736 85.7656 106.426C85.9801 106.379 86.2184 106.331 86.4091 106.498Z" fill="#E74214"/>
<path d="M62.291 101.588C62.863 101.683 63.3873 101.945 63.9832 102.041C64.8888 102.208 65.7468 102.041 66.6048 101.85C66.7002 101.826 66.8193 101.826 66.9147 101.802C66.1758 102.231 65.3417 102.351 64.5313 102.255C63.7448 102.136 62.9345 102.088 62.291 101.588Z" fill="#E74214"/>
<path d="M66.8906 101.803C67.2958 101.541 67.701 101.278 68.1776 101.159C67.8201 101.517 67.3911 101.707 66.8906 101.803Z" fill="#E74214"/>
<path d="M64.1021 97.7266C63.6731 97.6551 63.4348 97.393 63.3633 96.9878C63.6016 97.2261 63.8638 97.4645 64.1021 97.7266Z" fill="#E74214"/>
<path d="M63.2434 96.5351C63.0765 96.3921 63.148 96.2014 63.148 96.0107C63.3149 96.1776 63.2195 96.3682 63.2434 96.5351Z" fill="#E74214"/>
<path d="M64.1016 96.2014C64.1016 95.8439 64.5306 95.4626 64.8881 95.4864C65.2217 95.5102 65.6031 95.8916 65.6031 96.2252C65.6031 96.5827 65.1979 96.9879 64.8404 96.9641C64.4829 96.9641 64.1016 96.5589 64.1016 96.2014Z" fill="#E74214"/>
<path d="M63.0288 99.7528C62.4568 99.4906 61.861 99.2523 61.6465 98.585C62.0993 98.9663 62.576 99.3715 63.0288 99.7528Z" fill="#E74214"/>
<path d="M105.241 93.0756C106.885 93.0756 108.083 93.4331 108.834 94.1481C109.596 94.8512 109.978 95.8224 109.978 97.0618C109.978 97.8006 109.823 98.4977 109.513 99.1531C109.203 99.7966 108.685 100.315 107.958 100.708C107.243 101.102 106.266 101.298 105.026 101.298H103.865V105.838H101.165V93.0756H105.241ZM105.098 95.2921H103.865V99.0816H104.758C105.521 99.0816 106.123 98.9327 106.564 98.6348C107.016 98.3249 107.243 97.8304 107.243 97.1511C107.243 95.9118 106.528 95.2921 105.098 95.2921ZM123.973 99.4391C123.973 100.762 123.752 101.918 123.311 102.907C122.882 103.884 122.221 104.647 121.327 105.195C120.433 105.743 119.289 106.017 117.895 106.017C116.513 106.017 115.369 105.743 114.463 105.195C113.569 104.647 112.902 103.878 112.461 102.889C112.032 101.9 111.818 100.744 111.818 99.4213C111.818 98.0985 112.032 96.9485 112.461 95.9714C112.902 94.9942 113.569 94.2375 114.463 93.7013C115.369 93.1531 116.519 92.879 117.913 92.879C119.295 92.879 120.433 93.1531 121.327 93.7013C122.221 94.2375 122.882 95.0002 123.311 95.9893C123.752 96.9664 123.973 98.1164 123.973 99.4391ZM114.66 99.4391C114.66 100.774 114.916 101.828 115.428 102.603C115.941 103.366 116.763 103.747 117.895 103.747C119.051 103.747 119.879 103.366 120.38 102.603C120.88 101.828 121.131 100.774 121.131 99.4391C121.131 98.0925 120.88 97.0379 120.38 96.2753C119.879 95.5126 119.057 95.1313 117.913 95.1313C116.769 95.1313 115.941 95.5126 115.428 96.2753C114.916 97.0379 114.66 98.0925 114.66 99.4391ZM132.032 95.1491C130.996 95.1491 130.203 95.5364 129.655 96.311C129.107 97.0856 128.833 98.1462 128.833 99.4928C128.833 100.851 129.083 101.906 129.584 102.657C130.096 103.395 130.912 103.765 132.032 103.765C132.557 103.765 133.075 103.705 133.588 103.586C134.112 103.467 134.678 103.3 135.286 103.086V105.356C134.726 105.582 134.171 105.749 133.623 105.856C133.075 105.964 132.461 106.017 131.782 106.017C130.471 106.017 129.387 105.749 128.529 105.213C127.683 104.665 127.057 103.902 126.652 102.925C126.247 101.936 126.044 100.786 126.044 99.4749C126.044 98.1879 126.277 97.0498 126.741 96.0608C127.206 95.0717 127.879 94.2971 128.761 93.737C129.655 93.1769 130.745 92.8969 132.032 92.8969C132.664 92.8969 133.296 92.9803 133.927 93.1471C134.571 93.302 135.184 93.5165 135.768 93.7906L134.892 95.9893C134.416 95.7628 133.933 95.5662 133.445 95.3994C132.968 95.2325 132.497 95.1491 132.032 95.1491ZM146.131 105.838L144.594 101.888H139.535L138.016 105.838H136.389L141.376 93.022H142.824L147.793 105.838H146.131ZM142.681 96.597C142.645 96.5017 142.586 96.3289 142.502 96.0786C142.419 95.8284 142.335 95.5722 142.252 95.31C142.18 95.0359 142.121 94.8274 142.073 94.6844C141.99 95.0538 141.894 95.4173 141.787 95.7748C141.68 96.1203 141.591 96.3944 141.519 96.597L140.071 100.458H144.111L142.681 96.597ZM152.322 105.838H150.713V94.4878H146.727V93.0756H156.29V94.4878H152.322V105.838ZM169.002 99.4391C169.002 100.762 168.775 101.918 168.322 102.907C167.882 103.884 167.226 104.647 166.356 105.195C165.486 105.743 164.408 106.017 163.121 106.017C161.798 106.017 160.696 105.743 159.814 105.195C158.944 104.647 158.295 103.878 157.866 102.889C157.437 101.9 157.222 100.744 157.222 99.4213C157.222 98.1104 157.437 96.9664 157.866 95.9893C158.295 95.0121 158.944 94.2494 159.814 93.7013C160.696 93.1531 161.804 92.879 163.139 92.879C164.414 92.879 165.486 93.1531 166.356 93.7013C167.226 94.2375 167.882 95.0002 168.322 95.9893C168.775 96.9664 169.002 98.1164 169.002 99.4391ZM158.92 99.4391C158.92 101.048 159.26 102.317 159.939 103.247C160.618 104.164 161.679 104.623 163.121 104.623C164.575 104.623 165.635 104.164 166.303 103.247C166.97 102.317 167.304 101.048 167.304 99.4391C167.304 97.8304 166.97 96.5732 166.303 95.6675C165.635 94.7499 164.581 94.2911 163.139 94.2911C161.697 94.2911 160.63 94.7499 159.939 95.6675C159.26 96.5732 158.92 97.8304 158.92 99.4391ZM177.461 105.838L173.26 94.6486H173.189C173.225 95.018 173.254 95.5185 173.278 96.1501C173.302 96.7698 173.314 97.4193 173.314 98.0985V105.838H171.83V93.0756H174.208L178.14 103.533H178.212L182.216 93.0756H184.575V105.838H182.984V97.9913C182.984 97.3716 182.996 96.7579 183.02 96.1501C183.056 95.5424 183.086 95.0478 183.11 94.6665H183.038L178.784 105.838H177.461Z" fill="#E74214"/>
</svg>
