<svg width="228" height="200" viewBox="0 0 228 200" fill="none" xmlns="http://www.w3.org/2000/svg">
<rect x="0.5" y="0.5" width="227" height="199" stroke="#424242"/>
<g clip-path="url(#clip0_1_492)">
<path fill-rule="evenodd" clip-rule="evenodd" d="M51.6575 115.84H51.6806L67.3497 100.126L51.669 84.4004L36 100.115V100.138L51.6575 115.84Z" fill="#E74214"/>
<path d="M54.8973 98.1609H47.1976V92.4209H45.9082V107.832H47.1976V99.4606H54.8973V98.1609Z" fill="#E74214"/>
<path d="M43.4961 94.8418H44.7925V105.413H43.4961V94.8418Z" fill="#E74214"/>
<path d="M41.0938 97.3027H42.3835V102.995H41.0938V97.3027Z" fill="#E74214"/>
<path d="M56.1402 100.754H48.4023V102.047H56.1402V107.832H57.4299V92.4209H56.1402V100.754Z" fill="#E74214"/>
<path d="M58.5449 94.8418H59.8413V105.413H58.5449V94.8418Z" fill="#E74214"/>
<path d="M60.9551 97.3027H62.2448V102.995H60.9551V97.3027Z" fill="#E74214"/>
<path d="M80.4984 91.1504V97.806H77.7022V91.1504H73.2461V108.934H77.7022V102.278H80.4984V108.934H84.955V91.1504H80.4984Z" fill="#E74214"/>
<path d="M93.5361 97.8067H90.7381V97.027C90.7381 96.2519 91.3649 95.6234 92.138 95.6234C92.9109 95.6234 93.5376 96.2519 93.5376 97.027H93.5361V97.8067ZM92.137 91.1562C88.9041 91.1562 86.2832 93.7846 86.2832 97.027V108.936H90.7381V102.279H93.5361V108.936H97.9909V97.027C97.9909 93.7846 95.3701 91.1562 92.137 91.1562Z" fill="#E74214"/>
<path d="M111.015 91.1504V91.1521L107.395 97.4407L103.773 91.1504L103.772 91.1514V91.1504H99.3184V108.934H103.772V100.105L107.145 105.965C107.145 105.965 107.223 106.113 107.395 106.113C107.566 106.113 107.639 105.973 107.639 105.973L111.015 100.11V108.934H115.481V91.1504H111.015Z" fill="#E74214"/>
<path d="M128.505 91.1543V91.1558L124.885 97.4445L121.264 91.1543L121.262 91.1552V91.1543H116.809V108.938H121.262V100.109L124.635 105.968C124.635 105.968 124.714 106.117 124.885 106.117C125.056 106.117 125.13 105.977 125.13 105.977L128.505 100.113V108.938H132.971V91.1543H128.505Z" fill="#E74214"/>
<path d="M144.555 95.6226V91.1504H134.4V108.934H144.555V104.462H138.857V102.278H144.555V97.806H138.857V95.6226H144.555Z" fill="#E74214"/>
<path d="M150.337 95.6226H151.58C152.782 95.6226 153.756 96.5999 153.756 97.8052C153.756 99.0107 152.782 99.9879 151.58 99.9879H150.337V95.6226ZM154.962 103.467C156.85 102.294 158.108 100.198 158.108 97.8066C158.108 94.1306 155.137 91.1504 151.471 91.1504H145.881V108.934H150.337V104.363L152.963 108.934L158.108 108.936L154.964 103.467L154.962 103.467Z" fill="#E74214"/>
<path d="M174.768 95.6226V91.1504H164.613V108.934H169.07V102.278H174.768V97.806H169.07V95.6226H174.768Z" fill="#E74214"/>
<path d="M176.201 91.1504H180.657V108.934H176.201V91.1504Z" fill="#E74214"/>
<path d="M181.982 91.1504V95.6226H184.881V108.934H189.337V95.6226H192.239V91.1504H181.982Z" fill="#E74214"/>
<path d="M76.3282 113.062C76.2986 112.947 76.2582 112.842 76.2067 112.746C76.155 112.65 76.0888 112.567 76.0079 112.497C75.9268 112.427 75.832 112.373 75.7233 112.334C75.6148 112.295 75.4888 112.276 75.3452 112.276C75.1357 112.276 74.9542 112.318 74.8014 112.403C74.6487 112.488 74.5245 112.601 74.4288 112.743C74.333 112.886 74.2622 113.047 74.2161 113.228C74.1701 113.409 74.1472 113.593 74.1472 113.781C74.1472 113.97 74.1701 114.155 74.2161 114.335C74.2622 114.516 74.333 114.678 74.4288 114.82C74.5245 114.962 74.6487 115.075 74.8014 115.16C74.9542 115.245 75.1357 115.288 75.3452 115.288C75.4999 115.288 75.6359 115.261 75.7538 115.207C75.8717 115.154 75.9728 115.08 76.0577 114.986C76.1425 114.892 76.2084 114.782 76.2564 114.656C76.3041 114.531 76.3353 114.396 76.3503 114.252H77.0239C77.009 114.489 76.9584 114.704 76.872 114.9C76.7856 115.096 76.6687 115.265 76.5214 115.407C76.3741 115.549 76.2013 115.659 76.0023 115.736C75.8665 115.789 75.7214 115.824 75.5667 115.841H75.1156C74.9118 115.819 74.7242 115.769 74.5528 115.689C74.3191 115.58 74.1213 115.432 73.9595 115.244C73.7973 115.055 73.6731 114.836 73.5865 114.585C73.5 114.334 73.457 114.066 73.457 113.781C73.457 113.501 73.5 113.235 73.5865 112.984C73.6731 112.733 73.7973 112.514 73.9595 112.325C74.1213 112.137 74.3191 111.988 74.5528 111.877C74.7867 111.766 75.0509 111.711 75.3452 111.711C75.566 111.711 75.7741 111.741 75.9692 111.802C76.1643 111.863 76.3365 111.952 76.4856 112.068C76.6345 112.184 76.7552 112.325 76.8471 112.492C76.9392 112.658 76.9962 112.848 77.0184 113.062H76.3282Z" fill="#E74214"/>
<path d="M80.7461 111.805H83.5841V112.403H81.4362V113.438H83.424V114.003H81.4362V115.16H83.6229V115.758H80.7461V111.805Z" fill="#E74214"/>
<path d="M86.9395 111.805H90.1311V112.403H88.8776V115.758H88.1875V112.403H86.9395V111.805Z" fill="#E74214"/>
<path d="M94.3718 115.193H95.3933C95.4853 115.193 95.5717 115.184 95.6529 115.165C95.7337 115.147 95.8056 115.113 95.8681 115.063C95.9307 115.013 95.9804 114.946 96.0173 114.861C96.054 114.776 96.0725 114.669 96.0725 114.54C96.0725 114.414 96.0513 114.31 96.0089 114.227C95.9665 114.144 95.9116 114.078 95.8432 114.028C95.7752 113.978 95.7007 113.942 95.6198 113.92C95.5386 113.898 95.4595 113.887 95.3823 113.887H94.3718V115.193ZM93.6816 111.805H94.3718V113.322H95.421C95.7007 113.322 95.929 113.361 96.1057 113.441C96.2825 113.52 96.4185 113.621 96.5143 113.743C96.6099 113.864 96.6753 113.996 96.7103 114.138C96.7452 114.281 96.7628 114.413 96.7628 114.534C96.7628 114.656 96.7452 114.789 96.7103 114.933C96.6753 115.077 96.6099 115.21 96.5143 115.332C96.4185 115.453 96.2825 115.555 96.1057 115.636C95.929 115.717 95.7007 115.758 95.421 115.758H93.6816V111.805Z" fill="#E74214"/>
<path d="M107.945 113.721C107.945 113.588 107.929 113.463 107.898 113.347C107.867 113.23 107.817 113.127 107.749 113.037C107.68 112.946 107.59 112.871 107.478 112.81C107.366 112.749 107.229 112.707 107.067 112.685V114.751C107.229 114.728 107.366 114.687 107.478 114.626C107.59 114.565 107.68 114.489 107.749 114.399C107.817 114.309 107.867 114.206 107.898 114.092C107.929 113.977 107.945 113.853 107.945 113.721ZM105.504 113.721C105.504 113.853 105.519 113.977 105.548 114.092C105.578 114.206 105.627 114.309 105.698 114.399C105.768 114.489 105.858 114.565 105.968 114.626C106.079 114.687 106.215 114.728 106.377 114.751V112.691C106.215 112.713 106.079 112.754 105.968 112.815C105.858 112.876 105.768 112.952 105.698 113.042C105.627 113.133 105.578 113.235 105.548 113.35C105.519 113.464 105.504 113.588 105.504 113.721ZM106.377 115.304C106.122 115.282 105.9 115.226 105.708 115.138C105.517 115.05 105.356 114.936 105.225 114.797C105.094 114.659 104.997 114.498 104.933 114.316C104.868 114.133 104.836 113.935 104.836 113.721C104.836 113.506 104.867 113.307 104.927 113.122C104.988 112.938 105.082 112.776 105.209 112.638C105.336 112.5 105.496 112.387 105.689 112.3C105.882 112.214 106.112 112.159 106.377 112.137V111.639H107.067V112.137C107.332 112.159 107.561 112.214 107.754 112.3C107.948 112.387 108.108 112.5 108.234 112.638C108.362 112.776 108.456 112.938 108.519 113.122C108.581 113.307 108.613 113.506 108.613 113.721C108.613 113.935 108.58 114.133 108.513 114.316C108.447 114.498 108.35 114.659 108.221 114.797C108.092 114.936 107.931 115.05 107.738 115.138C107.544 115.226 107.321 115.282 107.067 115.304V115.758H106.377V115.304Z" fill="#E74214"/>
<path d="M112.279 111.805H112.969V114.75L114.643 111.805H115.454V115.758H114.764V112.79L113.069 115.758H112.279V111.805Z" fill="#E74214"/>
<path d="M118.998 111.805H122.19V112.403H120.936V115.758H120.246V112.403H118.998V111.805Z" fill="#E74214"/>
<path d="M125.725 111.805H126.415V113.377H128.209V111.805H128.899V115.758H128.209V113.975H126.415V115.758H125.725V111.805Z" fill="#E74214"/>
<path d="M132.818 111.805H135.656V112.403H133.509V113.438H135.496V114.003H133.509V115.16H135.695V115.758H132.818V111.805Z" fill="#E74214"/>
<path d="M142.051 113.062C142.021 112.947 141.981 112.842 141.929 112.746C141.878 112.65 141.812 112.567 141.731 112.497C141.65 112.427 141.555 112.373 141.446 112.334C141.337 112.295 141.212 112.276 141.068 112.276C140.858 112.276 140.677 112.318 140.524 112.403C140.371 112.488 140.247 112.601 140.152 112.743C140.056 112.886 139.985 113.047 139.939 113.228C139.893 113.409 139.87 113.593 139.87 113.781C139.87 113.97 139.893 114.155 139.939 114.335C139.985 114.516 140.056 114.678 140.152 114.82C140.247 114.962 140.371 115.075 140.524 115.16C140.677 115.245 140.858 115.288 141.068 115.288C141.223 115.288 141.359 115.261 141.477 115.207C141.595 115.154 141.696 115.08 141.78 114.986C141.865 114.892 141.931 114.782 141.979 114.656C142.027 114.531 142.058 114.396 142.073 114.252H142.747C142.732 114.489 142.681 114.704 142.595 114.9C142.508 115.096 142.392 115.265 142.244 115.407C142.097 115.549 141.924 115.659 141.725 115.736C141.589 115.789 141.444 115.824 141.289 115.841H140.838C140.635 115.819 140.447 115.769 140.276 115.689C140.042 115.58 139.844 115.432 139.682 115.244C139.52 115.055 139.396 114.836 139.309 114.585C139.223 114.334 139.18 114.066 139.18 113.781C139.18 113.501 139.223 113.235 139.309 112.984C139.396 112.733 139.52 112.514 139.682 112.325C139.844 112.137 140.042 111.988 140.276 111.877C140.51 111.766 140.774 111.711 141.068 111.711C141.289 111.711 141.497 111.741 141.692 111.802C141.887 111.863 142.059 111.952 142.208 112.068C142.357 112.184 142.478 112.325 142.57 112.492C142.662 112.658 142.719 112.848 142.741 113.062H142.051Z" fill="#E74214"/>
<path d="M146.318 113.953H147.925V114.551H146.318V113.953Z" fill="#E74214"/>
<path d="M151.707 111.805H152.397V113.604L154.153 111.805H155.004L153.43 113.383L155.114 115.758H154.253L152.961 113.87L152.397 114.429V115.758H151.707V111.805Z" fill="#E74214"/>
<path d="M158.39 115.182C158.486 115.182 158.568 115.162 158.636 115.121C158.704 115.081 158.762 115.023 158.81 114.947C158.858 114.871 158.895 114.783 158.923 114.681C158.951 114.58 158.974 114.468 158.992 114.346C159.007 114.224 159.021 114.113 159.034 114.011C159.047 113.909 159.056 113.808 159.064 113.707C159.072 113.605 159.078 113.498 159.083 113.385C159.089 113.273 159.092 113.143 159.094 112.995C159.096 112.847 159.098 112.678 159.1 112.486C159.102 112.294 159.103 112.067 159.103 111.805H161.819V115.758H161.129V112.403H159.749C159.741 112.646 159.737 112.862 159.735 113.05C159.733 113.238 159.729 113.413 159.724 113.574C159.718 113.734 159.708 113.889 159.693 114.039C159.679 114.188 159.657 114.35 159.627 114.523C159.609 114.638 159.579 114.768 159.539 114.914C159.499 115.059 159.435 115.196 159.348 115.323C159.262 115.451 159.149 115.559 159.009 115.647C158.869 115.736 158.69 115.78 158.473 115.78C158.403 115.78 158.345 115.778 158.299 115.775C158.253 115.771 158.208 115.765 158.164 115.758V115.16C158.208 115.167 158.247 115.173 158.28 115.177C158.313 115.18 158.35 115.182 158.39 115.182Z" fill="#E74214"/>
<path d="M165.926 115.182C166.066 115.182 166.197 115.139 166.318 115.052C166.439 114.965 166.53 114.848 166.589 114.701L165.291 111.805H166.114L167.014 114.014H167.025L167.941 111.805H168.714L167.411 114.706C167.242 115.086 167.04 115.36 166.807 115.528C166.573 115.696 166.307 115.78 166.009 115.78C165.939 115.78 165.881 115.778 165.835 115.775C165.789 115.771 165.744 115.765 165.699 115.758V115.16C165.744 115.167 165.782 115.173 165.815 115.177C165.849 115.18 165.885 115.182 165.926 115.182Z" fill="#E74214"/>
<path d="M172.889 115.193H173.911C174.003 115.193 174.089 115.184 174.17 115.165C174.251 115.147 174.323 115.113 174.385 115.063C174.448 115.013 174.498 114.946 174.535 114.861C174.571 114.776 174.59 114.669 174.59 114.54C174.59 114.414 174.569 114.31 174.526 114.227C174.484 114.144 174.429 114.078 174.361 114.028C174.292 113.978 174.218 113.942 174.137 113.92C174.056 113.898 173.977 113.887 173.9 113.887H172.889V115.193ZM172.199 111.805H174.921V112.403H172.889V113.322H173.939C174.218 113.322 174.446 113.361 174.623 113.441C174.8 113.52 174.936 113.621 175.032 113.743C175.127 113.864 175.193 113.996 175.228 114.138C175.263 114.281 175.28 114.413 175.28 114.534C175.28 114.656 175.263 114.789 175.228 114.933C175.193 115.077 175.127 115.21 175.032 115.332C174.936 115.453 174.8 115.555 174.623 115.636C174.446 115.717 174.218 115.758 173.939 115.758H172.199V111.805Z" fill="#E74214"/>
<path d="M180.652 112.276C180.442 112.276 180.261 112.318 180.108 112.403C179.956 112.488 179.831 112.601 179.735 112.743C179.64 112.886 179.569 113.047 179.523 113.228C179.477 113.409 179.454 113.593 179.454 113.781C179.454 113.97 179.477 114.155 179.523 114.335C179.569 114.516 179.64 114.678 179.735 114.82C179.831 114.962 179.956 115.075 180.108 115.16C180.261 115.245 180.442 115.288 180.652 115.288C180.862 115.288 181.043 115.245 181.196 115.16C181.349 115.075 181.473 114.962 181.569 114.82C181.664 114.678 181.735 114.516 181.781 114.335C181.827 114.155 181.85 113.97 181.85 113.781C181.85 113.593 181.827 113.409 181.781 113.228C181.735 113.047 181.664 112.886 181.569 112.743C181.473 112.601 181.349 112.488 181.196 112.403C181.043 112.318 180.862 112.276 180.652 112.276ZM180.882 115.841H180.422C180.218 115.819 180.031 115.769 179.859 115.689C179.626 115.58 179.428 115.432 179.266 115.244C179.104 115.055 178.98 114.836 178.893 114.585C178.807 114.334 178.764 114.066 178.764 113.781C178.764 113.501 178.807 113.235 178.893 112.984C178.98 112.733 179.104 112.514 179.266 112.325C179.428 112.137 179.626 111.988 179.859 111.877C180.093 111.766 180.357 111.711 180.652 111.711C180.946 111.711 181.211 111.766 181.444 111.877C181.678 111.988 181.876 112.137 182.038 112.325C182.2 112.514 182.324 112.733 182.41 112.984C182.497 113.235 182.54 113.501 182.54 113.781C182.54 114.066 182.497 114.334 182.41 114.585C182.324 114.836 182.2 115.055 182.038 115.244C181.876 115.432 181.678 115.58 181.444 115.689C181.273 115.769 181.085 115.819 180.882 115.841Z" fill="#E74214"/>
<path d="M186.952 115.193H188.172C188.382 115.193 188.544 115.139 188.661 115.03C188.777 114.921 188.834 114.767 188.834 114.568C188.834 114.372 188.777 114.222 188.661 114.116C188.544 114.011 188.382 113.959 188.172 113.959H186.952V115.193ZM186.952 113.46H188.078C188.244 113.46 188.382 113.413 188.492 113.319C188.603 113.225 188.658 113.089 188.658 112.912C188.658 112.712 188.608 112.573 188.509 112.491C188.409 112.41 188.266 112.369 188.078 112.369H186.952V113.46ZM186.262 111.805H188.177C188.531 111.805 188.814 111.886 189.028 112.048C189.241 112.211 189.348 112.456 189.348 112.785C189.348 112.984 189.299 113.155 189.201 113.297C189.104 113.439 188.965 113.549 188.785 113.626V113.637C189.028 113.689 189.212 113.804 189.337 113.983C189.462 114.162 189.525 114.386 189.525 114.656C189.525 114.811 189.497 114.956 189.442 115.091C189.387 115.226 189.3 115.342 189.182 115.439C189.064 115.538 188.914 115.615 188.73 115.672C188.546 115.729 188.326 115.758 188.073 115.758H186.262V111.805Z" fill="#E74214"/>
</g>
<defs>
<clipPath id="clip0_1_492">
<rect width="156.24" height="31.44" fill="white" transform="translate(36 84.4004)"/>
</clipPath>
</defs>
</svg>
