<svg width="230" height="200" viewBox="0 0 230 200" fill="none" xmlns="http://www.w3.org/2000/svg">
<rect x="0.5" y="0.5" width="229" height="199" stroke="#424242"/>
<path d="M56.603 93.9409C58.3307 90.4874 60.0904 87.0339 61.7861 83.5484C62.106 82.9408 62.4259 82.685 63.1298 82.717C65.4974 82.781 67.865 82.749 70.2325 82.717C70.8724 82.717 71.0964 82.8449 71.0964 83.5164C71.0644 86.906 71.0644 90.2956 71.0964 93.6531C71.0964 94.3566 70.8724 94.5485 70.2005 94.5485C65.9453 94.5165 61.7221 94.5485 57.4668 94.5165C56.539 94.5165 56.379 94.7723 56.379 95.6357C56.411 102.767 56.379 109.865 56.411 116.996C56.411 117.828 56.1871 118.116 55.3552 118.052C54.3314 117.988 53.3076 117.956 52.2838 118.052C51.3559 118.116 51.1959 117.764 51.1959 116.9C51.2279 107.691 51.2279 98.5136 51.2279 89.3043C51.2279 87.8973 51.2279 87.8973 49.7882 87.8973C44.5731 87.8973 39.3901 87.8973 34.175 87.8973C33.3111 87.8973 33.0872 87.7694 33.5671 86.938C34.207 85.7868 34.8149 84.5717 35.3588 83.3565C35.5827 82.8769 35.8707 82.717 36.4146 82.717C42.7814 82.749 49.1483 82.749 55.5152 82.717C56.315 82.717 56.411 83.0048 56.411 83.7083C56.379 87.1298 56.411 90.5194 56.411 93.9409C56.475 93.9409 56.539 93.9409 56.603 93.9409Z" fill="#E74214"/>
<path d="M29.7598 94.5485C30.6236 92.8217 31.4235 91.2549 32.1913 89.688C32.3833 89.2723 32.7032 89.2723 33.0552 89.2723C38.3662 89.2723 43.6773 89.2723 48.9883 89.2723C49.6602 89.2723 49.7882 89.4961 49.7882 90.1357C49.7562 99.1532 49.7562 108.171 49.7882 117.188C49.7882 117.924 49.5002 118.084 48.8603 118.052C47.7725 118.02 46.6527 117.988 45.5649 118.052C44.7331 118.116 44.5091 117.828 44.5091 116.996C44.5411 109.961 44.5091 102.894 44.5411 95.8596C44.5411 94.8363 44.3492 94.4845 43.2294 94.5165C38.8461 94.5805 34.4309 94.5485 29.7598 94.5485Z" fill="#E74214"/>
<path d="M80.7464 94.1201V82.5125H89.9317V94.1201H87.4769V84.5609H83.2012V94.1201H80.7464ZM96.1601 85.0812C97.3848 85.0812 98.3548 85.4334 99.0701 86.1379C99.7854 86.8315 100.143 87.8232 100.143 89.1129V90.2834H94.4206C94.4422 90.9662 94.6427 91.5027 95.0221 91.8929C95.4122 92.2831 95.9487 92.4781 96.6315 92.4781C97.2059 92.4781 97.7262 92.424 98.1922 92.3156C98.6583 92.1964 99.1405 92.0175 99.6391 91.7791V93.6487C99.2056 93.8654 98.745 94.0226 98.2572 94.1201C97.7804 94.2285 97.2005 94.2827 96.5177 94.2827C95.629 94.2827 94.8432 94.1201 94.1604 93.795C93.4776 93.459 92.9412 92.955 92.551 92.2831C92.1608 91.6111 91.9657 90.7657 91.9657 89.7469C91.9657 88.7065 92.1391 87.8449 92.486 87.1621C92.8436 86.4684 93.3368 85.9482 93.9654 85.6014C94.594 85.2546 95.3255 85.0812 96.1601 85.0812ZM96.1763 86.8044C95.7103 86.8044 95.3201 86.9561 95.0058 87.2596C94.7024 87.5631 94.5235 88.0345 94.4693 88.674H97.8671C97.8562 88.1321 97.7153 87.6877 97.4444 87.3409C97.1734 86.9832 96.7507 86.8044 96.1763 86.8044ZM106.887 85.0812C107.884 85.0812 108.691 85.4713 109.309 86.2517C109.927 87.0212 110.236 88.1592 110.236 89.6657C110.236 91.1722 109.916 92.321 109.277 93.1122C108.637 93.8925 107.819 94.2827 106.822 94.2827C106.182 94.2827 105.673 94.1689 105.294 93.9413C104.914 93.7029 104.605 93.4373 104.367 93.1447H104.237C104.324 93.5999 104.367 94.0334 104.367 94.4453V98.0218H101.945V85.2437H103.912L104.253 86.398H104.367C104.605 86.0403 104.925 85.7314 105.326 85.4713C105.727 85.2112 106.247 85.0812 106.887 85.0812ZM106.107 87.0157C105.478 87.0157 105.034 87.2108 104.773 87.601C104.524 87.9912 104.389 88.5873 104.367 89.3893V89.6494C104.367 90.5056 104.492 91.1667 104.741 91.6328C105.001 92.088 105.467 92.3156 106.139 92.3156C106.692 92.3156 107.098 92.088 107.358 91.6328C107.629 91.1667 107.765 90.5002 107.765 89.6331C107.765 87.8882 107.212 87.0157 106.107 87.0157ZM119.938 87.5685C119.938 88.0454 119.787 88.4518 119.483 88.7878C119.19 89.1238 118.752 89.3405 118.166 89.4381V89.5031C118.784 89.579 119.277 89.7903 119.646 90.1371C120.025 90.4839 120.215 90.9283 120.215 91.4702C120.215 91.9796 120.079 92.4348 119.808 92.8358C119.548 93.2368 119.131 93.5511 118.556 93.7787C117.982 94.0063 117.229 94.1201 116.297 94.1201H112.07V85.2437H116.297C116.99 85.2437 117.608 85.3196 118.15 85.4713C118.703 85.6122 119.136 85.8507 119.451 86.1866C119.776 86.5226 119.938 86.9832 119.938 87.5685ZM117.483 87.7636C117.483 87.2217 117.055 86.9507 116.199 86.9507H114.492V88.7065H115.923C116.432 88.7065 116.817 88.636 117.077 88.4951C117.348 88.3434 117.483 88.0996 117.483 87.7636ZM117.711 91.3401C117.711 90.9933 117.576 90.7441 117.305 90.5923C117.034 90.4297 116.627 90.3485 116.085 90.3485H114.492V92.4456H116.134C116.589 92.4456 116.963 92.3643 117.256 92.2018C117.559 92.0284 117.711 91.7412 117.711 91.3401ZM122.131 94.1201V85.2437H124.554V88.674H125.724C127.079 88.674 128.082 88.8907 128.732 89.3243C129.382 89.7578 129.707 90.4135 129.707 91.2914C129.707 92.1476 129.404 92.8358 128.797 93.356C128.19 93.8654 127.193 94.1201 125.806 94.1201H122.131ZM130.992 94.1201V85.2437H133.414V94.1201H130.992ZM125.676 92.4456C126.152 92.4456 126.537 92.3589 126.83 92.1855C127.133 92.0121 127.285 91.7249 127.285 91.3239C127.285 90.6736 126.738 90.3485 125.643 90.3485H124.554V92.4456H125.676ZM144.284 81.4233C144.229 81.9869 144.072 82.4854 143.812 82.919C143.552 83.3416 143.146 83.6722 142.593 83.9106C142.04 84.1491 141.298 84.2683 140.366 84.2683C139.412 84.2683 138.664 84.1545 138.122 83.9269C137.591 83.6885 137.212 83.3579 136.984 82.9352C136.757 82.5125 136.621 82.0086 136.578 81.4233H138.74C138.794 82.0194 138.946 82.415 139.195 82.6101C139.444 82.8052 139.851 82.9027 140.414 82.9027C140.88 82.9027 141.26 82.7997 141.552 82.5938C141.856 82.377 142.035 81.9869 142.089 81.4233H144.284ZM138.122 88.7553C138.122 88.9395 138.111 89.1671 138.09 89.4381C138.079 89.709 138.063 89.9854 138.041 90.2672C138.03 90.549 138.014 90.7982 137.992 91.015C137.97 91.2318 137.954 91.3835 137.943 91.4702L142.04 85.2437H144.95V94.1201H142.609V90.5761C142.609 90.2834 142.62 89.9637 142.642 89.6169C142.663 89.2592 142.685 88.9287 142.707 88.6252C142.739 88.3109 142.761 88.0725 142.772 87.9099L138.691 94.1201H135.781V85.2437H138.122V88.7553ZM156.442 94.1201H153.988V84.5609H150.834V82.5125H159.596V84.5609H156.442V94.1201ZM165.161 85.0812C166.158 85.0812 166.966 85.4713 167.583 86.2517C168.201 87.0212 168.51 88.1592 168.51 89.6657C168.51 91.1722 168.19 92.321 167.551 93.1122C166.911 93.8925 166.093 94.2827 165.096 94.2827C164.457 94.2827 163.947 94.1689 163.568 93.9413C163.189 93.7029 162.88 93.4373 162.641 93.1447H162.511C162.598 93.5999 162.641 94.0334 162.641 94.4453V98.0218H160.219V85.2437H162.186L162.527 86.398H162.641C162.88 86.0403 163.199 85.7314 163.6 85.4713C164.001 85.2112 164.522 85.0812 165.161 85.0812ZM164.381 87.0157C163.752 87.0157 163.308 87.2108 163.048 87.601C162.798 87.9912 162.663 88.5873 162.641 89.3893V89.6494C162.641 90.5056 162.766 91.1667 163.015 91.6328C163.275 92.088 163.741 92.3156 164.413 92.3156C164.966 92.3156 165.372 92.088 165.633 91.6328C165.903 91.1667 166.039 90.5002 166.039 89.6331C166.039 87.8882 165.486 87.0157 164.381 87.0157ZM174.002 85.0812C175.227 85.0812 176.197 85.4334 176.912 86.1379C177.627 86.8315 177.985 87.8232 177.985 89.1129V90.2834H172.262C172.284 90.9662 172.485 91.5027 172.864 91.8929C173.254 92.2831 173.791 92.4781 174.473 92.4781C175.048 92.4781 175.568 92.424 176.034 92.3156C176.5 92.1964 176.982 92.0175 177.481 91.7791V93.6487C177.047 93.8654 176.587 94.0226 176.099 94.1201C175.622 94.2285 175.042 94.2827 174.36 94.2827C173.471 94.2827 172.685 94.1201 172.002 93.795C171.319 93.459 170.783 92.955 170.393 92.2831C170.003 91.6111 169.808 90.7657 169.808 89.7469C169.808 88.7065 169.981 87.8449 170.328 87.1621C170.685 86.4684 171.179 85.9482 171.807 85.6014C172.436 85.2546 173.167 85.0812 174.002 85.0812ZM174.018 86.8044C173.552 86.8044 173.162 86.9561 172.848 87.2596C172.544 87.5631 172.365 88.0345 172.311 88.674H175.709C175.698 88.1321 175.557 87.6877 175.286 87.3409C175.015 86.9832 174.593 86.8044 174.018 86.8044ZM183.396 94.2827C182.073 94.2827 181.049 93.9196 180.323 93.1935C179.608 92.4565 179.25 91.3022 179.25 89.7307C179.25 88.6469 179.434 87.7636 179.803 87.0808C180.171 86.398 180.681 85.894 181.331 85.5689C181.992 85.2437 182.751 85.0812 183.607 85.0812C184.214 85.0812 184.74 85.1408 185.184 85.26C185.639 85.3792 186.035 85.5201 186.371 85.6827L185.655 87.5522C185.276 87.4005 184.918 87.2759 184.582 87.1783C184.257 87.0808 183.932 87.032 183.607 87.032C182.35 87.032 181.721 87.9261 181.721 89.7144C181.721 90.6032 181.884 91.2589 182.209 91.6815C182.545 92.1042 183.011 92.3156 183.607 92.3156C184.116 92.3156 184.566 92.2505 184.956 92.1205C185.346 91.9796 185.726 91.7899 186.094 91.5515V93.6161C185.726 93.8546 185.336 94.0226 184.924 94.1201C184.523 94.2285 184.013 94.2827 183.396 94.2827ZM195.323 87.0645H192.413V94.1201H189.991V87.0645H187.081V85.2437H195.323V87.0645Z" fill="#E74214"/>
<path d="M84.225 104.009V104.936H81.9991V109.307H80.8787V104.009H84.225ZM86.7295 104.009C87.4121 104.009 87.9093 104.157 88.2209 104.454C88.5375 104.746 88.6958 105.149 88.6958 105.664C88.6958 105.97 88.6315 106.26 88.5028 106.532C88.3742 106.799 88.1591 107.014 87.8573 107.177C87.5605 107.34 87.1549 107.422 86.6405 107.422H86.1582V109.307H85.0378V104.009H86.7295ZM86.6702 104.929H86.1582V106.502H86.5292C86.8458 106.502 87.0956 106.44 87.2786 106.316C87.4666 106.188 87.5605 105.983 87.5605 105.701C87.5605 105.186 87.2638 104.929 86.6702 104.929ZM92.3087 107.756C92.1603 108.092 92.002 108.384 91.8338 108.631C91.6706 108.874 91.4603 109.059 91.2031 109.188C90.9459 109.317 90.6095 109.381 90.194 109.381C90.0654 109.381 89.9244 109.371 89.7711 109.351C89.6178 109.331 89.4768 109.304 89.3482 109.27V108.305C89.4669 108.354 89.598 108.389 89.7414 108.409C89.8849 108.429 90.0184 108.439 90.1421 108.439C90.3894 108.439 90.5675 108.379 90.6763 108.26C90.7851 108.137 90.8717 107.988 90.936 107.815L89.1033 104.009H90.2905L91.2773 106.302C91.3119 106.376 91.3589 106.482 91.4183 106.621C91.4776 106.754 91.5222 106.868 91.5518 106.962H91.5889C91.6186 106.873 91.6607 106.757 91.7151 106.613C91.7744 106.47 91.8264 106.344 91.8709 106.235L92.7909 104.009H93.9484L92.3087 107.756ZM94.6168 109.307V104.009H98.809V109.307H97.6886V104.944H95.7372V109.307H94.6168ZM100.145 109.307V104.009H104.338V109.307H103.217V104.944H101.266V109.307H100.145ZM108.916 109.307L108.531 108.045H106.601L106.216 109.307H105.006L106.876 103.987H108.249L110.126 109.307H108.916ZM107.878 105.871C107.853 105.787 107.821 105.681 107.781 105.552C107.742 105.424 107.702 105.293 107.662 105.159C107.623 105.025 107.591 104.909 107.566 104.81C107.541 104.909 107.507 105.033 107.462 105.181C107.423 105.325 107.383 105.463 107.343 105.597C107.309 105.725 107.282 105.817 107.262 105.871L106.883 107.103H108.263L107.878 105.871ZM85.197 118.307H83.9208L81.9991 115.621V118.307H80.8787V113.009H81.9991V115.576L83.8986 113.009H85.0931L83.164 115.554L85.197 118.307ZM90.5269 115.65C90.5269 116.199 90.4354 116.679 90.2524 117.09C90.0743 117.495 89.7998 117.812 89.4288 118.04C89.0578 118.267 88.583 118.381 88.0042 118.381C87.4304 118.381 86.9556 118.267 86.5796 118.04C86.2086 117.812 85.9316 117.493 85.7486 117.082C85.5705 116.672 85.4815 116.192 85.4815 115.643C85.4815 115.094 85.5705 114.617 85.7486 114.211C85.9316 113.805 86.2086 113.491 86.5796 113.269C86.9556 113.041 87.4329 112.927 88.0116 112.927C88.5854 112.927 89.0578 113.041 89.4288 113.269C89.7998 113.491 90.0743 113.808 90.2524 114.218C90.4354 114.624 90.5269 115.101 90.5269 115.65ZM86.6612 115.65C86.6612 116.204 86.7676 116.642 86.9803 116.964C87.193 117.28 87.5343 117.439 88.0042 117.439C88.484 117.439 88.8278 117.28 89.0356 116.964C89.2433 116.642 89.3472 116.204 89.3472 115.65C89.3472 115.091 89.2433 114.654 89.0356 114.337C88.8278 114.021 88.4865 113.862 88.0116 113.862C87.5368 113.862 87.193 114.021 86.9803 114.337C86.7676 114.654 86.6612 115.091 86.6612 115.65ZM93.8651 118.307L92.5889 114.152H92.5592C92.5641 114.251 92.5716 114.399 92.5814 114.597C92.5913 114.795 92.6012 115.007 92.6111 115.235C92.621 115.457 92.626 115.66 92.626 115.843V118.307H91.6243V113.009H93.1528L94.4067 117.06H94.429L95.7571 113.009H97.2856V118.307H96.2394V115.799C96.2394 115.631 96.2419 115.438 96.2468 115.22C96.2567 115.002 96.2641 114.797 96.2691 114.604C96.279 114.406 96.2864 114.258 96.2913 114.159H96.2616L94.8964 118.307H93.8651ZM98.6238 118.307V113.009H102.816V118.307H101.696V113.944H99.7442V118.307H98.6238ZM107.395 118.307L107.009 117.045H105.08L104.694 118.307H103.485L105.354 112.987H106.727L108.604 118.307H107.395ZM106.356 114.871C106.331 114.787 106.299 114.681 106.26 114.552C106.22 114.424 106.18 114.293 106.141 114.159C106.101 114.025 106.069 113.909 106.044 113.81C106.02 113.909 105.985 114.033 105.941 114.181C105.901 114.325 105.861 114.463 105.822 114.597C105.787 114.725 105.76 114.817 105.74 114.871L105.362 116.103H106.742L106.356 114.871ZM113.616 118.307H112.495V116.021H110.396V118.307H109.275V113.009H110.396V115.086H112.495V113.009H113.616V118.307ZM114.949 113.009H115.958V115.569C115.958 115.692 115.955 115.831 115.95 115.984C115.945 116.138 115.94 116.288 115.935 116.437C115.931 116.58 115.926 116.706 115.921 116.815C115.916 116.919 115.911 116.991 115.906 117.03H115.928L118.377 113.009H119.72V118.307H118.718V115.762C118.718 115.628 118.72 115.482 118.725 115.324C118.73 115.161 118.735 115.005 118.74 114.856C118.75 114.708 118.757 114.579 118.762 114.471C118.772 114.357 118.78 114.283 118.785 114.248H118.755L116.299 118.307H114.949V113.009ZM125.323 111.265C125.299 111.523 125.227 111.75 125.108 111.948C124.989 112.141 124.804 112.292 124.552 112.401C124.299 112.509 123.961 112.564 123.535 112.564C123.1 112.564 122.759 112.512 122.511 112.408C122.269 112.299 122.096 112.148 121.992 111.955C121.888 111.762 121.826 111.532 121.806 111.265H122.793C122.818 111.537 122.887 111.718 123.001 111.807C123.115 111.896 123.3 111.941 123.557 111.941C123.77 111.941 123.943 111.894 124.077 111.8C124.215 111.701 124.297 111.523 124.322 111.265H125.323ZM121.057 113.009H122.066V115.569C122.066 115.692 122.064 115.831 122.059 115.984C122.054 116.138 122.049 116.288 122.044 116.437C122.039 116.58 122.034 116.706 122.029 116.815C122.024 116.919 122.019 116.991 122.014 117.03H122.036L124.485 113.009H125.828V118.307H124.826V115.762C124.826 115.628 124.829 115.482 124.834 115.324C124.839 115.161 124.843 115.005 124.848 114.856C124.858 114.708 124.866 114.579 124.871 114.471C124.881 114.357 124.888 114.283 124.893 114.248H124.863L122.407 118.307H121.057V113.009Z" fill="#E74214"/>
</svg>
