<svg width="228" height="200" viewBox="0 0 228 200" fill="none" xmlns="http://www.w3.org/2000/svg">
<rect x="0.5" y="0.5" width="227" height="199" stroke="#424242"/>
<path d="M75.1665 76.853C77.6088 76.901 80.562 77.3489 83.4354 78.4047C87.2346 79.7964 90.3314 82.1159 92.9653 85.1552C94.7372 87.2028 96.0781 89.5063 97.1636 91.9378C98.0416 93.9214 98.7121 95.9689 99.1271 98.1285C99.4623 99.8401 99.6539 101.552 99.6698 103.263C99.7018 105.983 99.3825 108.686 98.3768 111.246C97.9458 112.349 97.0679 112.861 95.8866 112.877C95.1842 112.877 95.0086 112.605 95.296 112.013C95.9983 110.574 96.4293 109.038 96.6847 107.47C97.2435 104.111 97.1636 100.752 96.2857 97.4406C94.7532 91.6978 91.8958 86.8349 86.8994 83.4596C82.4776 80.4842 77.5609 79.4765 72.2931 80.0203C69.7071 80.2923 67.2488 80.9641 64.966 82.1959C62.0448 83.7795 59.5865 85.9231 57.6869 88.6905C56.6493 90.1942 55.8511 91.8098 55.2764 93.5214C54.3825 96.2089 54.0473 98.9923 54.3346 101.84C54.606 104.511 55.4839 106.975 56.5375 109.438C57.0643 110.654 55.3722 110.702 54.7496 111.326C54.2707 111.806 54.0313 111.278 53.8238 110.91C52.5627 108.526 51.7486 106.015 51.3495 103.327C50.9823 100.848 51.0622 98.4004 51.4134 95.9369C51.6368 94.3853 52.1317 92.8816 52.6904 91.4259C53.712 88.8345 55.1966 86.5469 57.0803 84.4834C59.1395 82.2119 61.5659 80.4363 64.3275 79.1565C67.568 77.6529 70.9841 76.853 75.1665 76.853Z" fill="#E74214"/>
<path d="M94.3229 103.439C94.5305 107.63 93.3652 111.262 91.1303 114.557C89.4382 117.052 87.2034 118.956 84.5535 120.444C80.7224 122.571 76.6518 123.419 72.3258 123.067C68.4627 122.747 64.9189 121.499 61.6305 119.404C59.5872 118.092 57.8792 116.46 56.2988 114.653C55.8359 114.125 55.788 113.741 56.4105 113.309C56.9693 112.909 57.4641 112.173 58.0707 112.157C58.6773 112.141 58.9806 113.021 59.4276 113.485C62.1413 116.364 65.318 118.412 69.181 119.436C72.1502 120.22 75.1034 120.412 78.0565 119.66C82.7656 118.46 86.6766 116.045 89.2147 111.757C90.4599 109.662 91.1463 107.358 91.4017 104.927C91.8646 100.368 90.5716 96.2888 88.0335 92.5296C87.2672 91.3938 86.3573 90.418 85.3197 89.5382C84.9845 89.2503 84.8887 88.9943 85.2719 88.6424C85.7986 88.1625 86.086 87.2507 86.7724 87.1707C87.4748 87.0907 87.9058 87.9545 88.4166 88.4344C90.2045 90.1461 91.4975 92.2096 92.5191 94.4332C93.8281 97.3765 94.5464 100.4 94.3229 103.439Z" fill="#E74214"/>
<path d="M57.128 99.9842C57.16 93.0257 61.3742 86.787 67.7435 84.1796C71.1277 82.7879 74.5917 82.5799 78.1674 83.1558C79.9872 83.4597 81.6953 84.0356 83.3554 84.8035C84.3451 85.2674 84.3611 85.3473 83.7864 86.2271C83.7545 86.2751 83.7226 86.3071 83.6907 86.3551C82.8765 87.7628 82.9085 87.6988 81.3441 87.091C78.7581 86.0832 76.0763 85.6193 73.2668 85.9232C69.8347 86.2911 66.8815 87.5869 64.503 90.0663C61.1348 93.5696 59.8418 97.7607 60.7676 102.576C61.6935 107.391 64.519 110.782 68.9088 112.749C71.5427 113.917 74.3682 114.477 77.2735 113.549C77.6087 113.437 77.8003 113.485 77.928 113.869C78.1674 114.573 78.4388 115.261 78.7102 115.933C78.9496 116.525 78.4548 116.557 78.1355 116.653C75.9805 117.292 73.7935 117.324 71.5906 116.957C67.9351 116.365 64.7744 114.733 62.1405 112.142C59.8897 109.918 58.3732 107.247 57.6069 104.159C57.2717 102.8 57.1121 101.408 57.128 99.9842Z" fill="#E74214"/>
<path d="M63.0187 100.096C62.8591 95.2173 66.5146 90.5143 71.3355 89.2505C71.99 89.0746 72.2933 89.2665 72.3891 89.9064C72.405 89.9864 72.421 90.0664 72.421 90.1463C72.6604 92.0819 72.6445 92.0179 70.8247 92.8658C67.7757 94.2895 65.7963 97.7927 66.371 101.248C67.0414 105.327 70.6491 108.238 74.5121 108.031C76.8747 107.903 79.3649 106.399 79.4926 103.535C79.5246 102.784 79.9556 102.576 80.6101 102.512C82.7491 102.336 82.6214 102.32 82.4299 104.271C82.1266 107.471 80.211 109.582 77.3057 110.654C74.1769 111.806 71.1439 111.214 68.3025 109.55C65.1418 107.743 62.8112 103.855 63.0187 100.096Z" fill="#E74214"/>
<path d="M88.4317 102.623C88.304 107.774 86.2448 111.789 82.1582 114.733C81.7432 115.037 81.4558 115.021 81.2004 114.541C80.9929 114.173 80.7854 113.805 80.53 113.453C80.0032 112.733 80.2107 112.301 80.929 111.853C82.4136 110.909 83.4831 109.598 84.2973 108.03C85.287 106.142 85.5424 104.143 85.3668 102.079C85.1433 99.3759 84.0578 97.0084 82.1901 95.0408C80.4502 93.2012 78.2472 92.3214 75.773 92.0814C75.2781 92.0335 75.1185 91.8575 75.1504 91.3936C75.1664 91.1537 75.1504 90.9137 75.1504 90.6738C75.1664 88.8821 75.1823 88.7862 76.9702 89.0581C80.6736 89.618 83.6587 91.3776 85.8297 94.5129C87.5537 97.0084 88.3359 99.7598 88.4317 102.623Z" fill="#E74214"/>
<path d="M74.1601 94.625C77.5602 94.673 79.827 95.7288 81.2637 98.2722C81.4712 98.6401 81.6149 99.0401 81.7745 99.424C81.9182 99.8239 81.6308 99.9519 81.3275 100.016C81.0402 100.08 80.7369 100.064 80.4655 100.128C79.6833 100.304 79.0927 100.352 78.5819 99.456C77.672 97.8563 76.0757 97.4084 74.3357 97.5524C73.2662 97.6484 72.5638 98.3522 72.2605 99.376C71.9891 100.272 72.3243 101.008 72.9788 101.6C73.7291 102.287 74.5751 102.527 75.5329 102.047C75.916 101.855 76.347 101.775 76.6184 101.408C76.9536 100.928 77.1452 101.008 77.4645 101.488C78.3265 102.751 77.1452 104.543 76.0278 105.023C73.8887 105.935 71.3027 104.847 70.1214 103.135C68.3974 100.64 68.9242 97.5044 71.3346 95.7128C72.3084 94.9449 73.4737 94.641 74.1601 94.625Z" fill="#E74214"/>
<path d="M114.607 100.8V87.3674H125.565V100.8H129.417V84.2519H125.315H110.755V88.1658V100.8H114.607ZM148.368 87.203H137.981V97.6922H148.368V94.1306L152.219 94.929V96.8859C152.219 98.3836 151.94 99.4117 151.382 99.9701C150.787 100.523 149.696 100.8 148.11 100.8H138.239C136.652 100.8 135.562 100.523 134.967 99.9701C134.408 99.4117 134.129 98.3836 134.129 96.8859V88.1658C134.129 86.6733 134.408 85.6479 134.967 85.0895C135.557 84.5311 136.647 84.2519 138.239 84.2519H148.11C149.701 84.2519 150.792 84.5311 151.382 85.0895C151.94 85.6479 152.219 86.6733 152.219 88.1658V89.7392L148.368 90.3497V87.203ZM170.529 87.203H160.141V97.6922H170.529V94.1306L174.38 94.929V96.8859C174.38 98.3836 174.101 99.4117 173.542 99.9701C172.947 100.523 171.857 100.8 170.27 100.8H160.4C158.813 100.8 157.722 100.523 157.128 99.9701C156.569 99.4117 156.29 98.3836 156.29 96.8859V88.1658C156.29 86.6733 156.569 85.6479 157.128 85.0895C157.717 84.5311 158.808 84.2519 160.4 84.2519H170.27C171.862 84.2519 172.953 84.5311 173.542 85.0895C174.101 85.6479 174.38 86.6733 174.38 88.1658V89.7392L170.529 90.3497V87.203Z" fill="#E74214"/>
<path d="M110.622 111.85V104.495H117.333L116.536 105.779H112.334V111.85H110.622ZM123.864 105.765H120.016V107.717H123.864C124.163 107.717 124.367 107.674 124.476 107.588C124.58 107.502 124.633 107.35 124.633 107.132V106.349C124.633 106.131 124.58 105.979 124.476 105.894C124.367 105.808 124.163 105.765 123.864 105.765ZM118.336 111.85V104.495H124.619C125.196 104.495 125.624 104.605 125.902 104.826C126.16 105.05 126.289 105.416 126.289 105.921V107.56C126.289 108.054 126.16 108.415 125.902 108.642C125.631 108.872 125.203 108.986 124.619 108.986H120.016V111.85H118.336ZM130.54 108.913H133.762L132.165 105.921L130.54 108.913ZM127.249 111.85L131.396 104.495H133.049L137.269 111.85H135.345L134.461 110.239H129.799L128.943 111.85H127.249ZM147.163 111.85V104.495H145.994L140.821 108.83C140.606 108.997 140.449 109.129 140.352 109.226C140.24 109.338 140.117 109.471 139.983 109.627C139.992 109.478 140.001 109.317 140.011 109.143C140.022 108.969 140.031 108.84 140.038 108.757C140.048 108.643 140.052 108.51 140.052 108.357V104.495H138.515V111.85H139.684L145.083 107.303C145.238 107.168 145.352 107.064 145.424 106.989C145.54 106.876 145.63 106.781 145.695 106.704C145.691 106.788 145.681 106.899 145.667 107.038C145.654 107.177 145.644 107.281 145.64 107.348C145.63 107.489 145.626 107.664 145.626 107.873V111.85H147.163ZM141.277 104.495V103.243H144.599V104.495H141.277ZM153.621 105.807V111.85H151.913V105.807H148.535V104.495H157.013V105.807H153.621ZM157.786 111.85V104.495H165.311V105.751H159.497V107.39H162.889V108.642H159.497V110.468H165.384V111.85H157.786ZM166.87 111.85V104.495H168.595V107.56L172.669 104.495H175.15L170.276 107.96L175.748 111.85H172.996L168.595 108.614V111.85H166.87Z" fill="#E74214"/>
</svg>
