<svg width="228" height="200" viewBox="0 0 228 200" fill="none" xmlns="http://www.w3.org/2000/svg">
<rect x="0.5" y="0.5" width="227" height="199" stroke="#424242"/>
<g clip-path="url(#clip0_1_466)">
<path fill-rule="evenodd" clip-rule="evenodd" d="M177.199 108.563V95.6924H183.265V91.4375H165.646V95.6924H171.713V108.563H177.199Z" fill="#E74214"/>
<path fill-rule="evenodd" clip-rule="evenodd" d="M143.597 108.563V104.415H135.315C134.998 104.415 134.524 104.415 134.26 104.202C134.154 104.096 133.996 103.883 133.996 103.564V101.702H143.28V97.9793H133.996V96.7029C133.996 96.4901 133.996 96.0647 134.26 95.8519C134.471 95.6924 134.787 95.586 135.104 95.586H143.492V91.4375H131.253C130.62 91.4375 129.829 91.5439 129.196 92.1289C128.563 92.714 128.457 93.4054 128.457 94.0968V105.851C128.457 106.649 128.457 107.34 129.248 108.031C129.881 108.563 130.62 108.616 131.306 108.616H143.597V108.563Z" fill="#E74214"/>
<path fill-rule="evenodd" clip-rule="evenodd" d="M107.461 104.362H105.826V108.563H125.925V104.362H124.237L119.7 93.3522C119.383 92.5012 118.645 91.4375 115.849 91.4375C113 91.4375 112.315 92.5012 111.998 93.3522L107.461 104.362ZM115.585 96.9688C115.638 96.8093 115.691 96.5433 115.849 96.5433C116.007 96.5433 116.06 96.8093 116.113 96.9688L118.803 104.308H112.895L115.585 96.9688Z" fill="#E74214"/>
<path fill-rule="evenodd" clip-rule="evenodd" d="M156.573 95.5867C156.89 95.5867 157.154 95.5867 157.418 95.8526C157.681 96.1186 157.681 96.4377 157.681 96.7568V108.617H163.167V93.938C163.167 93.3529 163.062 92.7679 162.534 92.1828C161.849 91.4914 161.058 91.4382 160.055 91.4382H149.346C148.555 91.4382 147.553 91.3851 146.814 92.1828C146.286 92.7147 146.182 93.3529 146.182 93.938V108.564H151.668V96.7036C151.668 96.3845 151.668 96.0654 151.931 95.7995C152.195 95.5335 152.511 95.5335 152.775 95.5335H156.573V95.5867Z" fill="#E74214"/>
<path fill-rule="evenodd" clip-rule="evenodd" d="M83.0879 108.563H88.7851L90.104 105.053H96.1704L97.4892 108.563H103.186L96.9617 93.4585C96.1704 91.5438 94.7461 91.3843 93.1108 91.3843C90.5259 91.3843 89.7874 92.1821 89.2599 93.4585L83.0879 108.563ZM92.8998 96.9156C92.9525 96.8092 93.058 96.5433 93.1108 96.5433C93.1635 96.5433 93.2691 96.8092 93.3218 96.9156L94.8516 101.224H91.37L92.8998 96.9156Z" fill="#E74214"/>
<path fill-rule="evenodd" clip-rule="evenodd" d="M61.3095 91.3843L56.334 96.4954L63.7035 105.203L74.6873 105.156L61.3095 91.3843Z" fill="#E74214"/>
<path fill-rule="evenodd" clip-rule="evenodd" d="M59.853 105.913L61.2611 104.493L55.4406 97.394L44.5977 108.563H78.2063L75.6246 105.96L59.853 105.913Z" fill="#E74214"/>
</g>
<defs>
<clipPath id="clip0_1_466">
<rect width="139.68" height="18.24" fill="white" transform="translate(44.1602 90.8799)"/>
</clipPath>
</defs>
</svg>
