<svg width="104" height="20" viewBox="0 0 104 20" fill="none" xmlns="http://www.w3.org/2000/svg">
<g clip-path="url(#clip0_754_1695)">
<path fill-rule="evenodd" clip-rule="evenodd" d="M0 4.12872V0H21.003V16.5149H6.30213V12.3862H16.7925V10.3267H6.30213V6.19794H16.7925V4.12872H0ZM4.19813 6.19551H0V16.5149H4.19813V6.19551Z" fill="#E74214"/>
<path fill-rule="evenodd" clip-rule="evenodd" d="M28.333 16.4032V0H31.5878V3.59684H42.982V16.4032H28.333ZM39.7272 13.2022V6.80024H31.5779V13.2022H39.7272Z" fill="white"/>
<path fill-rule="evenodd" clip-rule="evenodd" d="M44.6084 2.79539V0H47.8632V2.79539H44.6084ZM44.6084 16.3959V3.59684H47.8632V16.4032L44.6084 16.3959Z" fill="white"/>
<path fill-rule="evenodd" clip-rule="evenodd" d="M49.4912 16.403V3.59668H64.1427V16.403H60.8854V6.79765H58.4456V16.403H55.1883V6.79765H52.7485V16.403H49.4912Z" fill="white"/>
<path fill-rule="evenodd" clip-rule="evenodd" d="M65.7695 19.9998V3.59668H80.4185V16.403H69.0243V19.9998H65.7695ZM77.1613 13.1996V6.80008H69.0243V13.202L77.1613 13.1996Z" fill="white"/>
<path fill-rule="evenodd" clip-rule="evenodd" d="M85.3007 6.79765V16.403H82.0459V3.59668H87.7381V6.79765H85.3007Z" fill="white"/>
<path fill-rule="evenodd" clip-rule="evenodd" d="M89.3506 16.403V3.59668H104V16.403H89.3506ZM100.755 13.202V6.80008H92.6054V13.202H100.755Z" fill="white"/>
</g>
<defs>
<clipPath id="clip0_754_1695">
<rect width="104" height="20" fill="white"/>
</clipPath>
</defs>
</svg>
