<svg width="238" height="37" viewBox="0 0 238 37" fill="none" xmlns="http://www.w3.org/2000/svg">
<path d="M201.161 27.6958L202.858 16.1616H204.898L202.717 30.3016H199.404L197.222 16.1616H199.464L201.161 27.6958Z" fill="#E74214"/>
<path d="M205.531 16.1616H207.753V30.3016H205.531V16.1616Z" fill="#E74214"/>
<path d="M208.691 19.5552C208.691 18.4105 208.961 17.5352 209.499 16.9292C210.051 16.3097 210.873 16 211.964 16C213.054 16 213.869 16.3097 214.408 16.9292C214.96 17.5352 215.236 18.4105 215.236 19.5552V19.9996H213.135V19.4138C213.135 18.9021 213.034 18.5452 212.832 18.3432C212.644 18.1277 212.374 18.02 212.024 18.02C211.674 18.02 211.398 18.1277 211.196 18.3432C211.007 18.5452 210.913 18.9021 210.913 19.4138C210.913 19.8986 211.021 20.3295 211.236 20.7066C211.452 21.0702 211.721 21.4203 212.044 21.757C212.368 22.0802 212.711 22.4101 213.075 22.7468C213.452 23.07 213.802 23.4269 214.125 23.8174C214.448 24.2079 214.718 24.6523 214.933 25.1506C215.148 25.6489 215.256 26.2347 215.256 26.908C215.256 28.0527 214.973 28.9347 214.408 29.5542C213.856 30.1602 213.034 30.4632 211.943 30.4632C210.853 30.4632 210.024 30.1602 209.459 29.5542C208.907 28.9347 208.631 28.0527 208.631 26.908V26.0394H210.731V27.0494C210.731 27.5611 210.832 27.918 211.034 28.12C211.25 28.322 211.533 28.423 211.883 28.423C212.233 28.423 212.509 28.322 212.711 28.12C212.926 27.918 213.034 27.5611 213.034 27.0494C213.034 26.5646 212.926 26.1404 212.711 25.7768C212.496 25.3997 212.226 25.0496 211.903 24.7264C211.58 24.3897 211.23 24.0598 210.853 23.7366C210.489 23.3999 210.146 23.0363 209.822 22.6458C209.499 22.2553 209.23 21.8109 209.014 21.3126C208.799 20.8143 208.691 20.2285 208.691 19.5552Z" fill="#E74214"/>
<path d="M218.246 16.1616V27.0696C218.246 27.5813 218.347 27.9382 218.549 28.1402C218.765 28.3422 219.048 28.4432 219.398 28.4432C219.748 28.4432 220.024 28.3422 220.226 28.1402C220.441 27.9382 220.549 27.5813 220.549 27.0696V16.1616H222.65V26.9282C222.65 28.0729 222.367 28.9549 221.801 29.5744C221.249 30.1804 220.428 30.4834 219.337 30.4834C218.246 30.4834 217.418 30.1804 216.852 29.5744C216.3 28.9549 216.024 28.0729 216.024 26.9282V16.1616H218.246Z" fill="#E74214"/>
<path d="M230.961 30.3016H228.719L228.335 27.7362H225.608L225.224 30.3016H223.184L225.446 16.1616H228.699L230.961 30.3016ZM225.891 25.8172H228.032L226.961 18.6664L225.891 25.8172Z" fill="#E74214"/>
<path d="M231.592 16.1616H233.814V28.2816H237.47V30.3016H231.592V16.1616Z" fill="#E74214"/>
<g clip-path="url(#clip0_2697_414)">
<path fill-rule="evenodd" clip-rule="evenodd" d="M0 7.63813V0H38.3709V30.5525H11.5135V22.9144H30.6786V19.1043H11.5135V11.4662H30.6786V7.63813H0ZM7.66966 11.4617H0V30.5525H7.66966V11.4617Z" fill="#E74214"/>
<path fill-rule="evenodd" clip-rule="evenodd" d="M51.7612 30.3458V0H57.7075V6.65416H78.5238V30.3458H51.7612ZM72.5776 24.424V12.5804H57.6894V24.424H72.5776Z" fill="white"/>
<path fill-rule="evenodd" clip-rule="evenodd" d="M81.4971 5.17146V0H87.4433V5.17146H81.4971ZM81.4971 30.3324V6.65416H87.4433V30.3458L81.4971 30.3324Z" fill="white"/>
<path fill-rule="evenodd" clip-rule="evenodd" d="M90.4165 30.346V6.6543H117.184V30.346H111.233V12.5761H106.775V30.346H100.825V12.5761H96.3673V30.346H90.4165Z" fill="white"/>
<path fill-rule="evenodd" clip-rule="evenodd" d="M120.156 37.0001V6.6543H146.919V30.346H126.102V37.0001H120.156ZM140.968 24.4197V12.5806H126.102V24.4242L140.968 24.4197Z" fill="white"/>
<path fill-rule="evenodd" clip-rule="evenodd" d="M155.838 12.5761V30.346H149.892V6.6543H160.291V12.5761H155.838Z" fill="white"/>
<path fill-rule="evenodd" clip-rule="evenodd" d="M163.237 30.346V6.6543H190V30.346H163.237ZM184.072 24.4242V12.5806H169.184V24.4242H184.072Z" fill="white"/>
</g>
<defs>
<clipPath id="clip0_2697_414">
<rect width="190" height="37" fill="white"/>
</clipPath>
</defs>
</svg>
